<svg width="512" height="612" viewBox="0 0 512 612" fill="none" xmlns="http://www.w3.org/2000/svg">
<rect width="512" height="612" fill="white"/>
<rect x="194" y="70" width="124" height="37" fill="#C4C4C4"/>
<path d="M220.477 90.8418C220.354 91.8945 219.964 92.708 219.308 93.2822C218.656 93.8519 217.788 94.1367 216.703 94.1367C215.527 94.1367 214.584 93.7152 213.873 92.8721C213.167 92.029 212.813 90.901 212.813 89.4883V88.5312C212.813 87.6061 212.978 86.7926 213.306 86.0908C213.638 85.389 214.108 84.8512 214.714 84.4775C215.32 84.0993 216.022 83.9102 216.819 83.9102C217.877 83.9102 218.724 84.2064 219.362 84.7988C220 85.3867 220.372 86.2025 220.477 87.2461H219.157C219.043 86.4531 218.795 85.8789 218.412 85.5234C218.034 85.168 217.503 84.9902 216.819 84.9902C215.981 84.9902 215.322 85.3001 214.844 85.9199C214.37 86.5397 214.133 87.4215 214.133 88.5654V89.5293C214.133 90.6094 214.358 91.4684 214.81 92.1064C215.261 92.7445 215.892 93.0635 216.703 93.0635C217.432 93.0635 217.991 92.8994 218.378 92.5713C218.77 92.2386 219.03 91.6621 219.157 90.8418H220.477ZM225.651 87.7383C225.46 87.7064 225.253 87.6904 225.029 87.6904C224.2 87.6904 223.637 88.0436 223.341 88.75V94H222.076V86.6035H223.307L223.327 87.458C223.742 86.7972 224.33 86.4668 225.091 86.4668C225.337 86.4668 225.524 86.4987 225.651 86.5625V87.7383ZM229.753 94.1367C228.75 94.1367 227.935 93.8086 227.306 93.1523C226.677 92.4915 226.362 91.6097 226.362 90.5068V90.2744C226.362 89.5407 226.501 88.8867 226.779 88.3125C227.062 87.7337 227.454 87.2826 227.955 86.959C228.461 86.6309 229.008 86.4668 229.596 86.4668C230.557 86.4668 231.305 86.7835 231.838 87.417C232.371 88.0505 232.638 88.9574 232.638 90.1377V90.6641H227.627C227.645 91.3932 227.857 91.9834 228.263 92.4346C228.673 92.8812 229.192 93.1045 229.821 93.1045C230.268 93.1045 230.646 93.0133 230.956 92.8311C231.266 92.6488 231.537 92.4072 231.77 92.1064L232.542 92.708C231.922 93.6605 230.993 94.1367 229.753 94.1367ZM229.596 87.5059C229.085 87.5059 228.657 87.6927 228.311 88.0664C227.964 88.4355 227.75 88.9551 227.668 89.625H231.373V89.5293C231.337 88.8867 231.163 88.39 230.854 88.0391C230.544 87.6836 230.124 87.5059 229.596 87.5059ZM238.674 94C238.601 93.8542 238.542 93.5944 238.496 93.2207C237.908 93.8314 237.206 94.1367 236.391 94.1367C235.661 94.1367 235.062 93.9316 234.593 93.5215C234.128 93.1068 233.896 92.5827 233.896 91.9492C233.896 91.179 234.187 90.582 234.771 90.1582C235.358 89.7298 236.183 89.5156 237.245 89.5156H238.476V88.9346C238.476 88.4925 238.343 88.1416 238.079 87.8818C237.815 87.6175 237.425 87.4854 236.91 87.4854C236.459 87.4854 236.081 87.5993 235.775 87.8271C235.47 88.055 235.317 88.3307 235.317 88.6543H234.046C234.046 88.2852 234.176 87.9297 234.436 87.5879C234.7 87.2415 235.055 86.9681 235.502 86.7676C235.953 86.5671 236.448 86.4668 236.985 86.4668C237.838 86.4668 238.505 86.681 238.988 87.1094C239.471 87.5332 239.722 88.1188 239.74 88.8662V92.2705C239.74 92.9495 239.827 93.4896 240 93.8906V94H238.674ZM236.575 93.0361C236.972 93.0361 237.348 92.9336 237.703 92.7285C238.059 92.5234 238.316 92.2568 238.476 91.9287V90.4111H237.484C235.935 90.4111 235.16 90.8646 235.16 91.7715C235.16 92.168 235.292 92.4779 235.557 92.7012C235.821 92.9245 236.16 93.0361 236.575 93.0361ZM243.438 84.8125V86.6035H244.819V87.5811H243.438V92.168C243.438 92.4642 243.5 92.6875 243.623 92.8379C243.746 92.9837 243.956 93.0566 244.252 93.0566C244.398 93.0566 244.598 93.0293 244.854 92.9746V94C244.521 94.0911 244.197 94.1367 243.883 94.1367C243.318 94.1367 242.892 93.9658 242.604 93.624C242.317 93.2822 242.174 92.7969 242.174 92.168V87.5811H240.827V86.6035H242.174V84.8125H243.438ZM249.372 94.1367C248.369 94.1367 247.554 93.8086 246.925 93.1523C246.296 92.4915 245.981 91.6097 245.981 90.5068V90.2744C245.981 89.5407 246.12 88.8867 246.398 88.3125C246.681 87.7337 247.073 87.2826 247.574 86.959C248.08 86.6309 248.627 86.4668 249.215 86.4668C250.176 86.4668 250.924 86.7835 251.457 87.417C251.99 88.0505 252.257 88.9574 252.257 90.1377V90.6641H247.246C247.264 91.3932 247.476 91.9834 247.882 92.4346C248.292 92.8812 248.812 93.1045 249.44 93.1045C249.887 93.1045 250.265 93.0133 250.575 92.8311C250.885 92.6488 251.156 92.4072 251.389 92.1064L252.161 92.708C251.541 93.6605 250.612 94.1367 249.372 94.1367ZM249.215 87.5059C248.704 87.5059 248.276 87.6927 247.93 88.0664C247.583 88.4355 247.369 88.9551 247.287 89.625H250.992V89.5293C250.956 88.8867 250.783 88.39 250.473 88.0391C250.163 87.6836 249.743 87.5059 249.215 87.5059ZM262.894 91.4023H258.724L257.787 94H256.434L260.234 84.0469H261.383L265.19 94H263.844L262.894 91.4023ZM259.12 90.3223H262.504L260.809 85.667L259.12 90.3223ZM271.315 90.1035V94H270.003V84.0469H273.674C274.763 84.0469 275.615 84.3249 276.23 84.8809C276.85 85.4368 277.16 86.1729 277.16 87.0889C277.16 88.055 276.857 88.8001 276.251 89.3242C275.649 89.8438 274.786 90.1035 273.66 90.1035H271.315ZM271.315 89.0303H273.674C274.376 89.0303 274.913 88.8662 275.287 88.5381C275.661 88.2054 275.848 87.7269 275.848 87.1025C275.848 86.5101 275.661 86.0361 275.287 85.6807C274.913 85.3252 274.401 85.1406 273.749 85.127H271.315V89.0303ZM278.206 90.2334C278.206 89.5088 278.347 88.8571 278.63 88.2783C278.917 87.6995 279.313 87.2529 279.819 86.9385C280.33 86.624 280.911 86.4668 281.562 86.4668C282.57 86.4668 283.383 86.8154 284.003 87.5127C284.627 88.21 284.939 89.1374 284.939 90.2949V90.3838C284.939 91.1038 284.8 91.751 284.522 92.3252C284.249 92.8949 283.855 93.3392 283.34 93.6582C282.829 93.9772 282.242 94.1367 281.576 94.1367C280.574 94.1367 279.76 93.7881 279.136 93.0908C278.516 92.3936 278.206 91.4707 278.206 90.3223V90.2334ZM279.478 90.3838C279.478 91.2041 279.667 91.8626 280.045 92.3594C280.428 92.8561 280.938 93.1045 281.576 93.1045C282.219 93.1045 282.729 92.8538 283.107 92.3525C283.486 91.8467 283.675 91.1403 283.675 90.2334C283.675 89.4222 283.481 88.766 283.094 88.2646C282.711 87.7588 282.201 87.5059 281.562 87.5059C280.938 87.5059 280.435 87.7542 280.052 88.251C279.669 88.7477 279.478 89.4587 279.478 90.3838ZM287.899 94H286.635V83.5H287.899V94ZM291.304 94H290.039V83.5H291.304V94Z" fill="black"/>
<rect x="31" y="278" width="124" height="37" fill="#C4C4C4"/>
<path d="M75.0078 297.563C73.8822 297.24 73.0618 296.843 72.5469 296.374C72.0365 295.9 71.7812 295.317 71.7812 294.624C71.7812 293.84 72.0934 293.193 72.7178 292.683C73.3467 292.168 74.1624 291.91 75.165 291.91C75.8486 291.91 76.457 292.042 76.9902 292.307C77.528 292.571 77.9427 292.936 78.2344 293.4C78.5306 293.865 78.6787 294.373 78.6787 294.925H77.3594C77.3594 294.323 77.168 293.852 76.7852 293.51C76.4023 293.163 75.8623 292.99 75.165 292.99C74.5179 292.99 74.012 293.134 73.6475 293.421C73.2874 293.703 73.1074 294.098 73.1074 294.604C73.1074 295.009 73.2783 295.353 73.6201 295.636C73.9665 295.914 74.5521 296.169 75.377 296.401C76.2064 296.634 76.8535 296.891 77.3184 297.174C77.7878 297.452 78.1341 297.778 78.3574 298.151C78.5853 298.525 78.6992 298.965 78.6992 299.471C78.6992 300.277 78.3848 300.924 77.7559 301.412C77.127 301.895 76.2861 302.137 75.2334 302.137C74.5498 302.137 73.9118 302.007 73.3193 301.747C72.7269 301.483 72.2689 301.123 71.9453 300.667C71.6263 300.211 71.4668 299.694 71.4668 299.115H72.7861C72.7861 299.717 73.0072 300.193 73.4492 300.544C73.8958 300.89 74.4906 301.063 75.2334 301.063C75.9261 301.063 76.457 300.922 76.8262 300.64C77.1953 300.357 77.3799 299.972 77.3799 299.484C77.3799 298.997 77.209 298.621 76.8672 298.356C76.5254 298.088 75.9056 297.823 75.0078 297.563ZM84.7559 301.269C84.2637 301.847 83.5413 302.137 82.5889 302.137C81.8005 302.137 81.1989 301.909 80.7842 301.453C80.374 300.993 80.1667 300.314 80.1621 299.416V294.604H81.4268V299.382C81.4268 300.503 81.8825 301.063 82.7939 301.063C83.7601 301.063 84.4027 300.703 84.7217 299.983V294.604H85.9863V302H84.7832L84.7559 301.269ZM94.1758 298.384C94.1758 299.514 93.916 300.423 93.3965 301.111C92.877 301.795 92.1797 302.137 91.3047 302.137C90.3704 302.137 89.6481 301.806 89.1377 301.146L89.0762 302H87.9141V291.5H89.1787V295.417C89.6891 294.784 90.3932 294.467 91.291 294.467C92.1888 294.467 92.8929 294.806 93.4033 295.485C93.9183 296.164 94.1758 297.094 94.1758 298.274V298.384ZM92.9111 298.24C92.9111 297.379 92.7448 296.714 92.4121 296.244C92.0794 295.775 91.6009 295.54 90.9766 295.54C90.1426 295.54 89.5433 295.927 89.1787 296.702V299.901C89.5661 300.676 90.1699 301.063 90.9902 301.063C91.5964 301.063 92.068 300.829 92.4053 300.359C92.7425 299.89 92.9111 299.184 92.9111 298.24ZM96.9648 294.604L96.999 295.424C97.5413 294.786 98.2728 294.467 99.1934 294.467C100.228 294.467 100.932 294.863 101.306 295.656C101.552 295.301 101.871 295.014 102.263 294.795C102.659 294.576 103.126 294.467 103.664 294.467C105.286 294.467 106.111 295.326 106.139 297.044V302H104.874V297.119C104.874 296.59 104.753 296.196 104.512 295.937C104.27 295.672 103.865 295.54 103.295 295.54C102.826 295.54 102.436 295.681 102.126 295.964C101.816 296.242 101.636 296.618 101.586 297.092V302H100.314V297.153C100.314 296.078 99.7881 295.54 98.7354 295.54C97.9059 295.54 97.3385 295.893 97.0332 296.6V302H95.7686V294.604H96.9648ZM109.427 302H108.162V294.604H109.427V302ZM108.06 292.642C108.06 292.437 108.121 292.263 108.244 292.122C108.372 291.981 108.559 291.91 108.805 291.91C109.051 291.91 109.238 291.981 109.365 292.122C109.493 292.263 109.557 292.437 109.557 292.642C109.557 292.847 109.493 293.018 109.365 293.154C109.238 293.291 109.051 293.359 108.805 293.359C108.559 293.359 108.372 293.291 108.244 293.154C108.121 293.018 108.06 292.847 108.06 292.642ZM113.173 292.812V294.604H114.554V295.581H113.173V300.168C113.173 300.464 113.234 300.688 113.357 300.838C113.48 300.984 113.69 301.057 113.986 301.057C114.132 301.057 114.333 301.029 114.588 300.975V302C114.255 302.091 113.932 302.137 113.617 302.137C113.052 302.137 112.626 301.966 112.339 301.624C112.052 301.282 111.908 300.797 111.908 300.168V295.581H110.562V294.604H111.908V292.812H113.173Z" fill="black"/>
<path d="M42.1328 259.375C41.9141 260.552 41.3802 261.484 40.5312 262.172C39.6875 262.859 38.6745 263.188 37.4922 263.156C36.7891 263.141 36.1745 262.969 35.6484 262.641C35.1224 262.307 34.7135 261.831 34.4219 261.211C34.1302 260.586 33.9688 259.896 33.9375 259.141C33.9167 258.714 33.9349 258.297 33.9922 257.891L34.125 256.953C34.3698 255.245 34.9688 253.898 35.9219 252.914C36.8802 251.924 38.0443 251.443 39.4141 251.469C40.4818 251.49 41.3281 251.836 41.9531 252.508C42.5781 253.174 42.9089 254.102 42.9453 255.289H41.4844C41.4167 253.695 40.7917 252.836 39.6094 252.711L39.3516 252.695C38.3672 252.669 37.5443 253.036 36.8828 253.797C36.2266 254.552 35.8021 255.586 35.6094 256.898L35.4375 258.078L35.3906 258.766C35.3594 259.724 35.5286 260.487 35.8984 261.055C36.2734 261.617 36.8281 261.909 37.5625 261.93C38.3542 261.956 39.0078 261.766 39.5234 261.359C40.0443 260.953 40.4401 260.299 40.7109 259.398L42.1328 259.375ZM44.9609 263H43.5547L45.6328 251H47.0469L44.9609 263ZM48.8047 263H47.3984L48.8672 254.547H50.2734L48.8047 263ZM49.9688 251.461C50.2083 251.451 50.4062 251.523 50.5625 251.68C50.724 251.831 50.8047 252.031 50.8047 252.281C50.7995 252.526 50.7188 252.727 50.5625 252.883C50.4115 253.039 50.2135 253.122 49.9688 253.133C49.724 253.143 49.5234 253.073 49.3672 252.922C49.2109 252.771 49.1354 252.573 49.1406 252.328C49.1458 252.083 49.224 251.88 49.375 251.719C49.526 251.557 49.724 251.471 49.9688 251.461ZM54.6875 261.984C55.1927 261.995 55.6484 261.849 56.0547 261.547C56.4609 261.24 56.7266 260.839 56.8516 260.344L58.1875 260.336C58.1094 260.867 57.8958 261.352 57.5469 261.789C57.2031 262.227 56.7682 262.568 56.2422 262.812C55.7161 263.057 55.1771 263.172 54.625 263.156C53.9219 263.146 53.3255 262.964 52.8359 262.609C52.3516 262.25 51.9948 261.753 51.7656 261.117C51.5365 260.477 51.4583 259.758 51.5312 258.961L51.5703 258.57C51.6693 257.758 51.9062 257.031 52.2812 256.391C52.6562 255.75 53.1458 255.253 53.75 254.898C54.3542 254.539 55.0208 254.37 55.75 254.391C56.6354 254.411 57.3438 254.708 57.875 255.281C58.4062 255.854 58.6719 256.581 58.6719 257.461L57.3516 257.453C57.3411 256.901 57.1875 256.456 56.8906 256.117C56.5938 255.773 56.1927 255.591 55.6875 255.57C54.9531 255.555 54.3411 255.828 53.8516 256.391C53.3672 256.953 53.0651 257.74 52.9453 258.75L52.9219 258.953C52.8906 259.286 52.8854 259.63 52.9062 259.984C52.9427 260.594 53.1146 261.076 53.4219 261.43C53.7292 261.784 54.151 261.969 54.6875 261.984ZM62.3516 259.102L61.2422 260.094L60.7422 263H59.3281L61.4141 251H62.8281L61.5781 258.172L62.4453 257.297L65.4453 254.547H67.2812L63.3984 258.148L66.0703 263H64.5234L62.3516 259.102ZM74.9297 252.5L74.5703 254.547H76.1094L75.9141 255.664H74.3828L73.5 260.922C73.4844 261.057 73.4818 261.182 73.4922 261.297C73.5286 261.703 73.75 261.906 74.1562 261.906C74.3281 261.906 74.5573 261.88 74.8438 261.828L74.7344 263.008C74.3958 263.102 74.0521 263.148 73.7031 263.148C73.1406 263.138 72.7188 262.932 72.4375 262.531C72.1562 262.125 72.0469 261.581 72.1094 260.898L72.9688 255.664H71.4766L71.6719 254.547H73.1641L73.5234 252.5H74.9297ZM80.8906 254.391C81.599 254.401 82.2057 254.594 82.7109 254.969C83.2161 255.344 83.5885 255.862 83.8281 256.523C84.0729 257.18 84.1562 257.898 84.0781 258.68L84.0625 258.852C83.9635 259.674 83.7188 260.419 83.3281 261.086C82.9375 261.747 82.4323 262.263 81.8125 262.633C81.1927 263.003 80.513 263.177 79.7734 263.156C79.0703 263.146 78.4635 262.953 77.9531 262.578C77.4479 262.203 77.0781 261.693 76.8438 261.047C76.6094 260.401 76.526 259.69 76.5938 258.914C76.6719 258.039 76.9089 257.253 77.3047 256.555C77.7005 255.857 78.2083 255.318 78.8281 254.938C79.4531 254.552 80.1406 254.37 80.8906 254.391ZM78.0156 258.922C77.9792 259.25 77.9792 259.591 78.0156 259.945C78.0677 260.56 78.25 261.049 78.5625 261.414C78.8802 261.779 79.3021 261.969 79.8281 261.984C80.2969 262 80.7292 261.885 81.125 261.641C81.5208 261.391 81.8542 261.016 82.125 260.516C82.3958 260.016 82.5703 259.461 82.6484 258.852C82.6901 258.372 82.6979 257.969 82.6719 257.641C82.6094 257.01 82.4193 256.513 82.1016 256.148C81.7839 255.784 81.362 255.591 80.8359 255.57C80.1068 255.555 79.487 255.841 78.9766 256.43C78.4661 257.018 78.151 257.789 78.0312 258.742L78.0156 258.922ZM94.2891 260.711C94.3672 260.128 94.0469 259.716 93.3281 259.477L91.8594 259.047C90.6198 258.62 90.0208 257.911 90.0625 256.922C90.099 256.177 90.4375 255.568 91.0781 255.094C91.724 254.615 92.4818 254.38 93.3516 254.391C94.2057 254.401 94.8984 254.651 95.4297 255.141C95.9661 255.625 96.224 256.258 96.2031 257.039L94.7969 257.031C94.8073 256.609 94.6745 256.266 94.3984 256C94.1224 255.734 93.7552 255.596 93.2969 255.586C92.8073 255.576 92.3854 255.695 92.0312 255.945C91.7031 256.18 91.513 256.487 91.4609 256.867C91.3932 257.357 91.6927 257.714 92.3594 257.938L93.0703 258.133C94.0391 258.383 94.7266 258.708 95.1328 259.109C95.5391 259.51 95.7266 260.008 95.6953 260.602C95.6641 261.128 95.4922 261.586 95.1797 261.977C94.8672 262.367 94.4505 262.667 93.9297 262.875C93.4089 263.078 92.8542 263.172 92.2656 263.156C91.3698 263.146 90.6302 262.885 90.0469 262.375C89.4635 261.859 89.1823 261.198 89.2031 260.391L90.6172 260.398C90.6172 260.872 90.7682 261.253 91.0703 261.539C91.3724 261.826 91.7865 261.969 92.3125 261.969C92.8281 261.979 93.2734 261.872 93.6484 261.648C94.0234 261.419 94.237 261.107 94.2891 260.711ZM100.789 263.156C99.737 263.135 98.9141 262.747 98.3203 261.992C97.7266 261.237 97.4766 260.271 97.5703 259.094L97.6094 258.758C97.6979 257.919 97.9453 257.154 98.3516 256.461C98.763 255.768 99.263 255.247 99.8516 254.898C100.44 254.544 101.076 254.375 101.758 254.391C102.628 254.411 103.31 254.701 103.805 255.258C104.299 255.815 104.57 256.57 104.617 257.523C104.633 257.862 104.622 258.201 104.586 258.539L104.5 259.188H98.9766C98.8828 259.953 99.0078 260.604 99.3516 261.141C99.7005 261.677 100.219 261.956 100.906 261.977C101.74 261.997 102.51 261.622 103.219 260.852L104.031 261.539C103.677 262.049 103.219 262.451 102.656 262.742C102.099 263.029 101.477 263.167 100.789 263.156ZM101.688 255.57C101.104 255.555 100.594 255.753 100.156 256.164C99.724 256.576 99.3802 257.188 99.125 258L103.234 258.008L103.266 257.883C103.349 257.227 103.242 256.682 102.945 256.25C102.654 255.812 102.234 255.586 101.688 255.57ZM109.086 263.156C108.034 263.135 107.211 262.747 106.617 261.992C106.023 261.237 105.773 260.271 105.867 259.094L105.906 258.758C105.995 257.919 106.242 257.154 106.648 256.461C107.06 255.768 107.56 255.247 108.148 254.898C108.737 254.544 109.372 254.375 110.055 254.391C110.924 254.411 111.607 254.701 112.102 255.258C112.596 255.815 112.867 256.57 112.914 257.523C112.93 257.862 112.919 258.201 112.883 258.539L112.797 259.188H107.273C107.18 259.953 107.305 260.604 107.648 261.141C107.997 261.677 108.516 261.956 109.203 261.977C110.036 261.997 110.807 261.622 111.516 260.852L112.328 261.539C111.974 262.049 111.516 262.451 110.953 262.742C110.396 263.029 109.773 263.167 109.086 263.156ZM109.984 255.57C109.401 255.555 108.891 255.753 108.453 256.164C108.021 256.576 107.677 257.188 107.422 258L111.531 258.008L111.562 257.883C111.646 257.227 111.539 256.682 111.242 256.25C110.951 255.812 110.531 255.586 109.984 255.57ZM122.906 255.836L122.242 255.766C121.336 255.766 120.622 256.174 120.102 256.992L119.062 263H117.648L119.117 254.547L120.484 254.539L120.273 255.523C120.872 254.737 121.578 254.354 122.391 254.375C122.562 254.375 122.786 254.414 123.062 254.492L122.906 255.836ZM126.477 263.156C125.424 263.135 124.602 262.747 124.008 261.992C123.414 261.237 123.164 260.271 123.258 259.094L123.297 258.758C123.385 257.919 123.633 257.154 124.039 256.461C124.451 255.768 124.951 255.247 125.539 254.898C126.128 254.544 126.763 254.375 127.445 254.391C128.315 254.411 128.997 254.701 129.492 255.258C129.987 255.815 130.258 256.57 130.305 257.523C130.32 257.862 130.31 258.201 130.273 258.539L130.188 259.188H124.664C124.57 259.953 124.695 260.604 125.039 261.141C125.388 261.677 125.906 261.956 126.594 261.977C127.427 261.997 128.198 261.622 128.906 260.852L129.719 261.539C129.365 262.049 128.906 262.451 128.344 262.742C127.786 263.029 127.164 263.167 126.477 263.156ZM127.375 255.57C126.792 255.555 126.281 255.753 125.844 256.164C125.411 256.576 125.068 257.188 124.812 258L128.922 258.008L128.953 257.883C129.036 257.227 128.93 256.682 128.633 256.25C128.341 255.812 127.922 255.586 127.375 255.57ZM136.352 260.711C136.43 260.128 136.109 259.716 135.391 259.477L133.922 259.047C132.682 258.62 132.083 257.911 132.125 256.922C132.161 256.177 132.5 255.568 133.141 255.094C133.786 254.615 134.544 254.38 135.414 254.391C136.268 254.401 136.961 254.651 137.492 255.141C138.029 255.625 138.286 256.258 138.266 257.039L136.859 257.031C136.87 256.609 136.737 256.266 136.461 256C136.185 255.734 135.818 255.596 135.359 255.586C134.87 255.576 134.448 255.695 134.094 255.945C133.766 256.18 133.576 256.487 133.523 256.867C133.456 257.357 133.755 257.714 134.422 257.938L135.133 258.133C136.102 258.383 136.789 258.708 137.195 259.109C137.602 259.51 137.789 260.008 137.758 260.602C137.727 261.128 137.555 261.586 137.242 261.977C136.93 262.367 136.513 262.667 135.992 262.875C135.471 263.078 134.917 263.172 134.328 263.156C133.432 263.146 132.693 262.885 132.109 262.375C131.526 261.859 131.245 261.198 131.266 260.391L132.68 260.398C132.68 260.872 132.831 261.253 133.133 261.539C133.435 261.826 133.849 261.969 134.375 261.969C134.891 261.979 135.336 261.872 135.711 261.648C136.086 261.419 136.299 261.107 136.352 260.711ZM144.562 262.164C143.901 262.846 143.06 263.177 142.039 263.156C141.232 263.135 140.633 262.846 140.242 262.289C139.857 261.732 139.714 260.971 139.812 260.008L140.719 254.547H142.133L141.219 260.031C141.193 260.26 141.188 260.484 141.203 260.703C141.229 261.078 141.341 261.372 141.539 261.586C141.737 261.799 142.013 261.914 142.367 261.93C143.378 261.961 144.159 261.552 144.711 260.703L145.773 254.547H147.188L145.719 263H144.383L144.562 262.164ZM149.367 263H147.961L150.039 251H151.453L149.367 263ZM155.414 252.5L155.055 254.547H156.594L156.398 255.664H154.867L153.984 260.922C153.969 261.057 153.966 261.182 153.977 261.297C154.013 261.703 154.234 261.906 154.641 261.906C154.812 261.906 155.042 261.88 155.328 261.828L155.219 263.008C154.88 263.102 154.536 263.148 154.188 263.148C153.625 263.138 153.203 262.932 152.922 262.531C152.641 262.125 152.531 261.581 152.594 260.898L153.453 255.664H151.961L152.156 254.547H153.648L154.008 252.5H155.414Z" fill="black"/>
<path d="M40.875 148.719L42.4062 140.625H44.7422L42.2188 152H39.8594L38.0078 144.391L36.1562 152H33.7969L31.2734 140.625H33.6094L35.1484 148.703L37.0234 140.625H39.0078L40.875 148.719ZM48.0703 144.469C48.6693 143.75 49.4219 143.391 50.3281 143.391C52.1615 143.391 53.0911 144.456 53.1172 146.586V152H50.8594V146.648C50.8594 146.164 50.7552 145.807 50.5469 145.578C50.3385 145.344 49.9922 145.227 49.5078 145.227C48.8464 145.227 48.3672 145.482 48.0703 145.992V152H45.8125V140H48.0703V144.469ZM57.2031 152H54.9375V143.547H57.2031V152ZM54.8047 141.359C54.8047 141.021 54.9167 140.742 55.1406 140.523C55.3698 140.305 55.6797 140.195 56.0703 140.195C56.4557 140.195 56.763 140.305 56.9922 140.523C57.2214 140.742 57.3359 141.021 57.3359 141.359C57.3359 141.703 57.2188 141.984 56.9844 142.203C56.7552 142.422 56.4505 142.531 56.0703 142.531C55.6901 142.531 55.3828 142.422 55.1484 142.203C54.9193 141.984 54.8047 141.703 54.8047 141.359ZM62.5859 150.336C63.0026 150.336 63.3411 150.221 63.6016 149.992C63.862 149.763 63.9974 149.458 64.0078 149.078H66.125C66.1198 149.651 65.9635 150.177 65.6562 150.656C65.349 151.13 64.9271 151.5 64.3906 151.766C63.8594 152.026 63.2708 152.156 62.625 152.156C61.4167 152.156 60.4635 151.773 59.7656 151.008C59.0677 150.237 58.7188 149.174 58.7188 147.82V147.672C58.7188 146.37 59.0651 145.331 59.7578 144.555C60.4505 143.779 61.401 143.391 62.6094 143.391C63.6667 143.391 64.513 143.693 65.1484 144.297C65.7891 144.896 66.1146 145.695 66.125 146.695H64.0078C63.9974 146.258 63.862 145.904 63.6016 145.633C63.3411 145.357 62.9974 145.219 62.5703 145.219C62.0443 145.219 61.6458 145.411 61.375 145.797C61.1094 146.177 60.9766 146.797 60.9766 147.656V147.891C60.9766 148.76 61.1094 149.385 61.375 149.766C61.6406 150.146 62.0443 150.336 62.5859 150.336ZM69.6172 144.469C70.2161 143.75 70.9688 143.391 71.875 143.391C73.7083 143.391 74.638 144.456 74.6641 146.586V152H72.4062V146.648C72.4062 146.164 72.3021 145.807 72.0938 145.578C71.8854 145.344 71.5391 145.227 71.0547 145.227C70.3932 145.227 69.9141 145.482 69.6172 145.992V152H67.3594V140H69.6172V144.469ZM83.8672 150.336C84.2839 150.336 84.6224 150.221 84.8828 149.992C85.1432 149.763 85.2786 149.458 85.2891 149.078H87.4062C87.401 149.651 87.2448 150.177 86.9375 150.656C86.6302 151.13 86.2083 151.5 85.6719 151.766C85.1406 152.026 84.5521 152.156 83.9062 152.156C82.6979 152.156 81.7448 151.773 81.0469 151.008C80.349 150.237 80 149.174 80 147.82V147.672C80 146.37 80.3464 145.331 81.0391 144.555C81.7318 143.779 82.6823 143.391 83.8906 143.391C84.9479 143.391 85.7943 143.693 86.4297 144.297C87.0703 144.896 87.3958 145.695 87.4062 146.695H85.2891C85.2786 146.258 85.1432 145.904 84.8828 145.633C84.6224 145.357 84.2786 145.219 83.8516 145.219C83.3255 145.219 82.9271 145.411 82.6562 145.797C82.3906 146.177 82.2578 146.797 82.2578 147.656V147.891C82.2578 148.76 82.3906 149.385 82.6562 149.766C82.9219 150.146 83.3255 150.336 83.8672 150.336ZM90.8984 144.469C91.4974 143.75 92.25 143.391 93.1562 143.391C94.9896 143.391 95.9193 144.456 95.9453 146.586V152H93.6875V146.648C93.6875 146.164 93.5833 145.807 93.375 145.578C93.1667 145.344 92.8203 145.227 92.3359 145.227C91.6745 145.227 91.1953 145.482 90.8984 145.992V152H88.6406V140H90.8984V144.469ZM97.2969 147.695C97.2969 146.857 97.4583 146.109 97.7812 145.453C98.1042 144.797 98.5677 144.289 99.1719 143.93C99.7812 143.57 100.487 143.391 101.289 143.391C102.43 143.391 103.359 143.74 104.078 144.438C104.802 145.135 105.206 146.083 105.289 147.281L105.305 147.859C105.305 149.156 104.943 150.198 104.219 150.984C103.495 151.766 102.523 152.156 101.305 152.156C100.086 152.156 99.112 151.766 98.3828 150.984C97.6589 150.203 97.2969 149.141 97.2969 147.797V147.695ZM99.5547 147.859C99.5547 148.661 99.7057 149.276 100.008 149.703C100.31 150.125 100.742 150.336 101.305 150.336C101.852 150.336 102.279 150.128 102.586 149.711C102.893 149.289 103.047 148.617 103.047 147.695C103.047 146.909 102.893 146.299 102.586 145.867C102.279 145.435 101.846 145.219 101.289 145.219C100.737 145.219 100.31 145.435 100.008 145.867C99.7057 146.294 99.5547 146.958 99.5547 147.859ZM109.078 152H106.812V143.547H109.078V152ZM106.68 141.359C106.68 141.021 106.792 140.742 107.016 140.523C107.245 140.305 107.555 140.195 107.945 140.195C108.331 140.195 108.638 140.305 108.867 140.523C109.096 140.742 109.211 141.021 109.211 141.359C109.211 141.703 109.094 141.984 108.859 142.203C108.63 142.422 108.326 142.531 107.945 142.531C107.565 142.531 107.258 142.422 107.023 142.203C106.794 141.984 106.68 141.703 106.68 141.359ZM114.461 150.336C114.878 150.336 115.216 150.221 115.477 149.992C115.737 149.763 115.872 149.458 115.883 149.078H118C117.995 149.651 117.839 150.177 117.531 150.656C117.224 151.13 116.802 151.5 116.266 151.766C115.734 152.026 115.146 152.156 114.5 152.156C113.292 152.156 112.339 151.773 111.641 151.008C110.943 150.237 110.594 149.174 110.594 147.82V147.672C110.594 146.37 110.94 145.331 111.633 144.555C112.326 143.779 113.276 143.391 114.484 143.391C115.542 143.391 116.388 143.693 117.023 144.297C117.664 144.896 117.99 145.695 118 146.695H115.883C115.872 146.258 115.737 145.904 115.477 145.633C115.216 145.357 114.872 145.219 114.445 145.219C113.919 145.219 113.521 145.411 113.25 145.797C112.984 146.177 112.852 146.797 112.852 147.656V147.891C112.852 148.76 112.984 149.385 113.25 149.766C113.516 150.146 113.919 150.336 114.461 150.336ZM123.18 152.156C121.94 152.156 120.93 151.776 120.148 151.016C119.372 150.255 118.984 149.242 118.984 147.977V147.758C118.984 146.909 119.148 146.151 119.477 145.484C119.805 144.812 120.268 144.297 120.867 143.938C121.471 143.573 122.159 143.391 122.93 143.391C124.086 143.391 124.995 143.755 125.656 144.484C126.323 145.214 126.656 146.247 126.656 147.586V148.508H121.273C121.346 149.06 121.565 149.503 121.93 149.836C122.299 150.169 122.766 150.336 123.328 150.336C124.198 150.336 124.878 150.021 125.367 149.391L126.477 150.633C126.138 151.112 125.68 151.487 125.102 151.758C124.523 152.023 123.883 152.156 123.18 152.156ZM122.922 145.219C122.474 145.219 122.109 145.37 121.828 145.672C121.552 145.974 121.375 146.406 121.297 146.969H124.438V146.789C124.427 146.289 124.292 145.904 124.031 145.633C123.771 145.357 123.401 145.219 122.922 145.219ZM131.578 147.711C131.578 146.393 131.872 145.344 132.461 144.562C133.055 143.781 133.865 143.391 134.891 143.391C135.714 143.391 136.393 143.698 136.93 144.312V140H139.195V152H137.156L137.047 151.102C136.484 151.805 135.76 152.156 134.875 152.156C133.88 152.156 133.081 151.766 132.477 150.984C131.878 150.198 131.578 149.107 131.578 147.711ZM133.836 147.875C133.836 148.667 133.974 149.273 134.25 149.695C134.526 150.117 134.927 150.328 135.453 150.328C136.151 150.328 136.643 150.034 136.93 149.445V146.109C136.648 145.521 136.161 145.227 135.469 145.227C134.38 145.227 133.836 146.109 133.836 147.875ZM140.594 147.695C140.594 146.857 140.755 146.109 141.078 145.453C141.401 144.797 141.865 144.289 142.469 143.93C143.078 143.57 143.784 143.391 144.586 143.391C145.727 143.391 146.656 143.74 147.375 144.438C148.099 145.135 148.503 146.083 148.586 147.281L148.602 147.859C148.602 149.156 148.24 150.198 147.516 150.984C146.792 151.766 145.82 152.156 144.602 152.156C143.383 152.156 142.409 151.766 141.68 150.984C140.956 150.203 140.594 149.141 140.594 147.797V147.695ZM142.852 147.859C142.852 148.661 143.003 149.276 143.305 149.703C143.607 150.125 144.039 150.336 144.602 150.336C145.148 150.336 145.576 150.128 145.883 149.711C146.19 149.289 146.344 148.617 146.344 147.695C146.344 146.909 146.19 146.299 145.883 145.867C145.576 145.435 145.143 145.219 144.586 145.219C144.034 145.219 143.607 145.435 143.305 145.867C143.003 146.294 142.852 146.958 142.852 147.859ZM157.133 148.805L158.695 143.547H161.117L157.719 153.312L157.531 153.758C157.026 154.862 156.193 155.414 155.031 155.414C154.703 155.414 154.37 155.365 154.031 155.266V153.555L154.375 153.562C154.802 153.562 155.12 153.497 155.328 153.367C155.542 153.237 155.708 153.021 155.828 152.719L156.094 152.023L153.133 143.547H155.562L157.133 148.805ZM161.531 147.695C161.531 146.857 161.693 146.109 162.016 145.453C162.339 144.797 162.802 144.289 163.406 143.93C164.016 143.57 164.721 143.391 165.523 143.391C166.664 143.391 167.594 143.74 168.312 144.438C169.036 145.135 169.44 146.083 169.523 147.281L169.539 147.859C169.539 149.156 169.177 150.198 168.453 150.984C167.729 151.766 166.758 152.156 165.539 152.156C164.32 152.156 163.346 151.766 162.617 150.984C161.893 150.203 161.531 149.141 161.531 147.797V147.695ZM163.789 147.859C163.789 148.661 163.94 149.276 164.242 149.703C164.544 150.125 164.977 150.336 165.539 150.336C166.086 150.336 166.513 150.128 166.82 149.711C167.128 149.289 167.281 148.617 167.281 147.695C167.281 146.909 167.128 146.299 166.82 145.867C166.513 145.435 166.081 145.219 165.523 145.219C164.971 145.219 164.544 145.435 164.242 145.867C163.94 146.294 163.789 146.958 163.789 147.859ZM175.992 151.141C175.435 151.818 174.664 152.156 173.68 152.156C172.773 152.156 172.081 151.896 171.602 151.375C171.128 150.854 170.885 150.091 170.875 149.086V143.547H173.133V149.008C173.133 149.888 173.534 150.328 174.336 150.328C175.102 150.328 175.628 150.062 175.914 149.531V143.547H178.18V152H176.055L175.992 151.141ZM191.477 147.852C191.477 149.154 191.18 150.198 190.586 150.984C189.997 151.766 189.201 152.156 188.195 152.156C187.341 152.156 186.651 151.859 186.125 151.266V155.25H183.867V143.547H185.961L186.039 144.375C186.586 143.719 187.299 143.391 188.18 143.391C189.221 143.391 190.031 143.776 190.609 144.547C191.188 145.318 191.477 146.38 191.477 147.734V147.852ZM189.219 147.688C189.219 146.901 189.078 146.294 188.797 145.867C188.521 145.44 188.117 145.227 187.586 145.227C186.878 145.227 186.391 145.497 186.125 146.039V149.5C186.401 150.057 186.893 150.336 187.602 150.336C188.68 150.336 189.219 149.453 189.219 147.688ZM197.633 145.664C197.326 145.622 197.055 145.602 196.82 145.602C195.966 145.602 195.406 145.891 195.141 146.469V152H192.883V143.547H195.016L195.078 144.555C195.531 143.779 196.159 143.391 196.961 143.391C197.211 143.391 197.445 143.424 197.664 143.492L197.633 145.664ZM202.461 152.156C201.221 152.156 200.211 151.776 199.43 151.016C198.654 150.255 198.266 149.242 198.266 147.977V147.758C198.266 146.909 198.43 146.151 198.758 145.484C199.086 144.812 199.549 144.297 200.148 143.938C200.753 143.573 201.44 143.391 202.211 143.391C203.367 143.391 204.276 143.755 204.938 144.484C205.604 145.214 205.938 146.247 205.938 147.586V148.508H200.555C200.628 149.06 200.846 149.503 201.211 149.836C201.581 150.169 202.047 150.336 202.609 150.336C203.479 150.336 204.159 150.021 204.648 149.391L205.758 150.633C205.419 151.112 204.961 151.487 204.383 151.758C203.805 152.023 203.164 152.156 202.461 152.156ZM202.203 145.219C201.755 145.219 201.391 145.37 201.109 145.672C200.833 145.974 200.656 146.406 200.578 146.969H203.719V146.789C203.708 146.289 203.573 145.904 203.312 145.633C203.052 145.357 202.682 145.219 202.203 145.219ZM207.844 152V145.203H206.586V143.547H207.844V142.828C207.844 141.88 208.115 141.146 208.656 140.625C209.203 140.099 209.966 139.836 210.945 139.836C211.258 139.836 211.641 139.888 212.094 139.992L212.07 141.742C211.883 141.695 211.654 141.672 211.383 141.672C210.534 141.672 210.109 142.07 210.109 142.867V143.547H211.789V145.203H210.109V152H207.844ZM216.664 152.156C215.424 152.156 214.414 151.776 213.633 151.016C212.857 150.255 212.469 149.242 212.469 147.977V147.758C212.469 146.909 212.633 146.151 212.961 145.484C213.289 144.812 213.753 144.297 214.352 143.938C214.956 143.573 215.643 143.391 216.414 143.391C217.57 143.391 218.479 143.755 219.141 144.484C219.807 145.214 220.141 146.247 220.141 147.586V148.508H214.758C214.831 149.06 215.049 149.503 215.414 149.836C215.784 150.169 216.25 150.336 216.812 150.336C217.682 150.336 218.362 150.021 218.852 149.391L219.961 150.633C219.622 151.112 219.164 151.487 218.586 151.758C218.008 152.023 217.367 152.156 216.664 152.156ZM216.406 145.219C215.958 145.219 215.594 145.37 215.312 145.672C215.036 145.974 214.859 146.406 214.781 146.969H217.922V146.789C217.911 146.289 217.776 145.904 217.516 145.633C217.255 145.357 216.885 145.219 216.406 145.219ZM226.18 145.664C225.872 145.622 225.602 145.602 225.367 145.602C224.513 145.602 223.953 145.891 223.688 146.469V152H221.43V143.547H223.562L223.625 144.555C224.078 143.779 224.706 143.391 225.508 143.391C225.758 143.391 225.992 143.424 226.211 143.492L226.18 145.664ZM229.117 148.508C229.117 147.779 229.206 147.198 229.383 146.766C229.56 146.333 229.883 145.909 230.352 145.492C230.826 145.07 231.141 144.729 231.297 144.469C231.453 144.203 231.531 143.924 231.531 143.633C231.531 142.753 231.125 142.312 230.312 142.312C229.927 142.312 229.617 142.432 229.383 142.672C229.154 142.906 229.034 143.232 229.023 143.648H226.758C226.768 142.654 227.089 141.875 227.719 141.312C228.354 140.75 229.219 140.469 230.312 140.469C231.417 140.469 232.273 140.737 232.883 141.273C233.492 141.805 233.797 142.557 233.797 143.531C233.797 143.974 233.698 144.393 233.5 144.789C233.302 145.18 232.956 145.615 232.461 146.094L231.828 146.695C231.432 147.076 231.206 147.521 231.148 148.031L231.117 148.508H229.117ZM228.891 150.906C228.891 150.557 229.008 150.271 229.242 150.047C229.482 149.818 229.786 149.703 230.156 149.703C230.526 149.703 230.828 149.818 231.062 150.047C231.302 150.271 231.422 150.557 231.422 150.906C231.422 151.25 231.305 151.534 231.07 151.758C230.841 151.982 230.536 152.094 230.156 152.094C229.776 152.094 229.469 151.982 229.234 151.758C229.005 151.534 228.891 151.25 228.891 150.906Z" fill="black"/>
<path d="M64.6875 175.391C64.5469 176.594 64.1016 177.523 63.3516 178.18C62.6068 178.831 61.6146 179.156 60.375 179.156C59.0312 179.156 57.9531 178.674 57.1406 177.711C56.3333 176.747 55.9297 175.458 55.9297 173.844V172.75C55.9297 171.693 56.1172 170.763 56.4922 169.961C56.8724 169.159 57.4089 168.544 58.1016 168.117C58.7943 167.685 59.5964 167.469 60.5078 167.469C61.7161 167.469 62.6849 167.807 63.4141 168.484C64.1432 169.156 64.5677 170.089 64.6875 171.281H63.1797C63.0495 170.375 62.7656 169.719 62.3281 169.312C61.8958 168.906 61.2891 168.703 60.5078 168.703C59.5495 168.703 58.7969 169.057 58.25 169.766C57.7083 170.474 57.4375 171.482 57.4375 172.789V173.891C57.4375 175.125 57.6953 176.107 58.2109 176.836C58.7266 177.565 59.4479 177.93 60.375 177.93C61.2083 177.93 61.8464 177.742 62.2891 177.367C62.737 176.987 63.0339 176.328 63.1797 175.391H64.6875ZM67.9609 171.57C68.6016 170.784 69.4349 170.391 70.4609 170.391C72.2474 170.391 73.1484 171.398 73.1641 173.414V179H71.7188V173.406C71.7135 172.797 71.5729 172.346 71.2969 172.055C71.026 171.763 70.6016 171.617 70.0234 171.617C69.5547 171.617 69.1432 171.742 68.7891 171.992C68.4349 172.242 68.1589 172.57 67.9609 172.977V179H66.5156V167H67.9609V171.57ZM74.9453 174.695C74.9453 173.867 75.1068 173.122 75.4297 172.461C75.7578 171.799 76.2109 171.289 76.7891 170.93C77.3724 170.57 78.0365 170.391 78.7812 170.391C79.9323 170.391 80.862 170.789 81.5703 171.586C82.2839 172.383 82.6406 173.443 82.6406 174.766V174.867C82.6406 175.69 82.4818 176.43 82.1641 177.086C81.8516 177.737 81.401 178.245 80.8125 178.609C80.2292 178.974 79.5573 179.156 78.7969 179.156C77.651 179.156 76.7214 178.758 76.0078 177.961C75.2995 177.164 74.9453 176.109 74.9453 174.797V174.695ZM76.3984 174.867C76.3984 175.805 76.6146 176.557 77.0469 177.125C77.4844 177.693 78.0677 177.977 78.7969 177.977C79.5312 177.977 80.1146 177.69 80.5469 177.117C80.9792 176.539 81.1953 175.732 81.1953 174.695C81.1953 173.768 80.974 173.018 80.5312 172.445C80.0938 171.867 79.5104 171.578 78.7812 171.578C78.0677 171.578 77.4922 171.862 77.0547 172.43C76.6172 172.997 76.3984 173.81 76.3984 174.867ZM86.0234 179H84.5781V170.547H86.0234V179ZM84.4609 168.305C84.4609 168.07 84.5312 167.872 84.6719 167.711C84.8177 167.549 85.0312 167.469 85.3125 167.469C85.5938 167.469 85.8073 167.549 85.9531 167.711C86.099 167.872 86.1719 168.07 86.1719 168.305C86.1719 168.539 86.099 168.734 85.9531 168.891C85.8073 169.047 85.5938 169.125 85.3125 169.125C85.0312 169.125 84.8177 169.047 84.6719 168.891C84.5312 168.734 84.4609 168.539 84.4609 168.305ZM91.7344 177.977C92.25 177.977 92.7005 177.82 93.0859 177.508C93.4714 177.195 93.6849 176.805 93.7266 176.336H95.0938C95.0677 176.82 94.901 177.281 94.5938 177.719C94.2865 178.156 93.875 178.505 93.3594 178.766C92.849 179.026 92.3073 179.156 91.7344 179.156C90.5833 179.156 89.6667 178.773 88.9844 178.008C88.3073 177.237 87.9688 176.185 87.9688 174.852V174.609C87.9688 173.786 88.1198 173.055 88.4219 172.414C88.724 171.773 89.1562 171.276 89.7188 170.922C90.2865 170.568 90.9557 170.391 91.7266 170.391C92.6745 170.391 93.4609 170.674 94.0859 171.242C94.7161 171.81 95.0521 172.547 95.0938 173.453H93.7266C93.6849 172.906 93.4766 172.458 93.1016 172.109C92.7318 171.755 92.2734 171.578 91.7266 171.578C90.9922 171.578 90.4219 171.844 90.0156 172.375C89.6146 172.901 89.4141 173.664 89.4141 174.664V174.938C89.4141 175.911 89.6146 176.661 90.0156 177.188C90.4167 177.714 90.9896 177.977 91.7344 177.977ZM100.227 179.156C99.0807 179.156 98.1484 178.781 97.4297 178.031C96.7109 177.276 96.3516 176.268 96.3516 175.008V174.742C96.3516 173.904 96.5104 173.156 96.8281 172.5C97.151 171.839 97.599 171.323 98.1719 170.953C98.75 170.578 99.375 170.391 100.047 170.391C101.146 170.391 102 170.753 102.609 171.477C103.219 172.201 103.523 173.237 103.523 174.586V175.188H97.7969C97.8177 176.021 98.0599 176.695 98.5234 177.211C98.9922 177.721 99.5859 177.977 100.305 177.977C100.815 177.977 101.247 177.872 101.602 177.664C101.956 177.456 102.266 177.18 102.531 176.836L103.414 177.523C102.706 178.612 101.643 179.156 100.227 179.156ZM100.047 171.578C99.4635 171.578 98.974 171.792 98.5781 172.219C98.1823 172.641 97.9375 173.234 97.8438 174H102.078V173.891C102.036 173.156 101.839 172.589 101.484 172.188C101.13 171.781 100.651 171.578 100.047 171.578ZM115.68 176.031H110.914L109.844 179H108.297L112.641 167.625H113.953L118.305 179H116.766L115.68 176.031ZM111.367 174.797H115.234L113.297 169.477L111.367 174.797Z" fill="black"/>
<path d="M64.6875 202.391C64.5469 203.594 64.1016 204.523 63.3516 205.18C62.6068 205.831 61.6146 206.156 60.375 206.156C59.0312 206.156 57.9531 205.674 57.1406 204.711C56.3333 203.747 55.9297 202.458 55.9297 200.844V199.75C55.9297 198.693 56.1172 197.763 56.4922 196.961C56.8724 196.159 57.4089 195.544 58.1016 195.117C58.7943 194.685 59.5964 194.469 60.5078 194.469C61.7161 194.469 62.6849 194.807 63.4141 195.484C64.1432 196.156 64.5677 197.089 64.6875 198.281H63.1797C63.0495 197.375 62.7656 196.719 62.3281 196.312C61.8958 195.906 61.2891 195.703 60.5078 195.703C59.5495 195.703 58.7969 196.057 58.25 196.766C57.7083 197.474 57.4375 198.482 57.4375 199.789V200.891C57.4375 202.125 57.6953 203.107 58.2109 203.836C58.7266 204.565 59.4479 204.93 60.375 204.93C61.2083 204.93 61.8464 204.742 62.2891 204.367C62.737 203.987 63.0339 203.328 63.1797 202.391H64.6875ZM67.9609 198.57C68.6016 197.784 69.4349 197.391 70.4609 197.391C72.2474 197.391 73.1484 198.398 73.1641 200.414V206H71.7188V200.406C71.7135 199.797 71.5729 199.346 71.2969 199.055C71.026 198.763 70.6016 198.617 70.0234 198.617C69.5547 198.617 69.1432 198.742 68.7891 198.992C68.4349 199.242 68.1589 199.57 67.9609 199.977V206H66.5156V194H67.9609V198.57ZM74.9453 201.695C74.9453 200.867 75.1068 200.122 75.4297 199.461C75.7578 198.799 76.2109 198.289 76.7891 197.93C77.3724 197.57 78.0365 197.391 78.7812 197.391C79.9323 197.391 80.862 197.789 81.5703 198.586C82.2839 199.383 82.6406 200.443 82.6406 201.766V201.867C82.6406 202.69 82.4818 203.43 82.1641 204.086C81.8516 204.737 81.401 205.245 80.8125 205.609C80.2292 205.974 79.5573 206.156 78.7969 206.156C77.651 206.156 76.7214 205.758 76.0078 204.961C75.2995 204.164 74.9453 203.109 74.9453 201.797V201.695ZM76.3984 201.867C76.3984 202.805 76.6146 203.557 77.0469 204.125C77.4844 204.693 78.0677 204.977 78.7969 204.977C79.5312 204.977 80.1146 204.69 80.5469 204.117C80.9792 203.539 81.1953 202.732 81.1953 201.695C81.1953 200.768 80.974 200.018 80.5312 199.445C80.0938 198.867 79.5104 198.578 78.7812 198.578C78.0677 198.578 77.4922 198.862 77.0547 199.43C76.6172 199.997 76.3984 200.81 76.3984 201.867ZM86.0234 206H84.5781V197.547H86.0234V206ZM84.4609 195.305C84.4609 195.07 84.5312 194.872 84.6719 194.711C84.8177 194.549 85.0312 194.469 85.3125 194.469C85.5938 194.469 85.8073 194.549 85.9531 194.711C86.099 194.872 86.1719 195.07 86.1719 195.305C86.1719 195.539 86.099 195.734 85.9531 195.891C85.8073 196.047 85.5938 196.125 85.3125 196.125C85.0312 196.125 84.8177 196.047 84.6719 195.891C84.5312 195.734 84.4609 195.539 84.4609 195.305ZM91.7344 204.977C92.25 204.977 92.7005 204.82 93.0859 204.508C93.4714 204.195 93.6849 203.805 93.7266 203.336H95.0938C95.0677 203.82 94.901 204.281 94.5938 204.719C94.2865 205.156 93.875 205.505 93.3594 205.766C92.849 206.026 92.3073 206.156 91.7344 206.156C90.5833 206.156 89.6667 205.773 88.9844 205.008C88.3073 204.237 87.9688 203.185 87.9688 201.852V201.609C87.9688 200.786 88.1198 200.055 88.4219 199.414C88.724 198.773 89.1562 198.276 89.7188 197.922C90.2865 197.568 90.9557 197.391 91.7266 197.391C92.6745 197.391 93.4609 197.674 94.0859 198.242C94.7161 198.81 95.0521 199.547 95.0938 200.453H93.7266C93.6849 199.906 93.4766 199.458 93.1016 199.109C92.7318 198.755 92.2734 198.578 91.7266 198.578C90.9922 198.578 90.4219 198.844 90.0156 199.375C89.6146 199.901 89.4141 200.664 89.4141 201.664V201.938C89.4141 202.911 89.6146 203.661 90.0156 204.188C90.4167 204.714 90.9896 204.977 91.7344 204.977ZM100.227 206.156C99.0807 206.156 98.1484 205.781 97.4297 205.031C96.7109 204.276 96.3516 203.268 96.3516 202.008V201.742C96.3516 200.904 96.5104 200.156 96.8281 199.5C97.151 198.839 97.599 198.323 98.1719 197.953C98.75 197.578 99.375 197.391 100.047 197.391C101.146 197.391 102 197.753 102.609 198.477C103.219 199.201 103.523 200.237 103.523 201.586V202.188H97.7969C97.8177 203.021 98.0599 203.695 98.5234 204.211C98.9922 204.721 99.5859 204.977 100.305 204.977C100.815 204.977 101.247 204.872 101.602 204.664C101.956 204.456 102.266 204.18 102.531 203.836L103.414 204.523C102.706 205.612 101.643 206.156 100.227 206.156ZM100.047 198.578C99.4635 198.578 98.974 198.792 98.5781 199.219C98.1823 199.641 97.9375 200.234 97.8438 201H102.078V200.891C102.036 200.156 101.839 199.589 101.484 199.188C101.13 198.781 100.651 198.578 100.047 198.578ZM109.398 206V194.625H113.117C114.352 194.625 115.279 194.88 115.898 195.391C116.523 195.901 116.836 196.656 116.836 197.656C116.836 198.188 116.685 198.659 116.383 199.07C116.081 199.477 115.669 199.792 115.148 200.016C115.763 200.188 116.247 200.516 116.602 201C116.961 201.479 117.141 202.052 117.141 202.719C117.141 203.74 116.81 204.542 116.148 205.125C115.487 205.708 114.552 206 113.344 206H109.398ZM110.898 200.68V204.773H113.375C114.073 204.773 114.622 204.594 115.023 204.234C115.43 203.87 115.633 203.37 115.633 202.734C115.633 201.365 114.888 200.68 113.398 200.68H110.898ZM110.898 199.477H113.164C113.82 199.477 114.344 199.312 114.734 198.984C115.13 198.656 115.328 198.211 115.328 197.648C115.328 197.023 115.146 196.57 114.781 196.289C114.417 196.003 113.862 195.859 113.117 195.859H110.898V199.477Z" fill="black"/>
<path d="M64.6875 232.391C64.5469 233.594 64.1016 234.523 63.3516 235.18C62.6068 235.831 61.6146 236.156 60.375 236.156C59.0312 236.156 57.9531 235.674 57.1406 234.711C56.3333 233.747 55.9297 232.458 55.9297 230.844V229.75C55.9297 228.693 56.1172 227.763 56.4922 226.961C56.8724 226.159 57.4089 225.544 58.1016 225.117C58.7943 224.685 59.5964 224.469 60.5078 224.469C61.7161 224.469 62.6849 224.807 63.4141 225.484C64.1432 226.156 64.5677 227.089 64.6875 228.281H63.1797C63.0495 227.375 62.7656 226.719 62.3281 226.312C61.8958 225.906 61.2891 225.703 60.5078 225.703C59.5495 225.703 58.7969 226.057 58.25 226.766C57.7083 227.474 57.4375 228.482 57.4375 229.789V230.891C57.4375 232.125 57.6953 233.107 58.2109 233.836C58.7266 234.565 59.4479 234.93 60.375 234.93C61.2083 234.93 61.8464 234.742 62.2891 234.367C62.737 233.987 63.0339 233.328 63.1797 232.391H64.6875ZM67.9609 228.57C68.6016 227.784 69.4349 227.391 70.4609 227.391C72.2474 227.391 73.1484 228.398 73.1641 230.414V236H71.7188V230.406C71.7135 229.797 71.5729 229.346 71.2969 229.055C71.026 228.763 70.6016 228.617 70.0234 228.617C69.5547 228.617 69.1432 228.742 68.7891 228.992C68.4349 229.242 68.1589 229.57 67.9609 229.977V236H66.5156V224H67.9609V228.57ZM74.9453 231.695C74.9453 230.867 75.1068 230.122 75.4297 229.461C75.7578 228.799 76.2109 228.289 76.7891 227.93C77.3724 227.57 78.0365 227.391 78.7812 227.391C79.9323 227.391 80.862 227.789 81.5703 228.586C82.2839 229.383 82.6406 230.443 82.6406 231.766V231.867C82.6406 232.69 82.4818 233.43 82.1641 234.086C81.8516 234.737 81.401 235.245 80.8125 235.609C80.2292 235.974 79.5573 236.156 78.7969 236.156C77.651 236.156 76.7214 235.758 76.0078 234.961C75.2995 234.164 74.9453 233.109 74.9453 231.797V231.695ZM76.3984 231.867C76.3984 232.805 76.6146 233.557 77.0469 234.125C77.4844 234.693 78.0677 234.977 78.7969 234.977C79.5312 234.977 80.1146 234.69 80.5469 234.117C80.9792 233.539 81.1953 232.732 81.1953 231.695C81.1953 230.768 80.974 230.018 80.5312 229.445C80.0938 228.867 79.5104 228.578 78.7812 228.578C78.0677 228.578 77.4922 228.862 77.0547 229.43C76.6172 229.997 76.3984 230.81 76.3984 231.867ZM86.0234 236H84.5781V227.547H86.0234V236ZM84.4609 225.305C84.4609 225.07 84.5312 224.872 84.6719 224.711C84.8177 224.549 85.0312 224.469 85.3125 224.469C85.5938 224.469 85.8073 224.549 85.9531 224.711C86.099 224.872 86.1719 225.07 86.1719 225.305C86.1719 225.539 86.099 225.734 85.9531 225.891C85.8073 226.047 85.5938 226.125 85.3125 226.125C85.0312 226.125 84.8177 226.047 84.6719 225.891C84.5312 225.734 84.4609 225.539 84.4609 225.305ZM91.7344 234.977C92.25 234.977 92.7005 234.82 93.0859 234.508C93.4714 234.195 93.6849 233.805 93.7266 233.336H95.0938C95.0677 233.82 94.901 234.281 94.5938 234.719C94.2865 235.156 93.875 235.505 93.3594 235.766C92.849 236.026 92.3073 236.156 91.7344 236.156C90.5833 236.156 89.6667 235.773 88.9844 235.008C88.3073 234.237 87.9688 233.185 87.9688 231.852V231.609C87.9688 230.786 88.1198 230.055 88.4219 229.414C88.724 228.773 89.1562 228.276 89.7188 227.922C90.2865 227.568 90.9557 227.391 91.7266 227.391C92.6745 227.391 93.4609 227.674 94.0859 228.242C94.7161 228.81 95.0521 229.547 95.0938 230.453H93.7266C93.6849 229.906 93.4766 229.458 93.1016 229.109C92.7318 228.755 92.2734 228.578 91.7266 228.578C90.9922 228.578 90.4219 228.844 90.0156 229.375C89.6146 229.901 89.4141 230.664 89.4141 231.664V231.938C89.4141 232.911 89.6146 233.661 90.0156 234.188C90.4167 234.714 90.9896 234.977 91.7344 234.977ZM100.227 236.156C99.0807 236.156 98.1484 235.781 97.4297 235.031C96.7109 234.276 96.3516 233.268 96.3516 232.008V231.742C96.3516 230.904 96.5104 230.156 96.8281 229.5C97.151 228.839 97.599 228.323 98.1719 227.953C98.75 227.578 99.375 227.391 100.047 227.391C101.146 227.391 102 227.753 102.609 228.477C103.219 229.201 103.523 230.237 103.523 231.586V232.188H97.7969C97.8177 233.021 98.0599 233.695 98.5234 234.211C98.9922 234.721 99.5859 234.977 100.305 234.977C100.815 234.977 101.247 234.872 101.602 234.664C101.956 234.456 102.266 234.18 102.531 233.836L103.414 234.523C102.706 235.612 101.643 236.156 100.227 236.156ZM100.047 228.578C99.4635 228.578 98.974 228.792 98.5781 229.219C98.1823 229.641 97.9375 230.234 97.8438 231H102.078V230.891C102.036 230.156 101.839 229.589 101.484 229.188C101.13 228.781 100.651 228.578 100.047 228.578ZM117.766 232.391C117.625 233.594 117.18 234.523 116.43 235.18C115.685 235.831 114.693 236.156 113.453 236.156C112.109 236.156 111.031 235.674 110.219 234.711C109.411 233.747 109.008 232.458 109.008 230.844V229.75C109.008 228.693 109.195 227.763 109.57 226.961C109.951 226.159 110.487 225.544 111.18 225.117C111.872 224.685 112.674 224.469 113.586 224.469C114.794 224.469 115.763 224.807 116.492 225.484C117.221 226.156 117.646 227.089 117.766 228.281H116.258C116.128 227.375 115.844 226.719 115.406 226.312C114.974 225.906 114.367 225.703 113.586 225.703C112.628 225.703 111.875 226.057 111.328 226.766C110.786 227.474 110.516 228.482 110.516 229.789V230.891C110.516 232.125 110.773 233.107 111.289 233.836C111.805 234.565 112.526 234.93 113.453 234.93C114.286 234.93 114.924 234.742 115.367 234.367C115.815 233.987 116.112 233.328 116.258 232.391H117.766Z" fill="black"/>
<circle cx="38.5" cy="173.5" r="5" stroke="black"/>
<circle cx="38.5" cy="204.5" r="5" stroke="black"/>
<circle cx="38.5" cy="228.5" r="5" stroke="black"/>
<rect x="31" y="496" width="124" height="37" fill="#C4C4C4"/>
<path d="M75.0078 515.563C73.8822 515.24 73.0618 514.843 72.5469 514.374C72.0365 513.9 71.7812 513.317 71.7812 512.624C71.7812 511.84 72.0934 511.193 72.7178 510.683C73.3467 510.168 74.1624 509.91 75.165 509.91C75.8486 509.91 76.457 510.042 76.9902 510.307C77.528 510.571 77.9427 510.936 78.2344 511.4C78.5306 511.865 78.6787 512.373 78.6787 512.925H77.3594C77.3594 512.323 77.168 511.852 76.7852 511.51C76.4023 511.163 75.8623 510.99 75.165 510.99C74.5179 510.99 74.012 511.134 73.6475 511.421C73.2874 511.703 73.1074 512.098 73.1074 512.604C73.1074 513.009 73.2783 513.353 73.6201 513.636C73.9665 513.914 74.5521 514.169 75.377 514.401C76.2064 514.634 76.8535 514.891 77.3184 515.174C77.7878 515.452 78.1341 515.778 78.3574 516.151C78.5853 516.525 78.6992 516.965 78.6992 517.471C78.6992 518.277 78.3848 518.924 77.7559 519.412C77.127 519.895 76.2861 520.137 75.2334 520.137C74.5498 520.137 73.9118 520.007 73.3193 519.747C72.7269 519.483 72.2689 519.123 71.9453 518.667C71.6263 518.211 71.4668 517.694 71.4668 517.115H72.7861C72.7861 517.717 73.0072 518.193 73.4492 518.544C73.8958 518.89 74.4906 519.063 75.2334 519.063C75.9261 519.063 76.457 518.922 76.8262 518.64C77.1953 518.357 77.3799 517.972 77.3799 517.484C77.3799 516.997 77.209 516.621 76.8672 516.356C76.5254 516.088 75.9056 515.823 75.0078 515.563ZM84.7559 519.269C84.2637 519.847 83.5413 520.137 82.5889 520.137C81.8005 520.137 81.1989 519.909 80.7842 519.453C80.374 518.993 80.1667 518.314 80.1621 517.416V512.604H81.4268V517.382C81.4268 518.503 81.8825 519.063 82.7939 519.063C83.7601 519.063 84.4027 518.703 84.7217 517.983V512.604H85.9863V520H84.7832L84.7559 519.269ZM94.1758 516.384C94.1758 517.514 93.916 518.423 93.3965 519.111C92.877 519.795 92.1797 520.137 91.3047 520.137C90.3704 520.137 89.6481 519.806 89.1377 519.146L89.0762 520H87.9141V509.5H89.1787V513.417C89.6891 512.784 90.3932 512.467 91.291 512.467C92.1888 512.467 92.8929 512.806 93.4033 513.485C93.9183 514.164 94.1758 515.094 94.1758 516.274V516.384ZM92.9111 516.24C92.9111 515.379 92.7448 514.714 92.4121 514.244C92.0794 513.775 91.6009 513.54 90.9766 513.54C90.1426 513.54 89.5433 513.927 89.1787 514.702V517.901C89.5661 518.676 90.1699 519.063 90.9902 519.063C91.5964 519.063 92.068 518.829 92.4053 518.359C92.7425 517.89 92.9111 517.184 92.9111 516.24ZM96.9648 512.604L96.999 513.424C97.5413 512.786 98.2728 512.467 99.1934 512.467C100.228 512.467 100.932 512.863 101.306 513.656C101.552 513.301 101.871 513.014 102.263 512.795C102.659 512.576 103.126 512.467 103.664 512.467C105.286 512.467 106.111 513.326 106.139 515.044V520H104.874V515.119C104.874 514.59 104.753 514.196 104.512 513.937C104.27 513.672 103.865 513.54 103.295 513.54C102.826 513.54 102.436 513.681 102.126 513.964C101.816 514.242 101.636 514.618 101.586 515.092V520H100.314V515.153C100.314 514.078 99.7881 513.54 98.7354 513.54C97.9059 513.54 97.3385 513.893 97.0332 514.6V520H95.7686V512.604H96.9648ZM109.427 520H108.162V512.604H109.427V520ZM108.06 510.642C108.06 510.437 108.121 510.263 108.244 510.122C108.372 509.981 108.559 509.91 108.805 509.91C109.051 509.91 109.238 509.981 109.365 510.122C109.493 510.263 109.557 510.437 109.557 510.642C109.557 510.847 109.493 511.018 109.365 511.154C109.238 511.291 109.051 511.359 108.805 511.359C108.559 511.359 108.372 511.291 108.244 511.154C108.121 511.018 108.06 510.847 108.06 510.642ZM113.173 510.812V512.604H114.554V513.581H113.173V518.168C113.173 518.464 113.234 518.688 113.357 518.838C113.48 518.984 113.69 519.057 113.986 519.057C114.132 519.057 114.333 519.029 114.588 518.975V520C114.255 520.091 113.932 520.137 113.617 520.137C113.052 520.137 112.626 519.966 112.339 519.624C112.052 519.282 111.908 518.797 111.908 518.168V513.581H110.562V512.604H111.908V510.812H113.173Z" fill="black"/>
<path d="M42.1328 477.375C41.9141 478.552 41.3802 479.484 40.5312 480.172C39.6875 480.859 38.6745 481.188 37.4922 481.156C36.7891 481.141 36.1745 480.969 35.6484 480.641C35.1224 480.307 34.7135 479.831 34.4219 479.211C34.1302 478.586 33.9688 477.896 33.9375 477.141C33.9167 476.714 33.9349 476.297 33.9922 475.891L34.125 474.953C34.3698 473.245 34.9688 471.898 35.9219 470.914C36.8802 469.924 38.0443 469.443 39.4141 469.469C40.4818 469.49 41.3281 469.836 41.9531 470.508C42.5781 471.174 42.9089 472.102 42.9453 473.289H41.4844C41.4167 471.695 40.7917 470.836 39.6094 470.711L39.3516 470.695C38.3672 470.669 37.5443 471.036 36.8828 471.797C36.2266 472.552 35.8021 473.586 35.6094 474.898L35.4375 476.078L35.3906 476.766C35.3594 477.724 35.5286 478.487 35.8984 479.055C36.2734 479.617 36.8281 479.909 37.5625 479.93C38.3542 479.956 39.0078 479.766 39.5234 479.359C40.0443 478.953 40.4401 478.299 40.7109 477.398L42.1328 477.375ZM44.9609 481H43.5547L45.6328 469H47.0469L44.9609 481ZM48.8047 481H47.3984L48.8672 472.547H50.2734L48.8047 481ZM49.9688 469.461C50.2083 469.451 50.4062 469.523 50.5625 469.68C50.724 469.831 50.8047 470.031 50.8047 470.281C50.7995 470.526 50.7188 470.727 50.5625 470.883C50.4115 471.039 50.2135 471.122 49.9688 471.133C49.724 471.143 49.5234 471.073 49.3672 470.922C49.2109 470.771 49.1354 470.573 49.1406 470.328C49.1458 470.083 49.224 469.88 49.375 469.719C49.526 469.557 49.724 469.471 49.9688 469.461ZM54.6875 479.984C55.1927 479.995 55.6484 479.849 56.0547 479.547C56.4609 479.24 56.7266 478.839 56.8516 478.344L58.1875 478.336C58.1094 478.867 57.8958 479.352 57.5469 479.789C57.2031 480.227 56.7682 480.568 56.2422 480.812C55.7161 481.057 55.1771 481.172 54.625 481.156C53.9219 481.146 53.3255 480.964 52.8359 480.609C52.3516 480.25 51.9948 479.753 51.7656 479.117C51.5365 478.477 51.4583 477.758 51.5312 476.961L51.5703 476.57C51.6693 475.758 51.9062 475.031 52.2812 474.391C52.6562 473.75 53.1458 473.253 53.75 472.898C54.3542 472.539 55.0208 472.37 55.75 472.391C56.6354 472.411 57.3438 472.708 57.875 473.281C58.4062 473.854 58.6719 474.581 58.6719 475.461L57.3516 475.453C57.3411 474.901 57.1875 474.456 56.8906 474.117C56.5938 473.773 56.1927 473.591 55.6875 473.57C54.9531 473.555 54.3411 473.828 53.8516 474.391C53.3672 474.953 53.0651 475.74 52.9453 476.75L52.9219 476.953C52.8906 477.286 52.8854 477.63 52.9062 477.984C52.9427 478.594 53.1146 479.076 53.4219 479.43C53.7292 479.784 54.151 479.969 54.6875 479.984ZM62.3516 477.102L61.2422 478.094L60.7422 481H59.3281L61.4141 469H62.8281L61.5781 476.172L62.4453 475.297L65.4453 472.547H67.2812L63.3984 476.148L66.0703 481H64.5234L62.3516 477.102ZM74.9297 470.5L74.5703 472.547H76.1094L75.9141 473.664H74.3828L73.5 478.922C73.4844 479.057 73.4818 479.182 73.4922 479.297C73.5286 479.703 73.75 479.906 74.1562 479.906C74.3281 479.906 74.5573 479.88 74.8438 479.828L74.7344 481.008C74.3958 481.102 74.0521 481.148 73.7031 481.148C73.1406 481.138 72.7188 480.932 72.4375 480.531C72.1562 480.125 72.0469 479.581 72.1094 478.898L72.9688 473.664H71.4766L71.6719 472.547H73.1641L73.5234 470.5H74.9297ZM80.8906 472.391C81.599 472.401 82.2057 472.594 82.7109 472.969C83.2161 473.344 83.5885 473.862 83.8281 474.523C84.0729 475.18 84.1562 475.898 84.0781 476.68L84.0625 476.852C83.9635 477.674 83.7188 478.419 83.3281 479.086C82.9375 479.747 82.4323 480.263 81.8125 480.633C81.1927 481.003 80.513 481.177 79.7734 481.156C79.0703 481.146 78.4635 480.953 77.9531 480.578C77.4479 480.203 77.0781 479.693 76.8438 479.047C76.6094 478.401 76.526 477.69 76.5938 476.914C76.6719 476.039 76.9089 475.253 77.3047 474.555C77.7005 473.857 78.2083 473.318 78.8281 472.938C79.4531 472.552 80.1406 472.37 80.8906 472.391ZM78.0156 476.922C77.9792 477.25 77.9792 477.591 78.0156 477.945C78.0677 478.56 78.25 479.049 78.5625 479.414C78.8802 479.779 79.3021 479.969 79.8281 479.984C80.2969 480 80.7292 479.885 81.125 479.641C81.5208 479.391 81.8542 479.016 82.125 478.516C82.3958 478.016 82.5703 477.461 82.6484 476.852C82.6901 476.372 82.6979 475.969 82.6719 475.641C82.6094 475.01 82.4193 474.513 82.1016 474.148C81.7839 473.784 81.362 473.591 80.8359 473.57C80.1068 473.555 79.487 473.841 78.9766 474.43C78.4661 475.018 78.151 475.789 78.0312 476.742L78.0156 476.922ZM94.2891 478.711C94.3672 478.128 94.0469 477.716 93.3281 477.477L91.8594 477.047C90.6198 476.62 90.0208 475.911 90.0625 474.922C90.099 474.177 90.4375 473.568 91.0781 473.094C91.724 472.615 92.4818 472.38 93.3516 472.391C94.2057 472.401 94.8984 472.651 95.4297 473.141C95.9661 473.625 96.224 474.258 96.2031 475.039L94.7969 475.031C94.8073 474.609 94.6745 474.266 94.3984 474C94.1224 473.734 93.7552 473.596 93.2969 473.586C92.8073 473.576 92.3854 473.695 92.0312 473.945C91.7031 474.18 91.513 474.487 91.4609 474.867C91.3932 475.357 91.6927 475.714 92.3594 475.938L93.0703 476.133C94.0391 476.383 94.7266 476.708 95.1328 477.109C95.5391 477.51 95.7266 478.008 95.6953 478.602C95.6641 479.128 95.4922 479.586 95.1797 479.977C94.8672 480.367 94.4505 480.667 93.9297 480.875C93.4089 481.078 92.8542 481.172 92.2656 481.156C91.3698 481.146 90.6302 480.885 90.0469 480.375C89.4635 479.859 89.1823 479.198 89.2031 478.391L90.6172 478.398C90.6172 478.872 90.7682 479.253 91.0703 479.539C91.3724 479.826 91.7865 479.969 92.3125 479.969C92.8281 479.979 93.2734 479.872 93.6484 479.648C94.0234 479.419 94.237 479.107 94.2891 478.711ZM100.789 481.156C99.737 481.135 98.9141 480.747 98.3203 479.992C97.7266 479.237 97.4766 478.271 97.5703 477.094L97.6094 476.758C97.6979 475.919 97.9453 475.154 98.3516 474.461C98.763 473.768 99.263 473.247 99.8516 472.898C100.44 472.544 101.076 472.375 101.758 472.391C102.628 472.411 103.31 472.701 103.805 473.258C104.299 473.815 104.57 474.57 104.617 475.523C104.633 475.862 104.622 476.201 104.586 476.539L104.5 477.188H98.9766C98.8828 477.953 99.0078 478.604 99.3516 479.141C99.7005 479.677 100.219 479.956 100.906 479.977C101.74 479.997 102.51 479.622 103.219 478.852L104.031 479.539C103.677 480.049 103.219 480.451 102.656 480.742C102.099 481.029 101.477 481.167 100.789 481.156ZM101.688 473.57C101.104 473.555 100.594 473.753 100.156 474.164C99.724 474.576 99.3802 475.188 99.125 476L103.234 476.008L103.266 475.883C103.349 475.227 103.242 474.682 102.945 474.25C102.654 473.812 102.234 473.586 101.688 473.57ZM109.086 481.156C108.034 481.135 107.211 480.747 106.617 479.992C106.023 479.237 105.773 478.271 105.867 477.094L105.906 476.758C105.995 475.919 106.242 475.154 106.648 474.461C107.06 473.768 107.56 473.247 108.148 472.898C108.737 472.544 109.372 472.375 110.055 472.391C110.924 472.411 111.607 472.701 112.102 473.258C112.596 473.815 112.867 474.57 112.914 475.523C112.93 475.862 112.919 476.201 112.883 476.539L112.797 477.188H107.273C107.18 477.953 107.305 478.604 107.648 479.141C107.997 479.677 108.516 479.956 109.203 479.977C110.036 479.997 110.807 479.622 111.516 478.852L112.328 479.539C111.974 480.049 111.516 480.451 110.953 480.742C110.396 481.029 109.773 481.167 109.086 481.156ZM109.984 473.57C109.401 473.555 108.891 473.753 108.453 474.164C108.021 474.576 107.677 475.188 107.422 476L111.531 476.008L111.562 475.883C111.646 475.227 111.539 474.682 111.242 474.25C110.951 473.812 110.531 473.586 109.984 473.57ZM122.906 473.836L122.242 473.766C121.336 473.766 120.622 474.174 120.102 474.992L119.062 481H117.648L119.117 472.547L120.484 472.539L120.273 473.523C120.872 472.737 121.578 472.354 122.391 472.375C122.562 472.375 122.786 472.414 123.062 472.492L122.906 473.836ZM126.477 481.156C125.424 481.135 124.602 480.747 124.008 479.992C123.414 479.237 123.164 478.271 123.258 477.094L123.297 476.758C123.385 475.919 123.633 475.154 124.039 474.461C124.451 473.768 124.951 473.247 125.539 472.898C126.128 472.544 126.763 472.375 127.445 472.391C128.315 472.411 128.997 472.701 129.492 473.258C129.987 473.815 130.258 474.57 130.305 475.523C130.32 475.862 130.31 476.201 130.273 476.539L130.188 477.188H124.664C124.57 477.953 124.695 478.604 125.039 479.141C125.388 479.677 125.906 479.956 126.594 479.977C127.427 479.997 128.198 479.622 128.906 478.852L129.719 479.539C129.365 480.049 128.906 480.451 128.344 480.742C127.786 481.029 127.164 481.167 126.477 481.156ZM127.375 473.57C126.792 473.555 126.281 473.753 125.844 474.164C125.411 474.576 125.068 475.188 124.812 476L128.922 476.008L128.953 475.883C129.036 475.227 128.93 474.682 128.633 474.25C128.341 473.812 127.922 473.586 127.375 473.57ZM136.352 478.711C136.43 478.128 136.109 477.716 135.391 477.477L133.922 477.047C132.682 476.62 132.083 475.911 132.125 474.922C132.161 474.177 132.5 473.568 133.141 473.094C133.786 472.615 134.544 472.38 135.414 472.391C136.268 472.401 136.961 472.651 137.492 473.141C138.029 473.625 138.286 474.258 138.266 475.039L136.859 475.031C136.87 474.609 136.737 474.266 136.461 474C136.185 473.734 135.818 473.596 135.359 473.586C134.87 473.576 134.448 473.695 134.094 473.945C133.766 474.18 133.576 474.487 133.523 474.867C133.456 475.357 133.755 475.714 134.422 475.938L135.133 476.133C136.102 476.383 136.789 476.708 137.195 477.109C137.602 477.51 137.789 478.008 137.758 478.602C137.727 479.128 137.555 479.586 137.242 479.977C136.93 480.367 136.513 480.667 135.992 480.875C135.471 481.078 134.917 481.172 134.328 481.156C133.432 481.146 132.693 480.885 132.109 480.375C131.526 479.859 131.245 479.198 131.266 478.391L132.68 478.398C132.68 478.872 132.831 479.253 133.133 479.539C133.435 479.826 133.849 479.969 134.375 479.969C134.891 479.979 135.336 479.872 135.711 479.648C136.086 479.419 136.299 479.107 136.352 478.711ZM144.562 480.164C143.901 480.846 143.06 481.177 142.039 481.156C141.232 481.135 140.633 480.846 140.242 480.289C139.857 479.732 139.714 478.971 139.812 478.008L140.719 472.547H142.133L141.219 478.031C141.193 478.26 141.188 478.484 141.203 478.703C141.229 479.078 141.341 479.372 141.539 479.586C141.737 479.799 142.013 479.914 142.367 479.93C143.378 479.961 144.159 479.552 144.711 478.703L145.773 472.547H147.188L145.719 481H144.383L144.562 480.164ZM149.367 481H147.961L150.039 469H151.453L149.367 481ZM155.414 470.5L155.055 472.547H156.594L156.398 473.664H154.867L153.984 478.922C153.969 479.057 153.966 479.182 153.977 479.297C154.013 479.703 154.234 479.906 154.641 479.906C154.812 479.906 155.042 479.88 155.328 479.828L155.219 481.008C154.88 481.102 154.536 481.148 154.188 481.148C153.625 481.138 153.203 480.932 152.922 480.531C152.641 480.125 152.531 479.581 152.594 478.898L153.453 473.664H151.961L152.156 472.547H153.648L154.008 470.5H155.414Z" fill="black"/>
<path d="M40.875 366.719L42.4062 358.625H44.7422L42.2188 370H39.8594L38.0078 362.391L36.1562 370H33.7969L31.2734 358.625H33.6094L35.1484 366.703L37.0234 358.625H39.0078L40.875 366.719ZM48.0703 362.469C48.6693 361.75 49.4219 361.391 50.3281 361.391C52.1615 361.391 53.0911 362.456 53.1172 364.586V370H50.8594V364.648C50.8594 364.164 50.7552 363.807 50.5469 363.578C50.3385 363.344 49.9922 363.227 49.5078 363.227C48.8464 363.227 48.3672 363.482 48.0703 363.992V370H45.8125V358H48.0703V362.469ZM57.2031 370H54.9375V361.547H57.2031V370ZM54.8047 359.359C54.8047 359.021 54.9167 358.742 55.1406 358.523C55.3698 358.305 55.6797 358.195 56.0703 358.195C56.4557 358.195 56.763 358.305 56.9922 358.523C57.2214 358.742 57.3359 359.021 57.3359 359.359C57.3359 359.703 57.2188 359.984 56.9844 360.203C56.7552 360.422 56.4505 360.531 56.0703 360.531C55.6901 360.531 55.3828 360.422 55.1484 360.203C54.9193 359.984 54.8047 359.703 54.8047 359.359ZM62.5859 368.336C63.0026 368.336 63.3411 368.221 63.6016 367.992C63.862 367.763 63.9974 367.458 64.0078 367.078H66.125C66.1198 367.651 65.9635 368.177 65.6562 368.656C65.349 369.13 64.9271 369.5 64.3906 369.766C63.8594 370.026 63.2708 370.156 62.625 370.156C61.4167 370.156 60.4635 369.773 59.7656 369.008C59.0677 368.237 58.7188 367.174 58.7188 365.82V365.672C58.7188 364.37 59.0651 363.331 59.7578 362.555C60.4505 361.779 61.401 361.391 62.6094 361.391C63.6667 361.391 64.513 361.693 65.1484 362.297C65.7891 362.896 66.1146 363.695 66.125 364.695H64.0078C63.9974 364.258 63.862 363.904 63.6016 363.633C63.3411 363.357 62.9974 363.219 62.5703 363.219C62.0443 363.219 61.6458 363.411 61.375 363.797C61.1094 364.177 60.9766 364.797 60.9766 365.656V365.891C60.9766 366.76 61.1094 367.385 61.375 367.766C61.6406 368.146 62.0443 368.336 62.5859 368.336ZM69.6172 362.469C70.2161 361.75 70.9688 361.391 71.875 361.391C73.7083 361.391 74.638 362.456 74.6641 364.586V370H72.4062V364.648C72.4062 364.164 72.3021 363.807 72.0938 363.578C71.8854 363.344 71.5391 363.227 71.0547 363.227C70.3932 363.227 69.9141 363.482 69.6172 363.992V370H67.3594V358H69.6172V362.469ZM83.8672 368.336C84.2839 368.336 84.6224 368.221 84.8828 367.992C85.1432 367.763 85.2786 367.458 85.2891 367.078H87.4062C87.401 367.651 87.2448 368.177 86.9375 368.656C86.6302 369.13 86.2083 369.5 85.6719 369.766C85.1406 370.026 84.5521 370.156 83.9062 370.156C82.6979 370.156 81.7448 369.773 81.0469 369.008C80.349 368.237 80 367.174 80 365.82V365.672C80 364.37 80.3464 363.331 81.0391 362.555C81.7318 361.779 82.6823 361.391 83.8906 361.391C84.9479 361.391 85.7943 361.693 86.4297 362.297C87.0703 362.896 87.3958 363.695 87.4062 364.695H85.2891C85.2786 364.258 85.1432 363.904 84.8828 363.633C84.6224 363.357 84.2786 363.219 83.8516 363.219C83.3255 363.219 82.9271 363.411 82.6562 363.797C82.3906 364.177 82.2578 364.797 82.2578 365.656V365.891C82.2578 366.76 82.3906 367.385 82.6562 367.766C82.9219 368.146 83.3255 368.336 83.8672 368.336ZM90.8984 362.469C91.4974 361.75 92.25 361.391 93.1562 361.391C94.9896 361.391 95.9193 362.456 95.9453 364.586V370H93.6875V364.648C93.6875 364.164 93.5833 363.807 93.375 363.578C93.1667 363.344 92.8203 363.227 92.3359 363.227C91.6745 363.227 91.1953 363.482 90.8984 363.992V370H88.6406V358H90.8984V362.469ZM97.2969 365.695C97.2969 364.857 97.4583 364.109 97.7812 363.453C98.1042 362.797 98.5677 362.289 99.1719 361.93C99.7812 361.57 100.487 361.391 101.289 361.391C102.43 361.391 103.359 361.74 104.078 362.438C104.802 363.135 105.206 364.083 105.289 365.281L105.305 365.859C105.305 367.156 104.943 368.198 104.219 368.984C103.495 369.766 102.523 370.156 101.305 370.156C100.086 370.156 99.112 369.766 98.3828 368.984C97.6589 368.203 97.2969 367.141 97.2969 365.797V365.695ZM99.5547 365.859C99.5547 366.661 99.7057 367.276 100.008 367.703C100.31 368.125 100.742 368.336 101.305 368.336C101.852 368.336 102.279 368.128 102.586 367.711C102.893 367.289 103.047 366.617 103.047 365.695C103.047 364.909 102.893 364.299 102.586 363.867C102.279 363.435 101.846 363.219 101.289 363.219C100.737 363.219 100.31 363.435 100.008 363.867C99.7057 364.294 99.5547 364.958 99.5547 365.859ZM109.078 370H106.812V361.547H109.078V370ZM106.68 359.359C106.68 359.021 106.792 358.742 107.016 358.523C107.245 358.305 107.555 358.195 107.945 358.195C108.331 358.195 108.638 358.305 108.867 358.523C109.096 358.742 109.211 359.021 109.211 359.359C109.211 359.703 109.094 359.984 108.859 360.203C108.63 360.422 108.326 360.531 107.945 360.531C107.565 360.531 107.258 360.422 107.023 360.203C106.794 359.984 106.68 359.703 106.68 359.359ZM114.461 368.336C114.878 368.336 115.216 368.221 115.477 367.992C115.737 367.763 115.872 367.458 115.883 367.078H118C117.995 367.651 117.839 368.177 117.531 368.656C117.224 369.13 116.802 369.5 116.266 369.766C115.734 370.026 115.146 370.156 114.5 370.156C113.292 370.156 112.339 369.773 111.641 369.008C110.943 368.237 110.594 367.174 110.594 365.82V365.672C110.594 364.37 110.94 363.331 111.633 362.555C112.326 361.779 113.276 361.391 114.484 361.391C115.542 361.391 116.388 361.693 117.023 362.297C117.664 362.896 117.99 363.695 118 364.695H115.883C115.872 364.258 115.737 363.904 115.477 363.633C115.216 363.357 114.872 363.219 114.445 363.219C113.919 363.219 113.521 363.411 113.25 363.797C112.984 364.177 112.852 364.797 112.852 365.656V365.891C112.852 366.76 112.984 367.385 113.25 367.766C113.516 368.146 113.919 368.336 114.461 368.336ZM123.18 370.156C121.94 370.156 120.93 369.776 120.148 369.016C119.372 368.255 118.984 367.242 118.984 365.977V365.758C118.984 364.909 119.148 364.151 119.477 363.484C119.805 362.812 120.268 362.297 120.867 361.938C121.471 361.573 122.159 361.391 122.93 361.391C124.086 361.391 124.995 361.755 125.656 362.484C126.323 363.214 126.656 364.247 126.656 365.586V366.508H121.273C121.346 367.06 121.565 367.503 121.93 367.836C122.299 368.169 122.766 368.336 123.328 368.336C124.198 368.336 124.878 368.021 125.367 367.391L126.477 368.633C126.138 369.112 125.68 369.487 125.102 369.758C124.523 370.023 123.883 370.156 123.18 370.156ZM122.922 363.219C122.474 363.219 122.109 363.37 121.828 363.672C121.552 363.974 121.375 364.406 121.297 364.969H124.438V364.789C124.427 364.289 124.292 363.904 124.031 363.633C123.771 363.357 123.401 363.219 122.922 363.219ZM131.578 365.711C131.578 364.393 131.872 363.344 132.461 362.562C133.055 361.781 133.865 361.391 134.891 361.391C135.714 361.391 136.393 361.698 136.93 362.312V358H139.195V370H137.156L137.047 369.102C136.484 369.805 135.76 370.156 134.875 370.156C133.88 370.156 133.081 369.766 132.477 368.984C131.878 368.198 131.578 367.107 131.578 365.711ZM133.836 365.875C133.836 366.667 133.974 367.273 134.25 367.695C134.526 368.117 134.927 368.328 135.453 368.328C136.151 368.328 136.643 368.034 136.93 367.445V364.109C136.648 363.521 136.161 363.227 135.469 363.227C134.38 363.227 133.836 364.109 133.836 365.875ZM140.594 365.695C140.594 364.857 140.755 364.109 141.078 363.453C141.401 362.797 141.865 362.289 142.469 361.93C143.078 361.57 143.784 361.391 144.586 361.391C145.727 361.391 146.656 361.74 147.375 362.438C148.099 363.135 148.503 364.083 148.586 365.281L148.602 365.859C148.602 367.156 148.24 368.198 147.516 368.984C146.792 369.766 145.82 370.156 144.602 370.156C143.383 370.156 142.409 369.766 141.68 368.984C140.956 368.203 140.594 367.141 140.594 365.797V365.695ZM142.852 365.859C142.852 366.661 143.003 367.276 143.305 367.703C143.607 368.125 144.039 368.336 144.602 368.336C145.148 368.336 145.576 368.128 145.883 367.711C146.19 367.289 146.344 366.617 146.344 365.695C146.344 364.909 146.19 364.299 145.883 363.867C145.576 363.435 145.143 363.219 144.586 363.219C144.034 363.219 143.607 363.435 143.305 363.867C143.003 364.294 142.852 364.958 142.852 365.859ZM157.133 366.805L158.695 361.547H161.117L157.719 371.312L157.531 371.758C157.026 372.862 156.193 373.414 155.031 373.414C154.703 373.414 154.37 373.365 154.031 373.266V371.555L154.375 371.562C154.802 371.562 155.12 371.497 155.328 371.367C155.542 371.237 155.708 371.021 155.828 370.719L156.094 370.023L153.133 361.547H155.562L157.133 366.805ZM161.531 365.695C161.531 364.857 161.693 364.109 162.016 363.453C162.339 362.797 162.802 362.289 163.406 361.93C164.016 361.57 164.721 361.391 165.523 361.391C166.664 361.391 167.594 361.74 168.312 362.438C169.036 363.135 169.44 364.083 169.523 365.281L169.539 365.859C169.539 367.156 169.177 368.198 168.453 368.984C167.729 369.766 166.758 370.156 165.539 370.156C164.32 370.156 163.346 369.766 162.617 368.984C161.893 368.203 161.531 367.141 161.531 365.797V365.695ZM163.789 365.859C163.789 366.661 163.94 367.276 164.242 367.703C164.544 368.125 164.977 368.336 165.539 368.336C166.086 368.336 166.513 368.128 166.82 367.711C167.128 367.289 167.281 366.617 167.281 365.695C167.281 364.909 167.128 364.299 166.82 363.867C166.513 363.435 166.081 363.219 165.523 363.219C164.971 363.219 164.544 363.435 164.242 363.867C163.94 364.294 163.789 364.958 163.789 365.859ZM175.992 369.141C175.435 369.818 174.664 370.156 173.68 370.156C172.773 370.156 172.081 369.896 171.602 369.375C171.128 368.854 170.885 368.091 170.875 367.086V361.547H173.133V367.008C173.133 367.888 173.534 368.328 174.336 368.328C175.102 368.328 175.628 368.062 175.914 367.531V361.547H178.18V370H176.055L175.992 369.141ZM191.477 365.852C191.477 367.154 191.18 368.198 190.586 368.984C189.997 369.766 189.201 370.156 188.195 370.156C187.341 370.156 186.651 369.859 186.125 369.266V373.25H183.867V361.547H185.961L186.039 362.375C186.586 361.719 187.299 361.391 188.18 361.391C189.221 361.391 190.031 361.776 190.609 362.547C191.188 363.318 191.477 364.38 191.477 365.734V365.852ZM189.219 365.688C189.219 364.901 189.078 364.294 188.797 363.867C188.521 363.44 188.117 363.227 187.586 363.227C186.878 363.227 186.391 363.497 186.125 364.039V367.5C186.401 368.057 186.893 368.336 187.602 368.336C188.68 368.336 189.219 367.453 189.219 365.688ZM197.633 363.664C197.326 363.622 197.055 363.602 196.82 363.602C195.966 363.602 195.406 363.891 195.141 364.469V370H192.883V361.547H195.016L195.078 362.555C195.531 361.779 196.159 361.391 196.961 361.391C197.211 361.391 197.445 361.424 197.664 361.492L197.633 363.664ZM202.461 370.156C201.221 370.156 200.211 369.776 199.43 369.016C198.654 368.255 198.266 367.242 198.266 365.977V365.758C198.266 364.909 198.43 364.151 198.758 363.484C199.086 362.812 199.549 362.297 200.148 361.938C200.753 361.573 201.44 361.391 202.211 361.391C203.367 361.391 204.276 361.755 204.938 362.484C205.604 363.214 205.938 364.247 205.938 365.586V366.508H200.555C200.628 367.06 200.846 367.503 201.211 367.836C201.581 368.169 202.047 368.336 202.609 368.336C203.479 368.336 204.159 368.021 204.648 367.391L205.758 368.633C205.419 369.112 204.961 369.487 204.383 369.758C203.805 370.023 203.164 370.156 202.461 370.156ZM202.203 363.219C201.755 363.219 201.391 363.37 201.109 363.672C200.833 363.974 200.656 364.406 200.578 364.969H203.719V364.789C203.708 364.289 203.573 363.904 203.312 363.633C203.052 363.357 202.682 363.219 202.203 363.219ZM207.844 370V363.203H206.586V361.547H207.844V360.828C207.844 359.88 208.115 359.146 208.656 358.625C209.203 358.099 209.966 357.836 210.945 357.836C211.258 357.836 211.641 357.888 212.094 357.992L212.07 359.742C211.883 359.695 211.654 359.672 211.383 359.672C210.534 359.672 210.109 360.07 210.109 360.867V361.547H211.789V363.203H210.109V370H207.844ZM216.664 370.156C215.424 370.156 214.414 369.776 213.633 369.016C212.857 368.255 212.469 367.242 212.469 365.977V365.758C212.469 364.909 212.633 364.151 212.961 363.484C213.289 362.812 213.753 362.297 214.352 361.938C214.956 361.573 215.643 361.391 216.414 361.391C217.57 361.391 218.479 361.755 219.141 362.484C219.807 363.214 220.141 364.247 220.141 365.586V366.508H214.758C214.831 367.06 215.049 367.503 215.414 367.836C215.784 368.169 216.25 368.336 216.812 368.336C217.682 368.336 218.362 368.021 218.852 367.391L219.961 368.633C219.622 369.112 219.164 369.487 218.586 369.758C218.008 370.023 217.367 370.156 216.664 370.156ZM216.406 363.219C215.958 363.219 215.594 363.37 215.312 363.672C215.036 363.974 214.859 364.406 214.781 364.969H217.922V364.789C217.911 364.289 217.776 363.904 217.516 363.633C217.255 363.357 216.885 363.219 216.406 363.219ZM226.18 363.664C225.872 363.622 225.602 363.602 225.367 363.602C224.513 363.602 223.953 363.891 223.688 364.469V370H221.43V361.547H223.562L223.625 362.555C224.078 361.779 224.706 361.391 225.508 361.391C225.758 361.391 225.992 361.424 226.211 361.492L226.18 363.664ZM229.117 366.508C229.117 365.779 229.206 365.198 229.383 364.766C229.56 364.333 229.883 363.909 230.352 363.492C230.826 363.07 231.141 362.729 231.297 362.469C231.453 362.203 231.531 361.924 231.531 361.633C231.531 360.753 231.125 360.312 230.312 360.312C229.927 360.312 229.617 360.432 229.383 360.672C229.154 360.906 229.034 361.232 229.023 361.648H226.758C226.768 360.654 227.089 359.875 227.719 359.312C228.354 358.75 229.219 358.469 230.312 358.469C231.417 358.469 232.273 358.737 232.883 359.273C233.492 359.805 233.797 360.557 233.797 361.531C233.797 361.974 233.698 362.393 233.5 362.789C233.302 363.18 232.956 363.615 232.461 364.094L231.828 364.695C231.432 365.076 231.206 365.521 231.148 366.031L231.117 366.508H229.117ZM228.891 368.906C228.891 368.557 229.008 368.271 229.242 368.047C229.482 367.818 229.786 367.703 230.156 367.703C230.526 367.703 230.828 367.818 231.062 368.047C231.302 368.271 231.422 368.557 231.422 368.906C231.422 369.25 231.305 369.534 231.07 369.758C230.841 369.982 230.536 370.094 230.156 370.094C229.776 370.094 229.469 369.982 229.234 369.758C229.005 369.534 228.891 369.25 228.891 368.906Z" fill="black"/>
<path d="M64.6875 393.391C64.5469 394.594 64.1016 395.523 63.3516 396.18C62.6068 396.831 61.6146 397.156 60.375 397.156C59.0312 397.156 57.9531 396.674 57.1406 395.711C56.3333 394.747 55.9297 393.458 55.9297 391.844V390.75C55.9297 389.693 56.1172 388.763 56.4922 387.961C56.8724 387.159 57.4089 386.544 58.1016 386.117C58.7943 385.685 59.5964 385.469 60.5078 385.469C61.7161 385.469 62.6849 385.807 63.4141 386.484C64.1432 387.156 64.5677 388.089 64.6875 389.281H63.1797C63.0495 388.375 62.7656 387.719 62.3281 387.312C61.8958 386.906 61.2891 386.703 60.5078 386.703C59.5495 386.703 58.7969 387.057 58.25 387.766C57.7083 388.474 57.4375 389.482 57.4375 390.789V391.891C57.4375 393.125 57.6953 394.107 58.2109 394.836C58.7266 395.565 59.4479 395.93 60.375 395.93C61.2083 395.93 61.8464 395.742 62.2891 395.367C62.737 394.987 63.0339 394.328 63.1797 393.391H64.6875ZM67.9609 389.57C68.6016 388.784 69.4349 388.391 70.4609 388.391C72.2474 388.391 73.1484 389.398 73.1641 391.414V397H71.7188V391.406C71.7135 390.797 71.5729 390.346 71.2969 390.055C71.026 389.763 70.6016 389.617 70.0234 389.617C69.5547 389.617 69.1432 389.742 68.7891 389.992C68.4349 390.242 68.1589 390.57 67.9609 390.977V397H66.5156V385H67.9609V389.57ZM74.9453 392.695C74.9453 391.867 75.1068 391.122 75.4297 390.461C75.7578 389.799 76.2109 389.289 76.7891 388.93C77.3724 388.57 78.0365 388.391 78.7812 388.391C79.9323 388.391 80.862 388.789 81.5703 389.586C82.2839 390.383 82.6406 391.443 82.6406 392.766V392.867C82.6406 393.69 82.4818 394.43 82.1641 395.086C81.8516 395.737 81.401 396.245 80.8125 396.609C80.2292 396.974 79.5573 397.156 78.7969 397.156C77.651 397.156 76.7214 396.758 76.0078 395.961C75.2995 395.164 74.9453 394.109 74.9453 392.797V392.695ZM76.3984 392.867C76.3984 393.805 76.6146 394.557 77.0469 395.125C77.4844 395.693 78.0677 395.977 78.7969 395.977C79.5312 395.977 80.1146 395.69 80.5469 395.117C80.9792 394.539 81.1953 393.732 81.1953 392.695C81.1953 391.768 80.974 391.018 80.5312 390.445C80.0938 389.867 79.5104 389.578 78.7812 389.578C78.0677 389.578 77.4922 389.862 77.0547 390.43C76.6172 390.997 76.3984 391.81 76.3984 392.867ZM86.0234 397H84.5781V388.547H86.0234V397ZM84.4609 386.305C84.4609 386.07 84.5312 385.872 84.6719 385.711C84.8177 385.549 85.0312 385.469 85.3125 385.469C85.5938 385.469 85.8073 385.549 85.9531 385.711C86.099 385.872 86.1719 386.07 86.1719 386.305C86.1719 386.539 86.099 386.734 85.9531 386.891C85.8073 387.047 85.5938 387.125 85.3125 387.125C85.0312 387.125 84.8177 387.047 84.6719 386.891C84.5312 386.734 84.4609 386.539 84.4609 386.305ZM91.7344 395.977C92.25 395.977 92.7005 395.82 93.0859 395.508C93.4714 395.195 93.6849 394.805 93.7266 394.336H95.0938C95.0677 394.82 94.901 395.281 94.5938 395.719C94.2865 396.156 93.875 396.505 93.3594 396.766C92.849 397.026 92.3073 397.156 91.7344 397.156C90.5833 397.156 89.6667 396.773 88.9844 396.008C88.3073 395.237 87.9688 394.185 87.9688 392.852V392.609C87.9688 391.786 88.1198 391.055 88.4219 390.414C88.724 389.773 89.1562 389.276 89.7188 388.922C90.2865 388.568 90.9557 388.391 91.7266 388.391C92.6745 388.391 93.4609 388.674 94.0859 389.242C94.7161 389.81 95.0521 390.547 95.0938 391.453H93.7266C93.6849 390.906 93.4766 390.458 93.1016 390.109C92.7318 389.755 92.2734 389.578 91.7266 389.578C90.9922 389.578 90.4219 389.844 90.0156 390.375C89.6146 390.901 89.4141 391.664 89.4141 392.664V392.938C89.4141 393.911 89.6146 394.661 90.0156 395.188C90.4167 395.714 90.9896 395.977 91.7344 395.977ZM100.227 397.156C99.0807 397.156 98.1484 396.781 97.4297 396.031C96.7109 395.276 96.3516 394.268 96.3516 393.008V392.742C96.3516 391.904 96.5104 391.156 96.8281 390.5C97.151 389.839 97.599 389.323 98.1719 388.953C98.75 388.578 99.375 388.391 100.047 388.391C101.146 388.391 102 388.753 102.609 389.477C103.219 390.201 103.523 391.237 103.523 392.586V393.188H97.7969C97.8177 394.021 98.0599 394.695 98.5234 395.211C98.9922 395.721 99.5859 395.977 100.305 395.977C100.815 395.977 101.247 395.872 101.602 395.664C101.956 395.456 102.266 395.18 102.531 394.836L103.414 395.523C102.706 396.612 101.643 397.156 100.227 397.156ZM100.047 389.578C99.4635 389.578 98.974 389.792 98.5781 390.219C98.1823 390.641 97.9375 391.234 97.8438 392H102.078V391.891C102.036 391.156 101.839 390.589 101.484 390.188C101.13 389.781 100.651 389.578 100.047 389.578ZM115.68 394.031H110.914L109.844 397H108.297L112.641 385.625H113.953L118.305 397H116.766L115.68 394.031ZM111.367 392.797H115.234L113.297 387.477L111.367 392.797Z" fill="black"/>
<path d="M64.6875 420.391C64.5469 421.594 64.1016 422.523 63.3516 423.18C62.6068 423.831 61.6146 424.156 60.375 424.156C59.0312 424.156 57.9531 423.674 57.1406 422.711C56.3333 421.747 55.9297 420.458 55.9297 418.844V417.75C55.9297 416.693 56.1172 415.763 56.4922 414.961C56.8724 414.159 57.4089 413.544 58.1016 413.117C58.7943 412.685 59.5964 412.469 60.5078 412.469C61.7161 412.469 62.6849 412.807 63.4141 413.484C64.1432 414.156 64.5677 415.089 64.6875 416.281H63.1797C63.0495 415.375 62.7656 414.719 62.3281 414.312C61.8958 413.906 61.2891 413.703 60.5078 413.703C59.5495 413.703 58.7969 414.057 58.25 414.766C57.7083 415.474 57.4375 416.482 57.4375 417.789V418.891C57.4375 420.125 57.6953 421.107 58.2109 421.836C58.7266 422.565 59.4479 422.93 60.375 422.93C61.2083 422.93 61.8464 422.742 62.2891 422.367C62.737 421.987 63.0339 421.328 63.1797 420.391H64.6875ZM67.9609 416.57C68.6016 415.784 69.4349 415.391 70.4609 415.391C72.2474 415.391 73.1484 416.398 73.1641 418.414V424H71.7188V418.406C71.7135 417.797 71.5729 417.346 71.2969 417.055C71.026 416.763 70.6016 416.617 70.0234 416.617C69.5547 416.617 69.1432 416.742 68.7891 416.992C68.4349 417.242 68.1589 417.57 67.9609 417.977V424H66.5156V412H67.9609V416.57ZM74.9453 419.695C74.9453 418.867 75.1068 418.122 75.4297 417.461C75.7578 416.799 76.2109 416.289 76.7891 415.93C77.3724 415.57 78.0365 415.391 78.7812 415.391C79.9323 415.391 80.862 415.789 81.5703 416.586C82.2839 417.383 82.6406 418.443 82.6406 419.766V419.867C82.6406 420.69 82.4818 421.43 82.1641 422.086C81.8516 422.737 81.401 423.245 80.8125 423.609C80.2292 423.974 79.5573 424.156 78.7969 424.156C77.651 424.156 76.7214 423.758 76.0078 422.961C75.2995 422.164 74.9453 421.109 74.9453 419.797V419.695ZM76.3984 419.867C76.3984 420.805 76.6146 421.557 77.0469 422.125C77.4844 422.693 78.0677 422.977 78.7969 422.977C79.5312 422.977 80.1146 422.69 80.5469 422.117C80.9792 421.539 81.1953 420.732 81.1953 419.695C81.1953 418.768 80.974 418.018 80.5312 417.445C80.0938 416.867 79.5104 416.578 78.7812 416.578C78.0677 416.578 77.4922 416.862 77.0547 417.43C76.6172 417.997 76.3984 418.81 76.3984 419.867ZM86.0234 424H84.5781V415.547H86.0234V424ZM84.4609 413.305C84.4609 413.07 84.5312 412.872 84.6719 412.711C84.8177 412.549 85.0312 412.469 85.3125 412.469C85.5938 412.469 85.8073 412.549 85.9531 412.711C86.099 412.872 86.1719 413.07 86.1719 413.305C86.1719 413.539 86.099 413.734 85.9531 413.891C85.8073 414.047 85.5938 414.125 85.3125 414.125C85.0312 414.125 84.8177 414.047 84.6719 413.891C84.5312 413.734 84.4609 413.539 84.4609 413.305ZM91.7344 422.977C92.25 422.977 92.7005 422.82 93.0859 422.508C93.4714 422.195 93.6849 421.805 93.7266 421.336H95.0938C95.0677 421.82 94.901 422.281 94.5938 422.719C94.2865 423.156 93.875 423.505 93.3594 423.766C92.849 424.026 92.3073 424.156 91.7344 424.156C90.5833 424.156 89.6667 423.773 88.9844 423.008C88.3073 422.237 87.9688 421.185 87.9688 419.852V419.609C87.9688 418.786 88.1198 418.055 88.4219 417.414C88.724 416.773 89.1562 416.276 89.7188 415.922C90.2865 415.568 90.9557 415.391 91.7266 415.391C92.6745 415.391 93.4609 415.674 94.0859 416.242C94.7161 416.81 95.0521 417.547 95.0938 418.453H93.7266C93.6849 417.906 93.4766 417.458 93.1016 417.109C92.7318 416.755 92.2734 416.578 91.7266 416.578C90.9922 416.578 90.4219 416.844 90.0156 417.375C89.6146 417.901 89.4141 418.664 89.4141 419.664V419.938C89.4141 420.911 89.6146 421.661 90.0156 422.188C90.4167 422.714 90.9896 422.977 91.7344 422.977ZM100.227 424.156C99.0807 424.156 98.1484 423.781 97.4297 423.031C96.7109 422.276 96.3516 421.268 96.3516 420.008V419.742C96.3516 418.904 96.5104 418.156 96.8281 417.5C97.151 416.839 97.599 416.323 98.1719 415.953C98.75 415.578 99.375 415.391 100.047 415.391C101.146 415.391 102 415.753 102.609 416.477C103.219 417.201 103.523 418.237 103.523 419.586V420.188H97.7969C97.8177 421.021 98.0599 421.695 98.5234 422.211C98.9922 422.721 99.5859 422.977 100.305 422.977C100.815 422.977 101.247 422.872 101.602 422.664C101.956 422.456 102.266 422.18 102.531 421.836L103.414 422.523C102.706 423.612 101.643 424.156 100.227 424.156ZM100.047 416.578C99.4635 416.578 98.974 416.792 98.5781 417.219C98.1823 417.641 97.9375 418.234 97.8438 419H102.078V418.891C102.036 418.156 101.839 417.589 101.484 417.188C101.13 416.781 100.651 416.578 100.047 416.578ZM109.398 424V412.625H113.117C114.352 412.625 115.279 412.88 115.898 413.391C116.523 413.901 116.836 414.656 116.836 415.656C116.836 416.188 116.685 416.659 116.383 417.07C116.081 417.477 115.669 417.792 115.148 418.016C115.763 418.188 116.247 418.516 116.602 419C116.961 419.479 117.141 420.052 117.141 420.719C117.141 421.74 116.81 422.542 116.148 423.125C115.487 423.708 114.552 424 113.344 424H109.398ZM110.898 418.68V422.773H113.375C114.073 422.773 114.622 422.594 115.023 422.234C115.43 421.87 115.633 421.37 115.633 420.734C115.633 419.365 114.888 418.68 113.398 418.68H110.898ZM110.898 417.477H113.164C113.82 417.477 114.344 417.312 114.734 416.984C115.13 416.656 115.328 416.211 115.328 415.648C115.328 415.023 115.146 414.57 114.781 414.289C114.417 414.003 113.862 413.859 113.117 413.859H110.898V417.477Z" fill="black"/>
<path d="M64.6875 450.391C64.5469 451.594 64.1016 452.523 63.3516 453.18C62.6068 453.831 61.6146 454.156 60.375 454.156C59.0312 454.156 57.9531 453.674 57.1406 452.711C56.3333 451.747 55.9297 450.458 55.9297 448.844V447.75C55.9297 446.693 56.1172 445.763 56.4922 444.961C56.8724 444.159 57.4089 443.544 58.1016 443.117C58.7943 442.685 59.5964 442.469 60.5078 442.469C61.7161 442.469 62.6849 442.807 63.4141 443.484C64.1432 444.156 64.5677 445.089 64.6875 446.281H63.1797C63.0495 445.375 62.7656 444.719 62.3281 444.312C61.8958 443.906 61.2891 443.703 60.5078 443.703C59.5495 443.703 58.7969 444.057 58.25 444.766C57.7083 445.474 57.4375 446.482 57.4375 447.789V448.891C57.4375 450.125 57.6953 451.107 58.2109 451.836C58.7266 452.565 59.4479 452.93 60.375 452.93C61.2083 452.93 61.8464 452.742 62.2891 452.367C62.737 451.987 63.0339 451.328 63.1797 450.391H64.6875ZM67.9609 446.57C68.6016 445.784 69.4349 445.391 70.4609 445.391C72.2474 445.391 73.1484 446.398 73.1641 448.414V454H71.7188V448.406C71.7135 447.797 71.5729 447.346 71.2969 447.055C71.026 446.763 70.6016 446.617 70.0234 446.617C69.5547 446.617 69.1432 446.742 68.7891 446.992C68.4349 447.242 68.1589 447.57 67.9609 447.977V454H66.5156V442H67.9609V446.57ZM74.9453 449.695C74.9453 448.867 75.1068 448.122 75.4297 447.461C75.7578 446.799 76.2109 446.289 76.7891 445.93C77.3724 445.57 78.0365 445.391 78.7812 445.391C79.9323 445.391 80.862 445.789 81.5703 446.586C82.2839 447.383 82.6406 448.443 82.6406 449.766V449.867C82.6406 450.69 82.4818 451.43 82.1641 452.086C81.8516 452.737 81.401 453.245 80.8125 453.609C80.2292 453.974 79.5573 454.156 78.7969 454.156C77.651 454.156 76.7214 453.758 76.0078 452.961C75.2995 452.164 74.9453 451.109 74.9453 449.797V449.695ZM76.3984 449.867C76.3984 450.805 76.6146 451.557 77.0469 452.125C77.4844 452.693 78.0677 452.977 78.7969 452.977C79.5312 452.977 80.1146 452.69 80.5469 452.117C80.9792 451.539 81.1953 450.732 81.1953 449.695C81.1953 448.768 80.974 448.018 80.5312 447.445C80.0938 446.867 79.5104 446.578 78.7812 446.578C78.0677 446.578 77.4922 446.862 77.0547 447.43C76.6172 447.997 76.3984 448.81 76.3984 449.867ZM86.0234 454H84.5781V445.547H86.0234V454ZM84.4609 443.305C84.4609 443.07 84.5312 442.872 84.6719 442.711C84.8177 442.549 85.0312 442.469 85.3125 442.469C85.5938 442.469 85.8073 442.549 85.9531 442.711C86.099 442.872 86.1719 443.07 86.1719 443.305C86.1719 443.539 86.099 443.734 85.9531 443.891C85.8073 444.047 85.5938 444.125 85.3125 444.125C85.0312 444.125 84.8177 444.047 84.6719 443.891C84.5312 443.734 84.4609 443.539 84.4609 443.305ZM91.7344 452.977C92.25 452.977 92.7005 452.82 93.0859 452.508C93.4714 452.195 93.6849 451.805 93.7266 451.336H95.0938C95.0677 451.82 94.901 452.281 94.5938 452.719C94.2865 453.156 93.875 453.505 93.3594 453.766C92.849 454.026 92.3073 454.156 91.7344 454.156C90.5833 454.156 89.6667 453.773 88.9844 453.008C88.3073 452.237 87.9688 451.185 87.9688 449.852V449.609C87.9688 448.786 88.1198 448.055 88.4219 447.414C88.724 446.773 89.1562 446.276 89.7188 445.922C90.2865 445.568 90.9557 445.391 91.7266 445.391C92.6745 445.391 93.4609 445.674 94.0859 446.242C94.7161 446.81 95.0521 447.547 95.0938 448.453H93.7266C93.6849 447.906 93.4766 447.458 93.1016 447.109C92.7318 446.755 92.2734 446.578 91.7266 446.578C90.9922 446.578 90.4219 446.844 90.0156 447.375C89.6146 447.901 89.4141 448.664 89.4141 449.664V449.938C89.4141 450.911 89.6146 451.661 90.0156 452.188C90.4167 452.714 90.9896 452.977 91.7344 452.977ZM100.227 454.156C99.0807 454.156 98.1484 453.781 97.4297 453.031C96.7109 452.276 96.3516 451.268 96.3516 450.008V449.742C96.3516 448.904 96.5104 448.156 96.8281 447.5C97.151 446.839 97.599 446.323 98.1719 445.953C98.75 445.578 99.375 445.391 100.047 445.391C101.146 445.391 102 445.753 102.609 446.477C103.219 447.201 103.523 448.237 103.523 449.586V450.188H97.7969C97.8177 451.021 98.0599 451.695 98.5234 452.211C98.9922 452.721 99.5859 452.977 100.305 452.977C100.815 452.977 101.247 452.872 101.602 452.664C101.956 452.456 102.266 452.18 102.531 451.836L103.414 452.523C102.706 453.612 101.643 454.156 100.227 454.156ZM100.047 446.578C99.4635 446.578 98.974 446.792 98.5781 447.219C98.1823 447.641 97.9375 448.234 97.8438 449H102.078V448.891C102.036 448.156 101.839 447.589 101.484 447.188C101.13 446.781 100.651 446.578 100.047 446.578ZM117.766 450.391C117.625 451.594 117.18 452.523 116.43 453.18C115.685 453.831 114.693 454.156 113.453 454.156C112.109 454.156 111.031 453.674 110.219 452.711C109.411 451.747 109.008 450.458 109.008 448.844V447.75C109.008 446.693 109.195 445.763 109.57 444.961C109.951 444.159 110.487 443.544 111.18 443.117C111.872 442.685 112.674 442.469 113.586 442.469C114.794 442.469 115.763 442.807 116.492 443.484C117.221 444.156 117.646 445.089 117.766 446.281H116.258C116.128 445.375 115.844 444.719 115.406 444.312C114.974 443.906 114.367 443.703 113.586 443.703C112.628 443.703 111.875 444.057 111.328 444.766C110.786 445.474 110.516 446.482 110.516 447.789V448.891C110.516 450.125 110.773 451.107 111.289 451.836C111.805 452.565 112.526 452.93 113.453 452.93C114.286 452.93 114.924 452.742 115.367 452.367C115.815 451.987 116.112 451.328 116.258 450.391H117.766Z" fill="black"/>
<circle cx="38.5" cy="391.5" r="5" stroke="black"/>
<circle cx="38.5" cy="422.5" r="5" stroke="black"/>
<circle cx="38.5" cy="446.5" r="5" stroke="black"/>
<path d="M224.062 48H222.555V42.7422H216.82V48H215.32V36.625H216.82V41.5156H222.555V36.625H224.062V48ZM226.117 43.6953C226.117 42.8672 226.279 42.1224 226.602 41.4609C226.93 40.7995 227.383 40.2891 227.961 39.9297C228.544 39.5703 229.208 39.3906 229.953 39.3906C231.104 39.3906 232.034 39.7891 232.742 40.5859C233.456 41.3828 233.812 42.4427 233.812 43.7656V43.8672C233.812 44.6901 233.654 45.4297 233.336 46.0859C233.023 46.737 232.573 47.2448 231.984 47.6094C231.401 47.974 230.729 48.1562 229.969 48.1562C228.823 48.1562 227.893 47.7578 227.18 46.9609C226.471 46.1641 226.117 45.1094 226.117 43.7969V43.6953ZM227.57 43.8672C227.57 44.8047 227.786 45.5573 228.219 46.125C228.656 46.6927 229.24 46.9766 229.969 46.9766C230.703 46.9766 231.286 46.6901 231.719 46.1172C232.151 45.5391 232.367 44.7318 232.367 43.6953C232.367 42.7682 232.146 42.0182 231.703 41.4453C231.266 40.8672 230.682 40.5781 229.953 40.5781C229.24 40.5781 228.664 40.862 228.227 41.4297C227.789 41.9974 227.57 42.8099 227.57 43.8672ZM236.984 39.5469L237.023 40.4844C237.643 39.7552 238.479 39.3906 239.531 39.3906C240.714 39.3906 241.518 39.8438 241.945 40.75C242.227 40.3438 242.591 40.0156 243.039 39.7656C243.492 39.5156 244.026 39.3906 244.641 39.3906C246.495 39.3906 247.438 40.3724 247.469 42.3359V48H246.023V42.4219C246.023 41.8177 245.885 41.3672 245.609 41.0703C245.333 40.7682 244.87 40.6172 244.219 40.6172C243.682 40.6172 243.237 40.7786 242.883 41.1016C242.529 41.4193 242.323 41.849 242.266 42.3906V48H240.812V42.4609C240.812 41.2318 240.211 40.6172 239.008 40.6172C238.06 40.6172 237.411 41.0208 237.062 41.8281V48H235.617V39.5469H236.984ZM253.164 48.1562C252.018 48.1562 251.086 47.7812 250.367 47.0312C249.648 46.276 249.289 45.2682 249.289 44.0078V43.7422C249.289 42.9036 249.448 42.1562 249.766 41.5C250.089 40.8385 250.536 40.3229 251.109 39.9531C251.688 39.5781 252.312 39.3906 252.984 39.3906C254.083 39.3906 254.938 39.7526 255.547 40.4766C256.156 41.2005 256.461 42.237 256.461 43.5859V44.1875H250.734C250.755 45.0208 250.997 45.6953 251.461 46.2109C251.93 46.7214 252.523 46.9766 253.242 46.9766C253.753 46.9766 254.185 46.8724 254.539 46.6641C254.893 46.4557 255.203 46.1797 255.469 45.8359L256.352 46.5234C255.643 47.612 254.581 48.1562 253.164 48.1562ZM252.984 40.5781C252.401 40.5781 251.911 40.7917 251.516 41.2188C251.12 41.6406 250.875 42.2344 250.781 43H255.016V42.8906C254.974 42.1562 254.776 41.5885 254.422 41.1875C254.068 40.7812 253.589 40.5781 252.984 40.5781ZM263.836 43.5469V48H262.336V36.625H266.531C267.776 36.625 268.75 36.9427 269.453 37.5781C270.161 38.2135 270.516 39.0547 270.516 40.1016C270.516 41.2057 270.169 42.0573 269.477 42.6562C268.789 43.25 267.802 43.5469 266.516 43.5469H263.836ZM263.836 42.3203H266.531C267.333 42.3203 267.948 42.1328 268.375 41.7578C268.802 41.3776 269.016 40.8307 269.016 40.1172C269.016 39.4401 268.802 38.8984 268.375 38.4922C267.948 38.0859 267.362 37.875 266.617 37.8594H263.836V42.3203ZM277.328 48C277.245 47.8333 277.177 47.5365 277.125 47.1094C276.453 47.8073 275.651 48.1562 274.719 48.1562C273.885 48.1562 273.201 47.9219 272.664 47.4531C272.133 46.9792 271.867 46.3802 271.867 45.6562C271.867 44.776 272.201 44.0938 272.867 43.6094C273.539 43.1198 274.482 42.875 275.695 42.875H277.102V42.2109C277.102 41.7057 276.951 41.3047 276.648 41.0078C276.346 40.7057 275.901 40.5547 275.312 40.5547C274.797 40.5547 274.365 40.6849 274.016 40.9453C273.667 41.2057 273.492 41.5208 273.492 41.8906H272.039C272.039 41.4688 272.188 41.0625 272.484 40.6719C272.786 40.276 273.193 39.9635 273.703 39.7344C274.219 39.5052 274.784 39.3906 275.398 39.3906C276.372 39.3906 277.135 39.6354 277.688 40.125C278.24 40.6094 278.526 41.2786 278.547 42.1328V46.0234C278.547 46.7995 278.646 47.4167 278.844 47.875V48H277.328ZM274.93 46.8984C275.383 46.8984 275.812 46.7812 276.219 46.5469C276.625 46.3125 276.919 46.0078 277.102 45.6328V43.8984H275.969C274.198 43.8984 273.312 44.4167 273.312 45.4531C273.312 45.9062 273.464 46.2604 273.766 46.5156C274.068 46.7708 274.456 46.8984 274.93 46.8984ZM280.469 43.7031C280.469 42.3854 280.773 41.3385 281.383 40.5625C281.992 39.7812 282.799 39.3906 283.805 39.3906C284.836 39.3906 285.641 39.7552 286.219 40.4844L286.289 39.5469H287.609V47.7969C287.609 48.8906 287.284 49.7526 286.633 50.3828C285.987 51.013 285.117 51.3281 284.023 51.3281C283.414 51.3281 282.818 51.1979 282.234 50.9375C281.651 50.6771 281.206 50.3203 280.898 49.8672L281.648 49C282.268 49.7656 283.026 50.1484 283.922 50.1484C284.625 50.1484 285.172 49.9505 285.562 49.5547C285.958 49.1589 286.156 48.6016 286.156 47.8828V47.1562C285.578 47.8229 284.789 48.1562 283.789 48.1562C282.799 48.1562 281.997 47.7578 281.383 46.9609C280.773 46.1641 280.469 45.0781 280.469 43.7031ZM281.922 43.8672C281.922 44.8203 282.117 45.5703 282.508 46.1172C282.898 46.6589 283.445 46.9297 284.148 46.9297C285.06 46.9297 285.729 46.5156 286.156 45.6875V41.8281C285.714 41.0208 285.049 40.6172 284.164 40.6172C283.461 40.6172 282.911 40.8906 282.516 41.4375C282.12 41.9844 281.922 42.7943 281.922 43.8672ZM293.305 48.1562C292.159 48.1562 291.227 47.7812 290.508 47.0312C289.789 46.276 289.43 45.2682 289.43 44.0078V43.7422C289.43 42.9036 289.589 42.1562 289.906 41.5C290.229 40.8385 290.677 40.3229 291.25 39.9531C291.828 39.5781 292.453 39.3906 293.125 39.3906C294.224 39.3906 295.078 39.7526 295.688 40.4766C296.297 41.2005 296.602 42.237 296.602 43.5859V44.1875H290.875C290.896 45.0208 291.138 45.6953 291.602 46.2109C292.07 46.7214 292.664 46.9766 293.383 46.9766C293.893 46.9766 294.326 46.8724 294.68 46.6641C295.034 46.4557 295.344 46.1797 295.609 45.8359L296.492 46.5234C295.784 47.612 294.721 48.1562 293.305 48.1562ZM293.125 40.5781C292.542 40.5781 292.052 40.7917 291.656 41.2188C291.26 41.6406 291.016 42.2344 290.922 43H295.156V42.8906C295.115 42.1562 294.917 41.5885 294.562 41.1875C294.208 40.7812 293.729 40.5781 293.125 40.5781Z" fill="black"/>
</svg>
