<svg width="512" height="609" viewBox="0 0 512 609" fill="none" xmlns="http://www.w3.org/2000/svg">
<rect width="512" height="609" fill="white"/>
<path d="M215.062 43H213.555L207.828 34.2344V43H206.32V31.625H207.828L213.57 40.4297V31.625H215.062V43ZM221.008 43.1562C219.862 43.1562 218.93 42.7812 218.211 42.0312C217.492 41.276 217.133 40.2682 217.133 39.0078V38.7422C217.133 37.9036 217.292 37.1562 217.609 36.5C217.932 35.8385 218.38 35.3229 218.953 34.9531C219.531 34.5781 220.156 34.3906 220.828 34.3906C221.927 34.3906 222.781 34.7526 223.391 35.4766C224 36.2005 224.305 37.237 224.305 38.5859V39.1875H218.578C218.599 40.0208 218.841 40.6953 219.305 41.2109C219.773 41.7214 220.367 41.9766 221.086 41.9766C221.596 41.9766 222.029 41.8724 222.383 41.6641C222.737 41.4557 223.047 41.1797 223.312 40.8359L224.195 41.5234C223.487 42.612 222.424 43.1562 221.008 43.1562ZM220.828 35.5781C220.245 35.5781 219.755 35.7917 219.359 36.2188C218.964 36.6406 218.719 37.2344 218.625 38H222.859V37.8906C222.818 37.1562 222.62 36.5885 222.266 36.1875C221.911 35.7812 221.432 35.5781 220.828 35.5781ZM233.469 41.0078L235.094 34.5469H236.539L234.078 43H232.906L230.852 36.5938L228.852 43H227.68L225.227 34.5469H226.664L228.328 40.875L230.297 34.5469H231.461L233.469 41.0078ZM243.711 38.5469V43H242.211V31.625H246.406C247.651 31.625 248.625 31.9427 249.328 32.5781C250.036 33.2135 250.391 34.0547 250.391 35.1016C250.391 36.2057 250.044 37.0573 249.352 37.6562C248.664 38.25 247.677 38.5469 246.391 38.5469H243.711ZM243.711 37.3203H246.406C247.208 37.3203 247.823 37.1328 248.25 36.7578C248.677 36.3776 248.891 35.8307 248.891 35.1172C248.891 34.4401 248.677 33.8984 248.25 33.4922C247.823 33.0859 247.237 32.875 246.492 32.8594H243.711V37.3203ZM251.586 38.6953C251.586 37.8672 251.747 37.1224 252.07 36.4609C252.398 35.7995 252.852 35.2891 253.43 34.9297C254.013 34.5703 254.677 34.3906 255.422 34.3906C256.573 34.3906 257.503 34.7891 258.211 35.5859C258.924 36.3828 259.281 37.4427 259.281 38.7656V38.8672C259.281 39.6901 259.122 40.4297 258.805 41.0859C258.492 41.737 258.042 42.2448 257.453 42.6094C256.87 42.974 256.198 43.1562 255.438 43.1562C254.292 43.1562 253.362 42.7578 252.648 41.9609C251.94 41.1641 251.586 40.1094 251.586 38.7969V38.6953ZM253.039 38.8672C253.039 39.8047 253.255 40.5573 253.688 41.125C254.125 41.6927 254.708 41.9766 255.438 41.9766C256.172 41.9766 256.755 41.6901 257.188 41.1172C257.62 40.5391 257.836 39.7318 257.836 38.6953C257.836 37.7682 257.615 37.0182 257.172 36.4453C256.734 35.8672 256.151 35.5781 255.422 35.5781C254.708 35.5781 254.133 35.862 253.695 36.4297C253.258 36.9974 253.039 37.8099 253.039 38.8672ZM262.664 43H261.219V31H262.664V43ZM266.555 43H265.109V31H266.555V43ZM274.57 38.5469V43H273.07V31.625H277.266C278.51 31.625 279.484 31.9427 280.188 32.5781C280.896 33.2135 281.25 34.0547 281.25 35.1016C281.25 36.2057 280.904 37.0573 280.211 37.6562C279.523 38.25 278.536 38.5469 277.25 38.5469H274.57ZM274.57 37.3203H277.266C278.068 37.3203 278.682 37.1328 279.109 36.7578C279.536 36.3776 279.75 35.8307 279.75 35.1172C279.75 34.4401 279.536 33.8984 279.109 33.4922C278.682 33.0859 278.096 32.875 277.352 32.8594H274.57V37.3203ZM288.062 43C287.979 42.8333 287.911 42.5365 287.859 42.1094C287.188 42.8073 286.385 43.1562 285.453 43.1562C284.62 43.1562 283.935 42.9219 283.398 42.4531C282.867 41.9792 282.602 41.3802 282.602 40.6562C282.602 39.776 282.935 39.0938 283.602 38.6094C284.273 38.1198 285.216 37.875 286.43 37.875H287.836V37.2109C287.836 36.7057 287.685 36.3047 287.383 36.0078C287.081 35.7057 286.635 35.5547 286.047 35.5547C285.531 35.5547 285.099 35.6849 284.75 35.9453C284.401 36.2057 284.227 36.5208 284.227 36.8906H282.773C282.773 36.4688 282.922 36.0625 283.219 35.6719C283.521 35.276 283.927 34.9635 284.438 34.7344C284.953 34.5052 285.518 34.3906 286.133 34.3906C287.107 34.3906 287.87 34.6354 288.422 35.125C288.974 35.6094 289.26 36.2786 289.281 37.1328V41.0234C289.281 41.7995 289.38 42.4167 289.578 42.875V43H288.062ZM285.664 41.8984C286.117 41.8984 286.547 41.7812 286.953 41.5469C287.359 41.3125 287.654 41.0078 287.836 40.6328V38.8984H286.703C284.932 38.8984 284.047 39.4167 284.047 40.4531C284.047 40.9062 284.198 41.2604 284.5 41.5156C284.802 41.7708 285.19 41.8984 285.664 41.8984ZM291.203 38.7031C291.203 37.3854 291.508 36.3385 292.117 35.5625C292.727 34.7812 293.534 34.3906 294.539 34.3906C295.57 34.3906 296.375 34.7552 296.953 35.4844L297.023 34.5469H298.344V42.7969C298.344 43.8906 298.018 44.7526 297.367 45.3828C296.721 46.013 295.852 46.3281 294.758 46.3281C294.148 46.3281 293.552 46.1979 292.969 45.9375C292.385 45.6771 291.94 45.3203 291.633 44.8672L292.383 44C293.003 44.7656 293.76 45.1484 294.656 45.1484C295.359 45.1484 295.906 44.9505 296.297 44.5547C296.693 44.1589 296.891 43.6016 296.891 42.8828V42.1562C296.312 42.8229 295.523 43.1562 294.523 43.1562C293.534 43.1562 292.732 42.7578 292.117 41.9609C291.508 41.1641 291.203 40.0781 291.203 38.7031ZM292.656 38.8672C292.656 39.8203 292.852 40.5703 293.242 41.1172C293.633 41.6589 294.18 41.9297 294.883 41.9297C295.794 41.9297 296.464 41.5156 296.891 40.6875V36.8281C296.448 36.0208 295.784 35.6172 294.898 35.6172C294.195 35.6172 293.646 35.8906 293.25 36.4375C292.854 36.9844 292.656 37.7943 292.656 38.8672ZM304.039 43.1562C302.893 43.1562 301.961 42.7812 301.242 42.0312C300.523 41.276 300.164 40.2682 300.164 39.0078V38.7422C300.164 37.9036 300.323 37.1562 300.641 36.5C300.964 35.8385 301.411 35.3229 301.984 34.9531C302.562 34.5781 303.188 34.3906 303.859 34.3906C304.958 34.3906 305.812 34.7526 306.422 35.4766C307.031 36.2005 307.336 37.237 307.336 38.5859V39.1875H301.609C301.63 40.0208 301.872 40.6953 302.336 41.2109C302.805 41.7214 303.398 41.9766 304.117 41.9766C304.628 41.9766 305.06 41.8724 305.414 41.6641C305.768 41.4557 306.078 41.1797 306.344 40.8359L307.227 41.5234C306.518 42.612 305.456 43.1562 304.039 43.1562ZM303.859 35.5781C303.276 35.5781 302.786 35.7917 302.391 36.2188C301.995 36.6406 301.75 37.2344 301.656 38H305.891V37.8906C305.849 37.1562 305.651 36.5885 305.297 36.1875C304.943 35.7812 304.464 35.5781 303.859 35.5781Z" fill="black"/>
<rect x="60.5" y="93.5" width="391" height="36" fill="white" stroke="black"/>
<path d="M86.75 112.742H81.8203V116.773H87.5469V118H80.3203V106.625H87.4688V107.859H81.8203V111.516H86.75V112.742ZM90.5547 109.547L90.6016 110.609C91.2474 109.797 92.0911 109.391 93.1328 109.391C94.9193 109.391 95.8203 110.398 95.8359 112.414V118H94.3906V112.406C94.3854 111.797 94.2448 111.346 93.9688 111.055C93.6979 110.763 93.2734 110.617 92.6953 110.617C92.2266 110.617 91.8151 110.742 91.4609 110.992C91.1068 111.242 90.8307 111.57 90.6328 111.977V118H89.1875V109.547H90.5547ZM99.9766 107.5V109.547H101.555V110.664H99.9766V115.906C99.9766 116.245 100.047 116.5 100.188 116.672C100.328 116.839 100.568 116.922 100.906 116.922C101.073 116.922 101.302 116.891 101.594 116.828V118C101.214 118.104 100.844 118.156 100.484 118.156C99.8385 118.156 99.3516 117.961 99.0234 117.57C98.6953 117.18 98.5312 116.625 98.5312 115.906V110.664H96.9922V109.547H98.5312V107.5H99.9766ZM106.758 118.156C105.612 118.156 104.68 117.781 103.961 117.031C103.242 116.276 102.883 115.268 102.883 114.008V113.742C102.883 112.904 103.042 112.156 103.359 111.5C103.682 110.839 104.13 110.323 104.703 109.953C105.281 109.578 105.906 109.391 106.578 109.391C107.677 109.391 108.531 109.753 109.141 110.477C109.75 111.201 110.055 112.237 110.055 113.586V114.188H104.328C104.349 115.021 104.591 115.695 105.055 116.211C105.523 116.721 106.117 116.977 106.836 116.977C107.346 116.977 107.779 116.872 108.133 116.664C108.487 116.456 108.797 116.18 109.062 115.836L109.945 116.523C109.237 117.612 108.174 118.156 106.758 118.156ZM106.578 110.578C105.995 110.578 105.505 110.792 105.109 111.219C104.714 111.641 104.469 112.234 104.375 113H108.609V112.891C108.568 112.156 108.37 111.589 108.016 111.188C107.661 110.781 107.182 110.578 106.578 110.578ZM115.82 110.844C115.602 110.807 115.365 110.789 115.109 110.789C114.161 110.789 113.518 111.193 113.18 112V118H111.734V109.547H113.141L113.164 110.523C113.638 109.768 114.31 109.391 115.18 109.391C115.461 109.391 115.674 109.427 115.82 109.5V110.844ZM123.891 115.883L125.859 109.547H127.406L124.008 119.305C123.482 120.711 122.646 121.414 121.5 121.414L121.227 121.391L120.688 121.289V120.117L121.078 120.148C121.568 120.148 121.948 120.049 122.219 119.852C122.495 119.654 122.721 119.292 122.898 118.766L123.219 117.906L120.203 109.547H121.781L123.891 115.883ZM128.195 113.695C128.195 112.867 128.357 112.122 128.68 111.461C129.008 110.799 129.461 110.289 130.039 109.93C130.622 109.57 131.286 109.391 132.031 109.391C133.182 109.391 134.112 109.789 134.82 110.586C135.534 111.383 135.891 112.443 135.891 113.766V113.867C135.891 114.69 135.732 115.43 135.414 116.086C135.102 116.737 134.651 117.245 134.062 117.609C133.479 117.974 132.807 118.156 132.047 118.156C130.901 118.156 129.971 117.758 129.258 116.961C128.549 116.164 128.195 115.109 128.195 113.797V113.695ZM129.648 113.867C129.648 114.805 129.865 115.557 130.297 116.125C130.734 116.693 131.318 116.977 132.047 116.977C132.781 116.977 133.365 116.69 133.797 116.117C134.229 115.539 134.445 114.732 134.445 113.695C134.445 112.768 134.224 112.018 133.781 111.445C133.344 110.867 132.76 110.578 132.031 110.578C131.318 110.578 130.742 110.862 130.305 111.43C129.867 111.997 129.648 112.81 129.648 113.867ZM142.922 117.164C142.359 117.826 141.534 118.156 140.445 118.156C139.544 118.156 138.857 117.896 138.383 117.375C137.914 116.849 137.677 116.073 137.672 115.047V109.547H139.117V115.008C139.117 116.289 139.638 116.93 140.68 116.93C141.784 116.93 142.518 116.518 142.883 115.695V109.547H144.328V118H142.953L142.922 117.164ZM150.617 110.844C150.398 110.807 150.161 110.789 149.906 110.789C148.958 110.789 148.315 111.193 147.977 112V118H146.531V109.547H147.938L147.961 110.523C148.435 109.768 149.107 109.391 149.977 109.391C150.258 109.391 150.471 109.427 150.617 109.5V110.844ZM155.57 113.703C155.57 112.375 155.875 111.326 156.484 110.555C157.094 109.779 157.911 109.391 158.938 109.391C159.938 109.391 160.727 109.727 161.305 110.398L161.367 109.547H162.695V121.25H161.25V117.219C160.667 117.844 159.891 118.156 158.922 118.156C157.901 118.156 157.086 117.76 156.477 116.969C155.872 116.172 155.57 115.117 155.57 113.805V113.703ZM157.016 113.867C157.016 114.836 157.219 115.596 157.625 116.148C158.036 116.701 158.589 116.977 159.281 116.977C160.141 116.977 160.797 116.596 161.25 115.836V111.695C160.792 110.951 160.141 110.578 159.297 110.578C158.599 110.578 158.044 110.857 157.633 111.414C157.221 111.966 157.016 112.784 157.016 113.867ZM170.234 117.164C169.672 117.826 168.846 118.156 167.758 118.156C166.857 118.156 166.169 117.896 165.695 117.375C165.227 116.849 164.99 116.073 164.984 115.047V109.547H166.43V115.008C166.43 116.289 166.951 116.93 167.992 116.93C169.096 116.93 169.831 116.518 170.195 115.695V109.547H171.641V118H170.266L170.234 117.164ZM177.352 118.156C176.206 118.156 175.273 117.781 174.555 117.031C173.836 116.276 173.477 115.268 173.477 114.008V113.742C173.477 112.904 173.635 112.156 173.953 111.5C174.276 110.839 174.724 110.323 175.297 109.953C175.875 109.578 176.5 109.391 177.172 109.391C178.271 109.391 179.125 109.753 179.734 110.477C180.344 111.201 180.648 112.237 180.648 113.586V114.188H174.922C174.943 115.021 175.185 115.695 175.648 116.211C176.117 116.721 176.711 116.977 177.43 116.977C177.94 116.977 178.372 116.872 178.727 116.664C179.081 116.456 179.391 116.18 179.656 115.836L180.539 116.523C179.831 117.612 178.768 118.156 177.352 118.156ZM177.172 110.578C176.589 110.578 176.099 110.792 175.703 111.219C175.307 111.641 175.062 112.234 174.969 113H179.203V112.891C179.161 112.156 178.964 111.589 178.609 111.188C178.255 110.781 177.776 110.578 177.172 110.578ZM187.25 115.758C187.25 115.367 187.102 115.065 186.805 114.852C186.513 114.633 186 114.445 185.266 114.289C184.536 114.133 183.956 113.945 183.523 113.727C183.096 113.508 182.779 113.247 182.57 112.945C182.367 112.643 182.266 112.284 182.266 111.867C182.266 111.174 182.557 110.589 183.141 110.109C183.729 109.63 184.479 109.391 185.391 109.391C186.349 109.391 187.125 109.638 187.719 110.133C188.318 110.628 188.617 111.26 188.617 112.031H187.164C187.164 111.635 186.995 111.294 186.656 111.008C186.323 110.721 185.901 110.578 185.391 110.578C184.865 110.578 184.453 110.693 184.156 110.922C183.859 111.151 183.711 111.451 183.711 111.82C183.711 112.169 183.849 112.432 184.125 112.609C184.401 112.786 184.898 112.956 185.617 113.117C186.341 113.279 186.927 113.471 187.375 113.695C187.823 113.919 188.154 114.19 188.367 114.508C188.586 114.82 188.695 115.203 188.695 115.656C188.695 116.411 188.393 117.018 187.789 117.477C187.185 117.93 186.401 118.156 185.438 118.156C184.76 118.156 184.161 118.036 183.641 117.797C183.12 117.557 182.711 117.224 182.414 116.797C182.122 116.365 181.977 115.898 181.977 115.398H183.422C183.448 115.883 183.641 116.268 184 116.555C184.365 116.836 184.844 116.977 185.438 116.977C185.984 116.977 186.422 116.867 186.75 116.648C187.083 116.424 187.25 116.128 187.25 115.758ZM192.539 107.5V109.547H194.117V110.664H192.539V115.906C192.539 116.245 192.609 116.5 192.75 116.672C192.891 116.839 193.13 116.922 193.469 116.922C193.635 116.922 193.865 116.891 194.156 116.828V118C193.776 118.104 193.406 118.156 193.047 118.156C192.401 118.156 191.914 117.961 191.586 117.57C191.258 117.18 191.094 116.625 191.094 115.906V110.664H189.555V109.547H191.094V107.5H192.539ZM197.383 118H195.938V109.547H197.383V118ZM195.82 107.305C195.82 107.07 195.891 106.872 196.031 106.711C196.177 106.549 196.391 106.469 196.672 106.469C196.953 106.469 197.167 106.549 197.312 106.711C197.458 106.872 197.531 107.07 197.531 107.305C197.531 107.539 197.458 107.734 197.312 107.891C197.167 108.047 196.953 108.125 196.672 108.125C196.391 108.125 196.177 108.047 196.031 107.891C195.891 107.734 195.82 107.539 195.82 107.305ZM199.32 113.695C199.32 112.867 199.482 112.122 199.805 111.461C200.133 110.799 200.586 110.289 201.164 109.93C201.747 109.57 202.411 109.391 203.156 109.391C204.307 109.391 205.237 109.789 205.945 110.586C206.659 111.383 207.016 112.443 207.016 113.766V113.867C207.016 114.69 206.857 115.43 206.539 116.086C206.227 116.737 205.776 117.245 205.188 117.609C204.604 117.974 203.932 118.156 203.172 118.156C202.026 118.156 201.096 117.758 200.383 116.961C199.674 116.164 199.32 115.109 199.32 113.797V113.695ZM200.773 113.867C200.773 114.805 200.99 115.557 201.422 116.125C201.859 116.693 202.443 116.977 203.172 116.977C203.906 116.977 204.49 116.69 204.922 116.117C205.354 115.539 205.57 114.732 205.57 113.695C205.57 112.768 205.349 112.018 204.906 111.445C204.469 110.867 203.885 110.578 203.156 110.578C202.443 110.578 201.867 110.862 201.43 111.43C200.992 111.997 200.773 112.81 200.773 113.867ZM210.195 109.547L210.242 110.609C210.888 109.797 211.732 109.391 212.773 109.391C214.56 109.391 215.461 110.398 215.477 112.414V118H214.031V112.406C214.026 111.797 213.885 111.346 213.609 111.055C213.339 110.763 212.914 110.617 212.336 110.617C211.867 110.617 211.456 110.742 211.102 110.992C210.747 111.242 210.471 111.57 210.273 111.977V118H208.828V109.547H210.195Z" fill="black"/>
<rect x="60.5" y="168.5" width="391" height="36" fill="white" stroke="black"/>
<path d="M86.75 187.742H81.8203V191.773H87.5469V193H80.3203V181.625H87.4688V182.859H81.8203V186.516H86.75V187.742ZM90.5547 184.547L90.6016 185.609C91.2474 184.797 92.0911 184.391 93.1328 184.391C94.9193 184.391 95.8203 185.398 95.8359 187.414V193H94.3906V187.406C94.3854 186.797 94.2448 186.346 93.9688 186.055C93.6979 185.763 93.2734 185.617 92.6953 185.617C92.2266 185.617 91.8151 185.742 91.4609 185.992C91.1068 186.242 90.8307 186.57 90.6328 186.977V193H89.1875V184.547H90.5547ZM99.9766 182.5V184.547H101.555V185.664H99.9766V190.906C99.9766 191.245 100.047 191.5 100.188 191.672C100.328 191.839 100.568 191.922 100.906 191.922C101.073 191.922 101.302 191.891 101.594 191.828V193C101.214 193.104 100.844 193.156 100.484 193.156C99.8385 193.156 99.3516 192.961 99.0234 192.57C98.6953 192.18 98.5312 191.625 98.5312 190.906V185.664H96.9922V184.547H98.5312V182.5H99.9766ZM106.758 193.156C105.612 193.156 104.68 192.781 103.961 192.031C103.242 191.276 102.883 190.268 102.883 189.008V188.742C102.883 187.904 103.042 187.156 103.359 186.5C103.682 185.839 104.13 185.323 104.703 184.953C105.281 184.578 105.906 184.391 106.578 184.391C107.677 184.391 108.531 184.753 109.141 185.477C109.75 186.201 110.055 187.237 110.055 188.586V189.188H104.328C104.349 190.021 104.591 190.695 105.055 191.211C105.523 191.721 106.117 191.977 106.836 191.977C107.346 191.977 107.779 191.872 108.133 191.664C108.487 191.456 108.797 191.18 109.062 190.836L109.945 191.523C109.237 192.612 108.174 193.156 106.758 193.156ZM106.578 185.578C105.995 185.578 105.505 185.792 105.109 186.219C104.714 186.641 104.469 187.234 104.375 188H108.609V187.891C108.568 187.156 108.37 186.589 108.016 186.188C107.661 185.781 107.182 185.578 106.578 185.578ZM115.82 185.844C115.602 185.807 115.365 185.789 115.109 185.789C114.161 185.789 113.518 186.193 113.18 187V193H111.734V184.547H113.141L113.164 185.523C113.638 184.768 114.31 184.391 115.18 184.391C115.461 184.391 115.674 184.427 115.82 184.5V185.844ZM126.344 193C126.26 192.833 126.193 192.536 126.141 192.109C125.469 192.807 124.667 193.156 123.734 193.156C122.901 193.156 122.216 192.922 121.68 192.453C121.148 191.979 120.883 191.38 120.883 190.656C120.883 189.776 121.216 189.094 121.883 188.609C122.555 188.12 123.497 187.875 124.711 187.875H126.117V187.211C126.117 186.706 125.966 186.305 125.664 186.008C125.362 185.706 124.917 185.555 124.328 185.555C123.812 185.555 123.38 185.685 123.031 185.945C122.682 186.206 122.508 186.521 122.508 186.891H121.055C121.055 186.469 121.203 186.062 121.5 185.672C121.802 185.276 122.208 184.964 122.719 184.734C123.234 184.505 123.799 184.391 124.414 184.391C125.388 184.391 126.151 184.635 126.703 185.125C127.255 185.609 127.542 186.279 127.562 187.133V191.023C127.562 191.799 127.661 192.417 127.859 192.875V193H126.344ZM123.945 191.898C124.398 191.898 124.828 191.781 125.234 191.547C125.641 191.312 125.935 191.008 126.117 190.633V188.898H124.984C123.214 188.898 122.328 189.417 122.328 190.453C122.328 190.906 122.479 191.26 122.781 191.516C123.083 191.771 123.471 191.898 123.945 191.898ZM137.188 191.977C137.703 191.977 138.154 191.82 138.539 191.508C138.924 191.195 139.138 190.805 139.18 190.336H140.547C140.521 190.82 140.354 191.281 140.047 191.719C139.74 192.156 139.328 192.505 138.812 192.766C138.302 193.026 137.76 193.156 137.188 193.156C136.036 193.156 135.12 192.773 134.438 192.008C133.76 191.237 133.422 190.185 133.422 188.852V188.609C133.422 187.786 133.573 187.055 133.875 186.414C134.177 185.773 134.609 185.276 135.172 184.922C135.74 184.568 136.409 184.391 137.18 184.391C138.128 184.391 138.914 184.674 139.539 185.242C140.169 185.81 140.505 186.547 140.547 187.453H139.18C139.138 186.906 138.93 186.458 138.555 186.109C138.185 185.755 137.727 185.578 137.18 185.578C136.445 185.578 135.875 185.844 135.469 186.375C135.068 186.901 134.867 187.664 134.867 188.664V188.938C134.867 189.911 135.068 190.661 135.469 191.188C135.87 191.714 136.443 191.977 137.188 191.977ZM143.617 185.57C144.258 184.784 145.091 184.391 146.117 184.391C147.904 184.391 148.805 185.398 148.82 187.414V193H147.375V187.406C147.37 186.797 147.229 186.346 146.953 186.055C146.682 185.763 146.258 185.617 145.68 185.617C145.211 185.617 144.799 185.742 144.445 185.992C144.091 186.242 143.815 186.57 143.617 186.977V193H142.172V181H143.617V185.57ZM150.602 188.695C150.602 187.867 150.763 187.122 151.086 186.461C151.414 185.799 151.867 185.289 152.445 184.93C153.029 184.57 153.693 184.391 154.438 184.391C155.589 184.391 156.518 184.789 157.227 185.586C157.94 186.383 158.297 187.443 158.297 188.766V188.867C158.297 189.69 158.138 190.43 157.82 191.086C157.508 191.737 157.057 192.245 156.469 192.609C155.885 192.974 155.214 193.156 154.453 193.156C153.307 193.156 152.378 192.758 151.664 191.961C150.956 191.164 150.602 190.109 150.602 188.797V188.695ZM152.055 188.867C152.055 189.805 152.271 190.557 152.703 191.125C153.141 191.693 153.724 191.977 154.453 191.977C155.188 191.977 155.771 191.69 156.203 191.117C156.635 190.539 156.852 189.732 156.852 188.695C156.852 187.768 156.63 187.018 156.188 186.445C155.75 185.867 155.167 185.578 154.438 185.578C153.724 185.578 153.148 185.862 152.711 186.43C152.273 186.997 152.055 187.81 152.055 188.867ZM161.68 193H160.234V184.547H161.68V193ZM160.117 182.305C160.117 182.07 160.188 181.872 160.328 181.711C160.474 181.549 160.688 181.469 160.969 181.469C161.25 181.469 161.464 181.549 161.609 181.711C161.755 181.872 161.828 182.07 161.828 182.305C161.828 182.539 161.755 182.734 161.609 182.891C161.464 183.047 161.25 183.125 160.969 183.125C160.688 183.125 160.474 183.047 160.328 182.891C160.188 182.734 160.117 182.539 160.117 182.305ZM167.391 191.977C167.906 191.977 168.357 191.82 168.742 191.508C169.128 191.195 169.341 190.805 169.383 190.336H170.75C170.724 190.82 170.557 191.281 170.25 191.719C169.943 192.156 169.531 192.505 169.016 192.766C168.505 193.026 167.964 193.156 167.391 193.156C166.24 193.156 165.323 192.773 164.641 192.008C163.964 191.237 163.625 190.185 163.625 188.852V188.609C163.625 187.786 163.776 187.055 164.078 186.414C164.38 185.773 164.812 185.276 165.375 184.922C165.943 184.568 166.612 184.391 167.383 184.391C168.331 184.391 169.117 184.674 169.742 185.242C170.372 185.81 170.708 186.547 170.75 187.453H169.383C169.341 186.906 169.133 186.458 168.758 186.109C168.388 185.755 167.93 185.578 167.383 185.578C166.648 185.578 166.078 185.844 165.672 186.375C165.271 186.901 165.07 187.664 165.07 188.664V188.938C165.07 189.911 165.271 190.661 165.672 191.188C166.073 191.714 166.646 191.977 167.391 191.977ZM175.883 193.156C174.737 193.156 173.805 192.781 173.086 192.031C172.367 191.276 172.008 190.268 172.008 189.008V188.742C172.008 187.904 172.167 187.156 172.484 186.5C172.807 185.839 173.255 185.323 173.828 184.953C174.406 184.578 175.031 184.391 175.703 184.391C176.802 184.391 177.656 184.753 178.266 185.477C178.875 186.201 179.18 187.237 179.18 188.586V189.188H173.453C173.474 190.021 173.716 190.695 174.18 191.211C174.648 191.721 175.242 191.977 175.961 191.977C176.471 191.977 176.904 191.872 177.258 191.664C177.612 191.456 177.922 191.18 178.188 190.836L179.07 191.523C178.362 192.612 177.299 193.156 175.883 193.156ZM175.703 185.578C175.12 185.578 174.63 185.792 174.234 186.219C173.839 186.641 173.594 187.234 173.5 188H177.734V187.891C177.693 187.156 177.495 186.589 177.141 186.188C176.786 185.781 176.307 185.578 175.703 185.578Z" fill="black"/>
<rect x="165" y="259" width="183" height="37" fill="#C4C4C4"/>
<path d="M210.474 280.402H206.304L205.367 283H204.014L207.814 273.047H208.963L212.771 283H211.424L210.474 280.402ZM206.7 279.322H210.084L208.389 274.667L206.7 279.322ZM213.604 279.24C213.604 278.105 213.873 277.194 214.411 276.506C214.949 275.813 215.653 275.467 216.523 275.467C217.389 275.467 218.075 275.763 218.581 276.355V272.5H219.846V283H218.684L218.622 282.207C218.116 282.827 217.412 283.137 216.51 283.137C215.653 283.137 214.953 282.786 214.411 282.084C213.873 281.382 213.604 280.466 213.604 279.336V279.24ZM214.869 279.384C214.869 280.222 215.042 280.879 215.389 281.353C215.735 281.826 216.214 282.063 216.824 282.063C217.626 282.063 218.212 281.703 218.581 280.983V277.586C218.203 276.889 217.622 276.54 216.838 276.54C216.218 276.54 215.735 276.779 215.389 277.258C215.042 277.736 214.869 278.445 214.869 279.384ZM221.507 279.24C221.507 278.105 221.776 277.194 222.313 276.506C222.851 275.813 223.555 275.467 224.426 275.467C225.292 275.467 225.978 275.763 226.483 276.355V272.5H227.748V283H226.586L226.524 282.207C226.019 282.827 225.314 283.137 224.412 283.137C223.555 283.137 222.856 282.786 222.313 282.084C221.776 281.382 221.507 280.466 221.507 279.336V279.24ZM222.771 279.384C222.771 280.222 222.945 280.879 223.291 281.353C223.637 281.826 224.116 282.063 224.727 282.063C225.529 282.063 226.114 281.703 226.483 280.983V277.586C226.105 276.889 225.524 276.54 224.74 276.54C224.12 276.54 223.637 276.779 223.291 277.258C222.945 277.736 222.771 278.445 222.771 279.384ZM234.379 275.604L234.413 276.424C234.955 275.786 235.687 275.467 236.607 275.467C237.642 275.467 238.346 275.863 238.72 276.656C238.966 276.301 239.285 276.014 239.677 275.795C240.073 275.576 240.54 275.467 241.078 275.467C242.701 275.467 243.525 276.326 243.553 278.044V283H242.288V278.119C242.288 277.59 242.167 277.196 241.926 276.937C241.684 276.672 241.279 276.54 240.709 276.54C240.24 276.54 239.85 276.681 239.54 276.964C239.23 277.242 239.05 277.618 239 278.092V283H237.729V278.153C237.729 277.078 237.202 276.54 236.149 276.54C235.32 276.54 234.753 276.893 234.447 277.6V283H233.183V275.604H234.379ZM245.132 279.233C245.132 278.509 245.273 277.857 245.556 277.278C245.843 276.7 246.239 276.253 246.745 275.938C247.256 275.624 247.837 275.467 248.488 275.467C249.495 275.467 250.309 275.815 250.929 276.513C251.553 277.21 251.865 278.137 251.865 279.295V279.384C251.865 280.104 251.726 280.751 251.448 281.325C251.175 281.895 250.781 282.339 250.266 282.658C249.755 282.977 249.167 283.137 248.502 283.137C247.499 283.137 246.686 282.788 246.062 282.091C245.442 281.394 245.132 280.471 245.132 279.322V279.233ZM246.403 279.384C246.403 280.204 246.592 280.863 246.971 281.359C247.354 281.856 247.864 282.104 248.502 282.104C249.145 282.104 249.655 281.854 250.033 281.353C250.411 280.847 250.601 280.14 250.601 279.233C250.601 278.422 250.407 277.766 250.02 277.265C249.637 276.759 249.126 276.506 248.488 276.506C247.864 276.506 247.36 276.754 246.978 277.251C246.595 277.748 246.403 278.459 246.403 279.384ZM257.026 276.738C256.835 276.706 256.628 276.69 256.404 276.69C255.575 276.69 255.012 277.044 254.716 277.75V283H253.451V275.604H254.682L254.702 276.458C255.117 275.797 255.705 275.467 256.466 275.467C256.712 275.467 256.899 275.499 257.026 275.562V276.738ZM261.128 283.137C260.125 283.137 259.31 282.809 258.681 282.152C258.052 281.492 257.737 280.61 257.737 279.507V279.274C257.737 278.541 257.876 277.887 258.154 277.312C258.437 276.734 258.829 276.283 259.33 275.959C259.836 275.631 260.383 275.467 260.971 275.467C261.932 275.467 262.68 275.784 263.213 276.417C263.746 277.05 264.013 277.957 264.013 279.138V279.664H259.002C259.02 280.393 259.232 280.983 259.638 281.435C260.048 281.881 260.567 282.104 261.196 282.104C261.643 282.104 262.021 282.013 262.331 281.831C262.641 281.649 262.912 281.407 263.145 281.106L263.917 281.708C263.297 282.66 262.368 283.137 261.128 283.137ZM260.971 276.506C260.46 276.506 260.032 276.693 259.686 277.066C259.339 277.436 259.125 277.955 259.043 278.625H262.748V278.529C262.712 277.887 262.538 277.39 262.229 277.039C261.919 276.684 261.499 276.506 260.971 276.506ZM271.922 282.104C272.373 282.104 272.767 281.968 273.104 281.694C273.442 281.421 273.629 281.079 273.665 280.669H274.861C274.839 281.093 274.693 281.496 274.424 281.879C274.155 282.262 273.795 282.567 273.344 282.795C272.897 283.023 272.423 283.137 271.922 283.137C270.915 283.137 270.113 282.802 269.516 282.132C268.923 281.457 268.627 280.537 268.627 279.37V279.158C268.627 278.438 268.759 277.798 269.023 277.237C269.288 276.677 269.666 276.242 270.158 275.932C270.655 275.622 271.241 275.467 271.915 275.467C272.744 275.467 273.433 275.715 273.979 276.212C274.531 276.709 274.825 277.354 274.861 278.146H273.665C273.629 277.668 273.446 277.276 273.118 276.971C272.795 276.661 272.394 276.506 271.915 276.506C271.272 276.506 270.773 276.738 270.418 277.203C270.067 277.663 269.892 278.331 269.892 279.206V279.445C269.892 280.298 270.067 280.954 270.418 281.414C270.769 281.874 271.27 282.104 271.922 282.104ZM277.548 276.499C278.108 275.811 278.838 275.467 279.735 275.467C281.299 275.467 282.087 276.349 282.101 278.112V283H280.836V278.105C280.831 277.572 280.708 277.178 280.467 276.923C280.23 276.668 279.858 276.54 279.353 276.54C278.942 276.54 278.582 276.649 278.272 276.868C277.963 277.087 277.721 277.374 277.548 277.729V283H276.283V272.5H277.548V276.499ZM283.659 279.233C283.659 278.509 283.8 277.857 284.083 277.278C284.37 276.7 284.767 276.253 285.272 275.938C285.783 275.624 286.364 275.467 287.016 275.467C288.023 275.467 288.836 275.815 289.456 276.513C290.08 277.21 290.393 278.137 290.393 279.295V279.384C290.393 280.104 290.254 280.751 289.976 281.325C289.702 281.895 289.308 282.339 288.793 282.658C288.283 282.977 287.695 283.137 287.029 283.137C286.027 283.137 285.213 282.788 284.589 282.091C283.969 281.394 283.659 280.471 283.659 279.322V279.233ZM284.931 279.384C284.931 280.204 285.12 280.863 285.498 281.359C285.881 281.856 286.391 282.104 287.029 282.104C287.672 282.104 288.182 281.854 288.561 281.353C288.939 280.847 289.128 280.14 289.128 279.233C289.128 278.422 288.934 277.766 288.547 277.265C288.164 276.759 287.654 276.506 287.016 276.506C286.391 276.506 285.888 276.754 285.505 277.251C285.122 277.748 284.931 278.459 284.931 279.384ZM293.353 283H292.088V275.604H293.353V283ZM291.985 273.642C291.985 273.437 292.047 273.263 292.17 273.122C292.298 272.981 292.484 272.91 292.73 272.91C292.977 272.91 293.163 272.981 293.291 273.122C293.419 273.263 293.482 273.437 293.482 273.642C293.482 273.847 293.419 274.018 293.291 274.154C293.163 274.291 292.977 274.359 292.73 274.359C292.484 274.359 292.298 274.291 292.17 274.154C292.047 274.018 291.985 273.847 291.985 273.642ZM298.35 282.104C298.801 282.104 299.195 281.968 299.532 281.694C299.869 281.421 300.056 281.079 300.093 280.669H301.289C301.266 281.093 301.12 281.496 300.852 281.879C300.583 282.262 300.223 282.567 299.771 282.795C299.325 283.023 298.851 283.137 298.35 283.137C297.342 283.137 296.54 282.802 295.943 282.132C295.351 281.457 295.055 280.537 295.055 279.37V279.158C295.055 278.438 295.187 277.798 295.451 277.237C295.715 276.677 296.094 276.242 296.586 275.932C297.083 275.622 297.668 275.467 298.343 275.467C299.172 275.467 299.86 275.715 300.407 276.212C300.959 276.709 301.253 277.354 301.289 278.146H300.093C300.056 277.668 299.874 277.276 299.546 276.971C299.222 276.661 298.821 276.506 298.343 276.506C297.7 276.506 297.201 276.738 296.846 277.203C296.495 277.663 296.319 278.331 296.319 279.206V279.445C296.319 280.298 296.495 280.954 296.846 281.414C297.197 281.874 297.698 282.104 298.35 282.104ZM305.78 283.137C304.778 283.137 303.962 282.809 303.333 282.152C302.704 281.492 302.39 280.61 302.39 279.507V279.274C302.39 278.541 302.529 277.887 302.807 277.312C303.089 276.734 303.481 276.283 303.982 275.959C304.488 275.631 305.035 275.467 305.623 275.467C306.585 275.467 307.332 275.784 307.865 276.417C308.398 277.05 308.665 277.957 308.665 279.138V279.664H303.654C303.673 280.393 303.884 280.983 304.29 281.435C304.7 281.881 305.22 282.104 305.849 282.104C306.295 282.104 306.674 282.013 306.983 281.831C307.293 281.649 307.564 281.407 307.797 281.106L308.569 281.708C307.95 282.66 307.02 283.137 305.78 283.137ZM305.623 276.506C305.113 276.506 304.684 276.693 304.338 277.066C303.992 277.436 303.777 277.955 303.695 278.625H307.4V278.529C307.364 277.887 307.191 277.39 306.881 277.039C306.571 276.684 306.152 276.506 305.623 276.506Z" fill="black"/>
</svg>
