<svg width="512" height="229" viewBox="0 0 512 229" fill="none" xmlns="http://www.w3.org/2000/svg">
<rect width="512" height="229" fill="white"/>
<path d="M219.492 38.3984H216.82V43H215.312V31.625H219.078C220.359 31.625 221.344 31.9167 222.031 32.5C222.724 33.0833 223.07 33.9323 223.07 35.0469C223.07 35.7552 222.878 36.3724 222.492 36.8984C222.112 37.4245 221.581 37.8177 220.898 38.0781L223.57 42.9062V43H221.961L219.492 38.3984ZM216.82 37.1719H219.125C219.87 37.1719 220.461 36.9792 220.898 36.5938C221.341 36.2083 221.562 35.6927 221.562 35.0469C221.562 34.3438 221.352 33.8047 220.93 33.4297C220.513 33.0547 219.909 32.8646 219.117 32.8594H216.82V37.1719ZM228.461 43.1562C227.315 43.1562 226.383 42.7812 225.664 42.0312C224.945 41.276 224.586 40.2682 224.586 39.0078V38.7422C224.586 37.9036 224.745 37.1562 225.062 36.5C225.385 35.8385 225.833 35.3229 226.406 34.9531C226.984 34.5781 227.609 34.3906 228.281 34.3906C229.38 34.3906 230.234 34.7526 230.844 35.4766C231.453 36.2005 231.758 37.237 231.758 38.5859V39.1875H226.031C226.052 40.0208 226.294 40.6953 226.758 41.2109C227.227 41.7214 227.82 41.9766 228.539 41.9766C229.049 41.9766 229.482 41.8724 229.836 41.6641C230.19 41.4557 230.5 41.1797 230.766 40.8359L231.648 41.5234C230.94 42.612 229.878 43.1562 228.461 43.1562ZM228.281 35.5781C227.698 35.5781 227.208 35.7917 226.812 36.2188C226.417 36.6406 226.172 37.2344 226.078 38H230.312V37.8906C230.271 37.1562 230.073 36.5885 229.719 36.1875C229.365 35.7812 228.885 35.5781 228.281 35.5781ZM238.359 40.7578C238.359 40.3672 238.211 40.0651 237.914 39.8516C237.622 39.6328 237.109 39.4453 236.375 39.2891C235.646 39.1328 235.065 38.9453 234.633 38.7266C234.206 38.5078 233.888 38.2474 233.68 37.9453C233.477 37.6432 233.375 37.2839 233.375 36.8672C233.375 36.1745 233.667 35.5885 234.25 35.1094C234.839 34.6302 235.589 34.3906 236.5 34.3906C237.458 34.3906 238.234 34.638 238.828 35.1328C239.427 35.6276 239.727 36.2604 239.727 37.0312H238.273C238.273 36.6354 238.104 36.2943 237.766 36.0078C237.432 35.7214 237.01 35.5781 236.5 35.5781C235.974 35.5781 235.562 35.6927 235.266 35.9219C234.969 36.151 234.82 36.4505 234.82 36.8203C234.82 37.1693 234.958 37.4323 235.234 37.6094C235.51 37.7865 236.008 37.9557 236.727 38.1172C237.451 38.2786 238.036 38.4714 238.484 38.6953C238.932 38.9193 239.263 39.1901 239.477 39.5078C239.695 39.8203 239.805 40.2031 239.805 40.6562C239.805 41.4115 239.503 42.0182 238.898 42.4766C238.294 42.9297 237.51 43.1562 236.547 43.1562C235.87 43.1562 235.271 43.0365 234.75 42.7969C234.229 42.5573 233.82 42.224 233.523 41.7969C233.232 41.3646 233.086 40.8984 233.086 40.3984H234.531C234.557 40.8828 234.75 41.2682 235.109 41.5547C235.474 41.8359 235.953 41.9766 236.547 41.9766C237.094 41.9766 237.531 41.8672 237.859 41.6484C238.193 41.4245 238.359 41.1276 238.359 40.7578ZM246.906 42.1641C246.344 42.8255 245.518 43.1562 244.43 43.1562C243.529 43.1562 242.841 42.8958 242.367 42.375C241.898 41.849 241.661 41.0729 241.656 40.0469V34.5469H243.102V40.0078C243.102 41.2891 243.622 41.9297 244.664 41.9297C245.768 41.9297 246.503 41.5182 246.867 40.6953V34.5469H248.312V43H246.938L246.906 42.1641ZM252.086 43H250.641V31H252.086V43ZM256.367 32.5V34.5469H257.945V35.6641H256.367V40.9062C256.367 41.2448 256.438 41.5 256.578 41.6719C256.719 41.8385 256.958 41.9219 257.297 41.9219C257.464 41.9219 257.693 41.8906 257.984 41.8281V43C257.604 43.1042 257.234 43.1562 256.875 43.1562C256.229 43.1562 255.742 42.9609 255.414 42.5703C255.086 42.1797 254.922 41.625 254.922 40.9062V35.6641H253.383V34.5469H254.922V32.5H256.367ZM265.336 38.5469V43H263.836V31.625H268.031C269.276 31.625 270.25 31.9427 270.953 32.5781C271.661 33.2135 272.016 34.0547 272.016 35.1016C272.016 36.2057 271.669 37.0573 270.977 37.6562C270.289 38.25 269.302 38.5469 268.016 38.5469H265.336ZM265.336 37.3203H268.031C268.833 37.3203 269.448 37.1328 269.875 36.7578C270.302 36.3776 270.516 35.8307 270.516 35.1172C270.516 34.4401 270.302 33.8984 269.875 33.4922C269.448 33.0859 268.862 32.875 268.117 32.8594H265.336V37.3203ZM278.828 43C278.745 42.8333 278.677 42.5365 278.625 42.1094C277.953 42.8073 277.151 43.1562 276.219 43.1562C275.385 43.1562 274.701 42.9219 274.164 42.4531C273.633 41.9792 273.367 41.3802 273.367 40.6562C273.367 39.776 273.701 39.0938 274.367 38.6094C275.039 38.1198 275.982 37.875 277.195 37.875H278.602V37.2109C278.602 36.7057 278.451 36.3047 278.148 36.0078C277.846 35.7057 277.401 35.5547 276.812 35.5547C276.297 35.5547 275.865 35.6849 275.516 35.9453C275.167 36.2057 274.992 36.5208 274.992 36.8906H273.539C273.539 36.4688 273.688 36.0625 273.984 35.6719C274.286 35.276 274.693 34.9635 275.203 34.7344C275.719 34.5052 276.284 34.3906 276.898 34.3906C277.872 34.3906 278.635 34.6354 279.188 35.125C279.74 35.6094 280.026 36.2786 280.047 37.1328V41.0234C280.047 41.7995 280.146 42.4167 280.344 42.875V43H278.828ZM276.43 41.8984C276.883 41.8984 277.312 41.7812 277.719 41.5469C278.125 41.3125 278.419 41.0078 278.602 40.6328V38.8984H277.469C275.698 38.8984 274.812 39.4167 274.812 40.4531C274.812 40.9062 274.964 41.2604 275.266 41.5156C275.568 41.7708 275.956 41.8984 276.43 41.8984ZM281.969 38.7031C281.969 37.3854 282.273 36.3385 282.883 35.5625C283.492 34.7812 284.299 34.3906 285.305 34.3906C286.336 34.3906 287.141 34.7552 287.719 35.4844L287.789 34.5469H289.109V42.7969C289.109 43.8906 288.784 44.7526 288.133 45.3828C287.487 46.013 286.617 46.3281 285.523 46.3281C284.914 46.3281 284.318 46.1979 283.734 45.9375C283.151 45.6771 282.706 45.3203 282.398 44.8672L283.148 44C283.768 44.7656 284.526 45.1484 285.422 45.1484C286.125 45.1484 286.672 44.9505 287.062 44.5547C287.458 44.1589 287.656 43.6016 287.656 42.8828V42.1562C287.078 42.8229 286.289 43.1562 285.289 43.1562C284.299 43.1562 283.497 42.7578 282.883 41.9609C282.273 41.1641 281.969 40.0781 281.969 38.7031ZM283.422 38.8672C283.422 39.8203 283.617 40.5703 284.008 41.1172C284.398 41.6589 284.945 41.9297 285.648 41.9297C286.56 41.9297 287.229 41.5156 287.656 40.6875V36.8281C287.214 36.0208 286.549 35.6172 285.664 35.6172C284.961 35.6172 284.411 35.8906 284.016 36.4375C283.62 36.9844 283.422 37.7943 283.422 38.8672ZM294.805 43.1562C293.659 43.1562 292.727 42.7812 292.008 42.0312C291.289 41.276 290.93 40.2682 290.93 39.0078V38.7422C290.93 37.9036 291.089 37.1562 291.406 36.5C291.729 35.8385 292.177 35.3229 292.75 34.9531C293.328 34.5781 293.953 34.3906 294.625 34.3906C295.724 34.3906 296.578 34.7526 297.188 35.4766C297.797 36.2005 298.102 37.237 298.102 38.5859V39.1875H292.375C292.396 40.0208 292.638 40.6953 293.102 41.2109C293.57 41.7214 294.164 41.9766 294.883 41.9766C295.393 41.9766 295.826 41.8724 296.18 41.6641C296.534 41.4557 296.844 41.1797 297.109 40.8359L297.992 41.5234C297.284 42.612 296.221 43.1562 294.805 43.1562ZM294.625 35.5781C294.042 35.5781 293.552 35.7917 293.156 36.2188C292.76 36.6406 292.516 37.2344 292.422 38H296.656V37.8906C296.615 37.1562 296.417 36.5885 296.062 36.1875C295.708 35.7812 295.229 35.5781 294.625 35.5781Z" fill="black"/>
<path d="M39.875 88.7188L41.4062 80.625H43.7422L41.2188 92H38.8594L37.0078 84.3906L35.1562 92H32.7969L30.2734 80.625H32.6094L34.1484 88.7031L36.0234 80.625H38.0078L39.875 88.7188ZM47.0703 84.4688C47.6693 83.75 48.4219 83.3906 49.3281 83.3906C51.1615 83.3906 52.0911 84.4557 52.1172 86.5859V92H49.8594V86.6484C49.8594 86.1641 49.7552 85.8073 49.5469 85.5781C49.3385 85.3438 48.9922 85.2266 48.5078 85.2266C47.8464 85.2266 47.3672 85.4818 47.0703 85.9922V92H44.8125V80H47.0703V84.4688ZM56.2031 92H53.9375V83.5469H56.2031V92ZM53.8047 81.3594C53.8047 81.0208 53.9167 80.7422 54.1406 80.5234C54.3698 80.3047 54.6797 80.1953 55.0703 80.1953C55.4557 80.1953 55.763 80.3047 55.9922 80.5234C56.2214 80.7422 56.3359 81.0208 56.3359 81.3594C56.3359 81.7031 56.2188 81.9844 55.9844 82.2031C55.7552 82.4219 55.4505 82.5312 55.0703 82.5312C54.6901 82.5312 54.3828 82.4219 54.1484 82.2031C53.9193 81.9844 53.8047 81.7031 53.8047 81.3594ZM61.5859 90.3359C62.0026 90.3359 62.3411 90.2214 62.6016 89.9922C62.862 89.763 62.9974 89.4583 63.0078 89.0781H65.125C65.1198 89.651 64.9635 90.1771 64.6562 90.6562C64.349 91.1302 63.9271 91.5 63.3906 91.7656C62.8594 92.026 62.2708 92.1562 61.625 92.1562C60.4167 92.1562 59.4635 91.7734 58.7656 91.0078C58.0677 90.237 57.7188 89.1745 57.7188 87.8203V87.6719C57.7188 86.3698 58.0651 85.3307 58.7578 84.5547C59.4505 83.7786 60.401 83.3906 61.6094 83.3906C62.6667 83.3906 63.513 83.6927 64.1484 84.2969C64.7891 84.8958 65.1146 85.6953 65.125 86.6953H63.0078C62.9974 86.2578 62.862 85.9036 62.6016 85.6328C62.3411 85.3568 61.9974 85.2188 61.5703 85.2188C61.0443 85.2188 60.6458 85.4115 60.375 85.7969C60.1094 86.1771 59.9766 86.7969 59.9766 87.6562V87.8906C59.9766 88.7604 60.1094 89.3854 60.375 89.7656C60.6406 90.1458 61.0443 90.3359 61.5859 90.3359ZM68.6172 84.4688C69.2161 83.75 69.9688 83.3906 70.875 83.3906C72.7083 83.3906 73.638 84.4557 73.6641 86.5859V92H71.4062V86.6484C71.4062 86.1641 71.3021 85.8073 71.0938 85.5781C70.8854 85.3438 70.5391 85.2266 70.0547 85.2266C69.3932 85.2266 68.9141 85.4818 68.6172 85.9922V92H66.3594V80H68.6172V84.4688ZM82.8672 90.3359C83.2839 90.3359 83.6224 90.2214 83.8828 89.9922C84.1432 89.763 84.2786 89.4583 84.2891 89.0781H86.4062C86.401 89.651 86.2448 90.1771 85.9375 90.6562C85.6302 91.1302 85.2083 91.5 84.6719 91.7656C84.1406 92.026 83.5521 92.1562 82.9062 92.1562C81.6979 92.1562 80.7448 91.7734 80.0469 91.0078C79.349 90.237 79 89.1745 79 87.8203V87.6719C79 86.3698 79.3464 85.3307 80.0391 84.5547C80.7318 83.7786 81.6823 83.3906 82.8906 83.3906C83.9479 83.3906 84.7943 83.6927 85.4297 84.2969C86.0703 84.8958 86.3958 85.6953 86.4062 86.6953H84.2891C84.2786 86.2578 84.1432 85.9036 83.8828 85.6328C83.6224 85.3568 83.2786 85.2188 82.8516 85.2188C82.3255 85.2188 81.9271 85.4115 81.6562 85.7969C81.3906 86.1771 81.2578 86.7969 81.2578 87.6562V87.8906C81.2578 88.7604 81.3906 89.3854 81.6562 89.7656C81.9219 90.1458 82.3255 90.3359 82.8672 90.3359ZM89.8984 84.4688C90.4974 83.75 91.25 83.3906 92.1562 83.3906C93.9896 83.3906 94.9193 84.4557 94.9453 86.5859V92H92.6875V86.6484C92.6875 86.1641 92.5833 85.8073 92.375 85.5781C92.1667 85.3438 91.8203 85.2266 91.3359 85.2266C90.6745 85.2266 90.1953 85.4818 89.8984 85.9922V92H87.6406V80H89.8984V84.4688ZM96.2969 87.6953C96.2969 86.8568 96.4583 86.1094 96.7812 85.4531C97.1042 84.7969 97.5677 84.2891 98.1719 83.9297C98.7812 83.5703 99.487 83.3906 100.289 83.3906C101.43 83.3906 102.359 83.7396 103.078 84.4375C103.802 85.1354 104.206 86.0833 104.289 87.2812L104.305 87.8594C104.305 89.1562 103.943 90.1979 103.219 90.9844C102.495 91.7656 101.523 92.1562 100.305 92.1562C99.0859 92.1562 98.112 91.7656 97.3828 90.9844C96.6589 90.2031 96.2969 89.1406 96.2969 87.7969V87.6953ZM98.5547 87.8594C98.5547 88.6615 98.7057 89.276 99.0078 89.7031C99.3099 90.125 99.7422 90.3359 100.305 90.3359C100.852 90.3359 101.279 90.1276 101.586 89.7109C101.893 89.2891 102.047 88.6172 102.047 87.6953C102.047 86.9089 101.893 86.2995 101.586 85.8672C101.279 85.4349 100.846 85.2188 100.289 85.2188C99.737 85.2188 99.3099 85.4349 99.0078 85.8672C98.7057 86.2943 98.5547 86.9583 98.5547 87.8594ZM108.078 92H105.812V83.5469H108.078V92ZM105.68 81.3594C105.68 81.0208 105.792 80.7422 106.016 80.5234C106.245 80.3047 106.555 80.1953 106.945 80.1953C107.331 80.1953 107.638 80.3047 107.867 80.5234C108.096 80.7422 108.211 81.0208 108.211 81.3594C108.211 81.7031 108.094 81.9844 107.859 82.2031C107.63 82.4219 107.326 82.5312 106.945 82.5312C106.565 82.5312 106.258 82.4219 106.023 82.2031C105.794 81.9844 105.68 81.7031 105.68 81.3594ZM113.461 90.3359C113.878 90.3359 114.216 90.2214 114.477 89.9922C114.737 89.763 114.872 89.4583 114.883 89.0781H117C116.995 89.651 116.839 90.1771 116.531 90.6562C116.224 91.1302 115.802 91.5 115.266 91.7656C114.734 92.026 114.146 92.1562 113.5 92.1562C112.292 92.1562 111.339 91.7734 110.641 91.0078C109.943 90.237 109.594 89.1745 109.594 87.8203V87.6719C109.594 86.3698 109.94 85.3307 110.633 84.5547C111.326 83.7786 112.276 83.3906 113.484 83.3906C114.542 83.3906 115.388 83.6927 116.023 84.2969C116.664 84.8958 116.99 85.6953 117 86.6953H114.883C114.872 86.2578 114.737 85.9036 114.477 85.6328C114.216 85.3568 113.872 85.2188 113.445 85.2188C112.919 85.2188 112.521 85.4115 112.25 85.7969C111.984 86.1771 111.852 86.7969 111.852 87.6562V87.8906C111.852 88.7604 111.984 89.3854 112.25 89.7656C112.516 90.1458 112.919 90.3359 113.461 90.3359ZM122.18 92.1562C120.94 92.1562 119.93 91.776 119.148 91.0156C118.372 90.2552 117.984 89.2422 117.984 87.9766V87.7578C117.984 86.9089 118.148 86.151 118.477 85.4844C118.805 84.8125 119.268 84.2969 119.867 83.9375C120.471 83.5729 121.159 83.3906 121.93 83.3906C123.086 83.3906 123.995 83.7552 124.656 84.4844C125.323 85.2135 125.656 86.2474 125.656 87.5859V88.5078H120.273C120.346 89.0599 120.565 89.5026 120.93 89.8359C121.299 90.1693 121.766 90.3359 122.328 90.3359C123.198 90.3359 123.878 90.0208 124.367 89.3906L125.477 90.6328C125.138 91.112 124.68 91.487 124.102 91.7578C123.523 92.0234 122.883 92.1562 122.18 92.1562ZM121.922 85.2188C121.474 85.2188 121.109 85.3698 120.828 85.6719C120.552 85.974 120.375 86.4062 120.297 86.9688H123.438V86.7891C123.427 86.2891 123.292 85.9036 123.031 85.6328C122.771 85.3568 122.401 85.2188 121.922 85.2188ZM130.578 87.7109C130.578 86.3932 130.872 85.3438 131.461 84.5625C132.055 83.7812 132.865 83.3906 133.891 83.3906C134.714 83.3906 135.393 83.6979 135.93 84.3125V80H138.195V92H136.156L136.047 91.1016C135.484 91.8047 134.76 92.1562 133.875 92.1562C132.88 92.1562 132.081 91.7656 131.477 90.9844C130.878 90.1979 130.578 89.1068 130.578 87.7109ZM132.836 87.875C132.836 88.6667 132.974 89.2734 133.25 89.6953C133.526 90.1172 133.927 90.3281 134.453 90.3281C135.151 90.3281 135.643 90.0339 135.93 89.4453V86.1094C135.648 85.5208 135.161 85.2266 134.469 85.2266C133.38 85.2266 132.836 86.1094 132.836 87.875ZM139.594 87.6953C139.594 86.8568 139.755 86.1094 140.078 85.4531C140.401 84.7969 140.865 84.2891 141.469 83.9297C142.078 83.5703 142.784 83.3906 143.586 83.3906C144.727 83.3906 145.656 83.7396 146.375 84.4375C147.099 85.1354 147.503 86.0833 147.586 87.2812L147.602 87.8594C147.602 89.1562 147.24 90.1979 146.516 90.9844C145.792 91.7656 144.82 92.1562 143.602 92.1562C142.383 92.1562 141.409 91.7656 140.68 90.9844C139.956 90.2031 139.594 89.1406 139.594 87.7969V87.6953ZM141.852 87.8594C141.852 88.6615 142.003 89.276 142.305 89.7031C142.607 90.125 143.039 90.3359 143.602 90.3359C144.148 90.3359 144.576 90.1276 144.883 89.7109C145.19 89.2891 145.344 88.6172 145.344 87.6953C145.344 86.9089 145.19 86.2995 144.883 85.8672C144.576 85.4349 144.143 85.2188 143.586 85.2188C143.034 85.2188 142.607 85.4349 142.305 85.8672C142.003 86.2943 141.852 86.9583 141.852 87.8594ZM156.133 88.8047L157.695 83.5469H160.117L156.719 93.3125L156.531 93.7578C156.026 94.862 155.193 95.4141 154.031 95.4141C153.703 95.4141 153.37 95.3646 153.031 95.2656V93.5547L153.375 93.5625C153.802 93.5625 154.12 93.4974 154.328 93.3672C154.542 93.237 154.708 93.0208 154.828 92.7188L155.094 92.0234L152.133 83.5469H154.562L156.133 88.8047ZM160.531 87.6953C160.531 86.8568 160.693 86.1094 161.016 85.4531C161.339 84.7969 161.802 84.2891 162.406 83.9297C163.016 83.5703 163.721 83.3906 164.523 83.3906C165.664 83.3906 166.594 83.7396 167.312 84.4375C168.036 85.1354 168.44 86.0833 168.523 87.2812L168.539 87.8594C168.539 89.1562 168.177 90.1979 167.453 90.9844C166.729 91.7656 165.758 92.1562 164.539 92.1562C163.32 92.1562 162.346 91.7656 161.617 90.9844C160.893 90.2031 160.531 89.1406 160.531 87.7969V87.6953ZM162.789 87.8594C162.789 88.6615 162.94 89.276 163.242 89.7031C163.544 90.125 163.977 90.3359 164.539 90.3359C165.086 90.3359 165.513 90.1276 165.82 89.7109C166.128 89.2891 166.281 88.6172 166.281 87.6953C166.281 86.9089 166.128 86.2995 165.82 85.8672C165.513 85.4349 165.081 85.2188 164.523 85.2188C163.971 85.2188 163.544 85.4349 163.242 85.8672C162.94 86.2943 162.789 86.9583 162.789 87.8594ZM174.992 91.1406C174.435 91.8177 173.664 92.1562 172.68 92.1562C171.773 92.1562 171.081 91.8958 170.602 91.375C170.128 90.8542 169.885 90.0911 169.875 89.0859V83.5469H172.133V89.0078C172.133 89.888 172.534 90.3281 173.336 90.3281C174.102 90.3281 174.628 90.0625 174.914 89.5312V83.5469H177.18V92H175.055L174.992 91.1406ZM190.477 87.8516C190.477 89.1536 190.18 90.1979 189.586 90.9844C188.997 91.7656 188.201 92.1562 187.195 92.1562C186.341 92.1562 185.651 91.8594 185.125 91.2656V95.25H182.867V83.5469H184.961L185.039 84.375C185.586 83.7188 186.299 83.3906 187.18 83.3906C188.221 83.3906 189.031 83.776 189.609 84.5469C190.188 85.3177 190.477 86.3802 190.477 87.7344V87.8516ZM188.219 87.6875C188.219 86.901 188.078 86.2943 187.797 85.8672C187.521 85.4401 187.117 85.2266 186.586 85.2266C185.878 85.2266 185.391 85.4974 185.125 86.0391V89.5C185.401 90.0573 185.893 90.3359 186.602 90.3359C187.68 90.3359 188.219 89.4531 188.219 87.6875ZM196.633 85.6641C196.326 85.6224 196.055 85.6016 195.82 85.6016C194.966 85.6016 194.406 85.8906 194.141 86.4688V92H191.883V83.5469H194.016L194.078 84.5547C194.531 83.7786 195.159 83.3906 195.961 83.3906C196.211 83.3906 196.445 83.4245 196.664 83.4922L196.633 85.6641ZM201.461 92.1562C200.221 92.1562 199.211 91.776 198.43 91.0156C197.654 90.2552 197.266 89.2422 197.266 87.9766V87.7578C197.266 86.9089 197.43 86.151 197.758 85.4844C198.086 84.8125 198.549 84.2969 199.148 83.9375C199.753 83.5729 200.44 83.3906 201.211 83.3906C202.367 83.3906 203.276 83.7552 203.938 84.4844C204.604 85.2135 204.938 86.2474 204.938 87.5859V88.5078H199.555C199.628 89.0599 199.846 89.5026 200.211 89.8359C200.581 90.1693 201.047 90.3359 201.609 90.3359C202.479 90.3359 203.159 90.0208 203.648 89.3906L204.758 90.6328C204.419 91.112 203.961 91.487 203.383 91.7578C202.805 92.0234 202.164 92.1562 201.461 92.1562ZM201.203 85.2188C200.755 85.2188 200.391 85.3698 200.109 85.6719C199.833 85.974 199.656 86.4062 199.578 86.9688H202.719V86.7891C202.708 86.2891 202.573 85.9036 202.312 85.6328C202.052 85.3568 201.682 85.2188 201.203 85.2188ZM206.844 92V85.2031H205.586V83.5469H206.844V82.8281C206.844 81.8802 207.115 81.1458 207.656 80.625C208.203 80.099 208.966 79.8359 209.945 79.8359C210.258 79.8359 210.641 79.888 211.094 79.9922L211.07 81.7422C210.883 81.6953 210.654 81.6719 210.383 81.6719C209.534 81.6719 209.109 82.0703 209.109 82.8672V83.5469H210.789V85.2031H209.109V92H206.844ZM215.664 92.1562C214.424 92.1562 213.414 91.776 212.633 91.0156C211.857 90.2552 211.469 89.2422 211.469 87.9766V87.7578C211.469 86.9089 211.633 86.151 211.961 85.4844C212.289 84.8125 212.753 84.2969 213.352 83.9375C213.956 83.5729 214.643 83.3906 215.414 83.3906C216.57 83.3906 217.479 83.7552 218.141 84.4844C218.807 85.2135 219.141 86.2474 219.141 87.5859V88.5078H213.758C213.831 89.0599 214.049 89.5026 214.414 89.8359C214.784 90.1693 215.25 90.3359 215.812 90.3359C216.682 90.3359 217.362 90.0208 217.852 89.3906L218.961 90.6328C218.622 91.112 218.164 91.487 217.586 91.7578C217.008 92.0234 216.367 92.1562 215.664 92.1562ZM215.406 85.2188C214.958 85.2188 214.594 85.3698 214.312 85.6719C214.036 85.974 213.859 86.4062 213.781 86.9688H216.922V86.7891C216.911 86.2891 216.776 85.9036 216.516 85.6328C216.255 85.3568 215.885 85.2188 215.406 85.2188ZM225.18 85.6641C224.872 85.6224 224.602 85.6016 224.367 85.6016C223.513 85.6016 222.953 85.8906 222.688 86.4688V92H220.43V83.5469H222.562L222.625 84.5547C223.078 83.7786 223.706 83.3906 224.508 83.3906C224.758 83.3906 224.992 83.4245 225.211 83.4922L225.18 85.6641ZM228.117 88.5078C228.117 87.7786 228.206 87.1979 228.383 86.7656C228.56 86.3333 228.883 85.9089 229.352 85.4922C229.826 85.0703 230.141 84.7292 230.297 84.4688C230.453 84.2031 230.531 83.9245 230.531 83.6328C230.531 82.7526 230.125 82.3125 229.312 82.3125C228.927 82.3125 228.617 82.4323 228.383 82.6719C228.154 82.9062 228.034 83.2318 228.023 83.6484H225.758C225.768 82.6536 226.089 81.875 226.719 81.3125C227.354 80.75 228.219 80.4688 229.312 80.4688C230.417 80.4688 231.273 80.737 231.883 81.2734C232.492 81.8047 232.797 82.5573 232.797 83.5312C232.797 83.974 232.698 84.3932 232.5 84.7891C232.302 85.1797 231.956 85.6146 231.461 86.0938L230.828 86.6953C230.432 87.0755 230.206 87.5208 230.148 88.0312L230.117 88.5078H228.117ZM227.891 90.9062C227.891 90.5573 228.008 90.2708 228.242 90.0469C228.482 89.8177 228.786 89.7031 229.156 89.7031C229.526 89.7031 229.828 89.8177 230.062 90.0469C230.302 90.2708 230.422 90.5573 230.422 90.9062C230.422 91.25 230.305 91.5339 230.07 91.7578C229.841 91.9818 229.536 92.0938 229.156 92.0938C228.776 92.0938 228.469 91.9818 228.234 91.7578C228.005 91.5339 227.891 91.25 227.891 90.9062Z" fill="black"/>
<path d="M39.6875 115.391C39.5469 116.594 39.1016 117.523 38.3516 118.18C37.6068 118.831 36.6146 119.156 35.375 119.156C34.0312 119.156 32.9531 118.674 32.1406 117.711C31.3333 116.747 30.9297 115.458 30.9297 113.844V112.75C30.9297 111.693 31.1172 110.763 31.4922 109.961C31.8724 109.159 32.4089 108.544 33.1016 108.117C33.7943 107.685 34.5964 107.469 35.5078 107.469C36.7161 107.469 37.6849 107.807 38.4141 108.484C39.1432 109.156 39.5677 110.089 39.6875 111.281H38.1797C38.0495 110.375 37.7656 109.719 37.3281 109.312C36.8958 108.906 36.2891 108.703 35.5078 108.703C34.5495 108.703 33.7969 109.057 33.25 109.766C32.7083 110.474 32.4375 111.482 32.4375 112.789V113.891C32.4375 115.125 32.6953 116.107 33.2109 116.836C33.7266 117.565 34.4479 117.93 35.375 117.93C36.2083 117.93 36.8464 117.742 37.2891 117.367C37.737 116.987 38.0339 116.328 38.1797 115.391H39.6875ZM42.9609 111.57C43.6016 110.784 44.4349 110.391 45.4609 110.391C47.2474 110.391 48.1484 111.398 48.1641 113.414V119H46.7188V113.406C46.7135 112.797 46.5729 112.346 46.2969 112.055C46.026 111.763 45.6016 111.617 45.0234 111.617C44.5547 111.617 44.1432 111.742 43.7891 111.992C43.4349 112.242 43.1589 112.57 42.9609 112.977V119H41.5156V107H42.9609V111.57ZM49.9453 114.695C49.9453 113.867 50.1068 113.122 50.4297 112.461C50.7578 111.799 51.2109 111.289 51.7891 110.93C52.3724 110.57 53.0365 110.391 53.7812 110.391C54.9323 110.391 55.862 110.789 56.5703 111.586C57.2839 112.383 57.6406 113.443 57.6406 114.766V114.867C57.6406 115.69 57.4818 116.43 57.1641 117.086C56.8516 117.737 56.401 118.245 55.8125 118.609C55.2292 118.974 54.5573 119.156 53.7969 119.156C52.651 119.156 51.7214 118.758 51.0078 117.961C50.2995 117.164 49.9453 116.109 49.9453 114.797V114.695ZM51.3984 114.867C51.3984 115.805 51.6146 116.557 52.0469 117.125C52.4844 117.693 53.0677 117.977 53.7969 117.977C54.5312 117.977 55.1146 117.69 55.5469 117.117C55.9792 116.539 56.1953 115.732 56.1953 114.695C56.1953 113.768 55.974 113.018 55.5312 112.445C55.0938 111.867 54.5104 111.578 53.7812 111.578C53.0677 111.578 52.4922 111.862 52.0547 112.43C51.6172 112.997 51.3984 113.81 51.3984 114.867ZM61.0234 119H59.5781V110.547H61.0234V119ZM59.4609 108.305C59.4609 108.07 59.5312 107.872 59.6719 107.711C59.8177 107.549 60.0312 107.469 60.3125 107.469C60.5938 107.469 60.8073 107.549 60.9531 107.711C61.099 107.872 61.1719 108.07 61.1719 108.305C61.1719 108.539 61.099 108.734 60.9531 108.891C60.8073 109.047 60.5938 109.125 60.3125 109.125C60.0312 109.125 59.8177 109.047 59.6719 108.891C59.5312 108.734 59.4609 108.539 59.4609 108.305ZM66.7344 117.977C67.25 117.977 67.7005 117.82 68.0859 117.508C68.4714 117.195 68.6849 116.805 68.7266 116.336H70.0938C70.0677 116.82 69.901 117.281 69.5938 117.719C69.2865 118.156 68.875 118.505 68.3594 118.766C67.849 119.026 67.3073 119.156 66.7344 119.156C65.5833 119.156 64.6667 118.773 63.9844 118.008C63.3073 117.237 62.9688 116.185 62.9688 114.852V114.609C62.9688 113.786 63.1198 113.055 63.4219 112.414C63.724 111.773 64.1562 111.276 64.7188 110.922C65.2865 110.568 65.9557 110.391 66.7266 110.391C67.6745 110.391 68.4609 110.674 69.0859 111.242C69.7161 111.81 70.0521 112.547 70.0938 113.453H68.7266C68.6849 112.906 68.4766 112.458 68.1016 112.109C67.7318 111.755 67.2734 111.578 66.7266 111.578C65.9922 111.578 65.4219 111.844 65.0156 112.375C64.6146 112.901 64.4141 113.664 64.4141 114.664V114.938C64.4141 115.911 64.6146 116.661 65.0156 117.188C65.4167 117.714 65.9896 117.977 66.7344 117.977ZM75.2266 119.156C74.0807 119.156 73.1484 118.781 72.4297 118.031C71.7109 117.276 71.3516 116.268 71.3516 115.008V114.742C71.3516 113.904 71.5104 113.156 71.8281 112.5C72.151 111.839 72.599 111.323 73.1719 110.953C73.75 110.578 74.375 110.391 75.0469 110.391C76.1458 110.391 77 110.753 77.6094 111.477C78.2188 112.201 78.5234 113.237 78.5234 114.586V115.188H72.7969C72.8177 116.021 73.0599 116.695 73.5234 117.211C73.9922 117.721 74.5859 117.977 75.3047 117.977C75.8151 117.977 76.2474 117.872 76.6016 117.664C76.9557 117.456 77.2656 117.18 77.5312 116.836L78.4141 117.523C77.7057 118.612 76.6432 119.156 75.2266 119.156ZM75.0469 111.578C74.4635 111.578 73.974 111.792 73.5781 112.219C73.1823 112.641 72.9375 113.234 72.8438 114H77.0781V113.891C77.0365 113.156 76.8385 112.589 76.4844 112.188C76.1302 111.781 75.651 111.578 75.0469 111.578ZM90.6797 116.031H85.9141L84.8438 119H83.2969L87.6406 107.625H88.9531L93.3047 119H91.7656L90.6797 116.031ZM86.3672 114.797H90.2344L88.2969 109.477L86.3672 114.797ZM98.5234 114.383C98.5234 113.206 98.6797 112.076 98.9922 110.992C99.3099 109.909 99.7812 108.924 100.406 108.039C101.031 107.154 101.68 106.529 102.352 106.164L102.648 107.117C101.888 107.701 101.263 108.591 100.773 109.789C100.289 110.987 100.023 112.328 99.9766 113.812L99.9688 114.477C99.9688 116.487 100.336 118.232 101.07 119.711C101.513 120.596 102.039 121.289 102.648 121.789L102.352 122.672C101.659 122.286 100.997 121.641 100.367 120.734C99.138 118.964 98.5234 116.846 98.5234 114.383ZM109.438 114C109.135 114.359 108.773 114.648 108.352 114.867C107.935 115.086 107.477 115.195 106.977 115.195C106.32 115.195 105.747 115.034 105.258 114.711C104.773 114.388 104.398 113.935 104.133 113.352C103.867 112.763 103.734 112.115 103.734 111.406C103.734 110.646 103.878 109.961 104.164 109.352C104.456 108.742 104.867 108.276 105.398 107.953C105.93 107.63 106.549 107.469 107.258 107.469C108.383 107.469 109.268 107.891 109.914 108.734C110.565 109.573 110.891 110.719 110.891 112.172V112.594C110.891 114.807 110.453 116.424 109.578 117.445C108.703 118.461 107.383 118.982 105.617 119.008H105.336V117.789H105.641C106.833 117.768 107.75 117.458 108.391 116.859C109.031 116.255 109.38 115.302 109.438 114ZM107.211 114C107.695 114 108.141 113.852 108.547 113.555C108.958 113.258 109.258 112.891 109.445 112.453V111.875C109.445 110.927 109.24 110.156 108.828 109.562C108.417 108.969 107.896 108.672 107.266 108.672C106.63 108.672 106.12 108.917 105.734 109.406C105.349 109.891 105.156 110.531 105.156 111.328C105.156 112.104 105.341 112.745 105.711 113.25C106.086 113.75 106.586 114 107.211 114ZM118.422 114C118.12 114.359 117.758 114.648 117.336 114.867C116.919 115.086 116.461 115.195 115.961 115.195C115.305 115.195 114.732 115.034 114.242 114.711C113.758 114.388 113.383 113.935 113.117 113.352C112.852 112.763 112.719 112.115 112.719 111.406C112.719 110.646 112.862 109.961 113.148 109.352C113.44 108.742 113.852 108.276 114.383 107.953C114.914 107.63 115.534 107.469 116.242 107.469C117.367 107.469 118.253 107.891 118.898 108.734C119.549 109.573 119.875 110.719 119.875 112.172V112.594C119.875 114.807 119.438 116.424 118.562 117.445C117.688 118.461 116.367 118.982 114.602 119.008H114.32V117.789H114.625C115.818 117.768 116.734 117.458 117.375 116.859C118.016 116.255 118.365 115.302 118.422 114ZM116.195 114C116.68 114 117.125 113.852 117.531 113.555C117.943 113.258 118.242 112.891 118.43 112.453V111.875C118.43 110.927 118.224 110.156 117.812 109.562C117.401 108.969 116.88 108.672 116.25 108.672C115.615 108.672 115.104 108.917 114.719 109.406C114.333 109.891 114.141 110.531 114.141 111.328C114.141 112.104 114.326 112.745 114.695 113.25C115.07 113.75 115.57 114 116.195 114ZM127.406 114C127.104 114.359 126.742 114.648 126.32 114.867C125.904 115.086 125.445 115.195 124.945 115.195C124.289 115.195 123.716 115.034 123.227 114.711C122.742 114.388 122.367 113.935 122.102 113.352C121.836 112.763 121.703 112.115 121.703 111.406C121.703 110.646 121.846 109.961 122.133 109.352C122.424 108.742 122.836 108.276 123.367 107.953C123.898 107.63 124.518 107.469 125.227 107.469C126.352 107.469 127.237 107.891 127.883 108.734C128.534 109.573 128.859 110.719 128.859 112.172V112.594C128.859 114.807 128.422 116.424 127.547 117.445C126.672 118.461 125.352 118.982 123.586 119.008H123.305V117.789H123.609C124.802 117.768 125.719 117.458 126.359 116.859C127 116.255 127.349 115.302 127.406 114ZM125.18 114C125.664 114 126.109 113.852 126.516 113.555C126.927 113.258 127.227 112.891 127.414 112.453V111.875C127.414 110.927 127.208 110.156 126.797 109.562C126.385 108.969 125.865 108.672 125.234 108.672C124.599 108.672 124.089 108.917 123.703 109.406C123.318 109.891 123.125 110.531 123.125 111.328C123.125 112.104 123.31 112.745 123.68 113.25C124.055 113.75 124.555 114 125.18 114ZM137.758 117.039L139.852 110.547H141.328L138.297 119H137.195L134.133 110.547H135.609L137.758 117.039ZM142.211 114.695C142.211 113.867 142.372 113.122 142.695 112.461C143.023 111.799 143.477 111.289 144.055 110.93C144.638 110.57 145.302 110.391 146.047 110.391C147.198 110.391 148.128 110.789 148.836 111.586C149.549 112.383 149.906 113.443 149.906 114.766V114.867C149.906 115.69 149.747 116.43 149.43 117.086C149.117 117.737 148.667 118.245 148.078 118.609C147.495 118.974 146.823 119.156 146.062 119.156C144.917 119.156 143.987 118.758 143.273 117.961C142.565 117.164 142.211 116.109 142.211 114.797V114.695ZM143.664 114.867C143.664 115.805 143.88 116.557 144.312 117.125C144.75 117.693 145.333 117.977 146.062 117.977C146.797 117.977 147.38 117.69 147.812 117.117C148.245 116.539 148.461 115.732 148.461 114.695C148.461 113.768 148.24 113.018 147.797 112.445C147.359 111.867 146.776 111.578 146.047 111.578C145.333 111.578 144.758 111.862 144.32 112.43C143.883 112.997 143.664 113.81 143.664 114.867ZM153.68 108.5V110.547H155.258V111.664H153.68V116.906C153.68 117.245 153.75 117.5 153.891 117.672C154.031 117.839 154.271 117.922 154.609 117.922C154.776 117.922 155.005 117.891 155.297 117.828V119C154.917 119.104 154.547 119.156 154.188 119.156C153.542 119.156 153.055 118.961 152.727 118.57C152.398 118.18 152.234 117.625 152.234 116.906V111.664H150.695V110.547H152.234V108.5H153.68ZM160.461 119.156C159.315 119.156 158.383 118.781 157.664 118.031C156.945 117.276 156.586 116.268 156.586 115.008V114.742C156.586 113.904 156.745 113.156 157.062 112.5C157.385 111.839 157.833 111.323 158.406 110.953C158.984 110.578 159.609 110.391 160.281 110.391C161.38 110.391 162.234 110.753 162.844 111.477C163.453 112.201 163.758 113.237 163.758 114.586V115.188H158.031C158.052 116.021 158.294 116.695 158.758 117.211C159.227 117.721 159.82 117.977 160.539 117.977C161.049 117.977 161.482 117.872 161.836 117.664C162.19 117.456 162.5 117.18 162.766 116.836L163.648 117.523C162.94 118.612 161.878 119.156 160.461 119.156ZM160.281 111.578C159.698 111.578 159.208 111.792 158.812 112.219C158.417 112.641 158.172 113.234 158.078 114H162.312V113.891C162.271 113.156 162.073 112.589 161.719 112.188C161.365 111.781 160.885 111.578 160.281 111.578ZM170.359 116.758C170.359 116.367 170.211 116.065 169.914 115.852C169.622 115.633 169.109 115.445 168.375 115.289C167.646 115.133 167.065 114.945 166.633 114.727C166.206 114.508 165.888 114.247 165.68 113.945C165.477 113.643 165.375 113.284 165.375 112.867C165.375 112.174 165.667 111.589 166.25 111.109C166.839 110.63 167.589 110.391 168.5 110.391C169.458 110.391 170.234 110.638 170.828 111.133C171.427 111.628 171.727 112.26 171.727 113.031H170.273C170.273 112.635 170.104 112.294 169.766 112.008C169.432 111.721 169.01 111.578 168.5 111.578C167.974 111.578 167.562 111.693 167.266 111.922C166.969 112.151 166.82 112.451 166.82 112.82C166.82 113.169 166.958 113.432 167.234 113.609C167.51 113.786 168.008 113.956 168.727 114.117C169.451 114.279 170.036 114.471 170.484 114.695C170.932 114.919 171.263 115.19 171.477 115.508C171.695 115.82 171.805 116.203 171.805 116.656C171.805 117.411 171.503 118.018 170.898 118.477C170.294 118.93 169.51 119.156 168.547 119.156C167.87 119.156 167.271 119.036 166.75 118.797C166.229 118.557 165.82 118.224 165.523 117.797C165.232 117.365 165.086 116.898 165.086 116.398H166.531C166.557 116.883 166.75 117.268 167.109 117.555C167.474 117.836 167.953 117.977 168.547 117.977C169.094 117.977 169.531 117.867 169.859 117.648C170.193 117.424 170.359 117.128 170.359 116.758ZM177.023 114.461C177.023 115.622 176.87 116.737 176.562 117.805C176.26 118.867 175.794 119.849 175.164 120.75C174.539 121.651 173.883 122.292 173.195 122.672L172.891 121.789C173.693 121.174 174.336 120.221 174.82 118.93C175.31 117.633 175.56 116.195 175.57 114.617V114.367C175.57 113.273 175.456 112.258 175.227 111.32C174.997 110.378 174.677 109.534 174.266 108.789C173.859 108.044 173.401 107.464 172.891 107.047L173.195 106.164C173.883 106.544 174.536 107.18 175.156 108.07C175.781 108.961 176.247 109.943 176.555 111.016C176.867 112.089 177.023 113.237 177.023 114.461Z" fill="black"/>
<path d="M39.6875 144.391C39.5469 145.594 39.1016 146.523 38.3516 147.18C37.6068 147.831 36.6146 148.156 35.375 148.156C34.0312 148.156 32.9531 147.674 32.1406 146.711C31.3333 145.747 30.9297 144.458 30.9297 142.844V141.75C30.9297 140.693 31.1172 139.763 31.4922 138.961C31.8724 138.159 32.4089 137.544 33.1016 137.117C33.7943 136.685 34.5964 136.469 35.5078 136.469C36.7161 136.469 37.6849 136.807 38.4141 137.484C39.1432 138.156 39.5677 139.089 39.6875 140.281H38.1797C38.0495 139.375 37.7656 138.719 37.3281 138.312C36.8958 137.906 36.2891 137.703 35.5078 137.703C34.5495 137.703 33.7969 138.057 33.25 138.766C32.7083 139.474 32.4375 140.482 32.4375 141.789V142.891C32.4375 144.125 32.6953 145.107 33.2109 145.836C33.7266 146.565 34.4479 146.93 35.375 146.93C36.2083 146.93 36.8464 146.742 37.2891 146.367C37.737 145.987 38.0339 145.328 38.1797 144.391H39.6875ZM42.9609 140.57C43.6016 139.784 44.4349 139.391 45.4609 139.391C47.2474 139.391 48.1484 140.398 48.1641 142.414V148H46.7188V142.406C46.7135 141.797 46.5729 141.346 46.2969 141.055C46.026 140.763 45.6016 140.617 45.0234 140.617C44.5547 140.617 44.1432 140.742 43.7891 140.992C43.4349 141.242 43.1589 141.57 42.9609 141.977V148H41.5156V136H42.9609V140.57ZM49.9453 143.695C49.9453 142.867 50.1068 142.122 50.4297 141.461C50.7578 140.799 51.2109 140.289 51.7891 139.93C52.3724 139.57 53.0365 139.391 53.7812 139.391C54.9323 139.391 55.862 139.789 56.5703 140.586C57.2839 141.383 57.6406 142.443 57.6406 143.766V143.867C57.6406 144.69 57.4818 145.43 57.1641 146.086C56.8516 146.737 56.401 147.245 55.8125 147.609C55.2292 147.974 54.5573 148.156 53.7969 148.156C52.651 148.156 51.7214 147.758 51.0078 146.961C50.2995 146.164 49.9453 145.109 49.9453 143.797V143.695ZM51.3984 143.867C51.3984 144.805 51.6146 145.557 52.0469 146.125C52.4844 146.693 53.0677 146.977 53.7969 146.977C54.5312 146.977 55.1146 146.69 55.5469 146.117C55.9792 145.539 56.1953 144.732 56.1953 143.695C56.1953 142.768 55.974 142.018 55.5312 141.445C55.0938 140.867 54.5104 140.578 53.7812 140.578C53.0677 140.578 52.4922 140.862 52.0547 141.43C51.6172 141.997 51.3984 142.81 51.3984 143.867ZM61.0234 148H59.5781V139.547H61.0234V148ZM59.4609 137.305C59.4609 137.07 59.5312 136.872 59.6719 136.711C59.8177 136.549 60.0312 136.469 60.3125 136.469C60.5938 136.469 60.8073 136.549 60.9531 136.711C61.099 136.872 61.1719 137.07 61.1719 137.305C61.1719 137.539 61.099 137.734 60.9531 137.891C60.8073 138.047 60.5938 138.125 60.3125 138.125C60.0312 138.125 59.8177 138.047 59.6719 137.891C59.5312 137.734 59.4609 137.539 59.4609 137.305ZM66.7344 146.977C67.25 146.977 67.7005 146.82 68.0859 146.508C68.4714 146.195 68.6849 145.805 68.7266 145.336H70.0938C70.0677 145.82 69.901 146.281 69.5938 146.719C69.2865 147.156 68.875 147.505 68.3594 147.766C67.849 148.026 67.3073 148.156 66.7344 148.156C65.5833 148.156 64.6667 147.773 63.9844 147.008C63.3073 146.237 62.9688 145.185 62.9688 143.852V143.609C62.9688 142.786 63.1198 142.055 63.4219 141.414C63.724 140.773 64.1562 140.276 64.7188 139.922C65.2865 139.568 65.9557 139.391 66.7266 139.391C67.6745 139.391 68.4609 139.674 69.0859 140.242C69.7161 140.81 70.0521 141.547 70.0938 142.453H68.7266C68.6849 141.906 68.4766 141.458 68.1016 141.109C67.7318 140.755 67.2734 140.578 66.7266 140.578C65.9922 140.578 65.4219 140.844 65.0156 141.375C64.6146 141.901 64.4141 142.664 64.4141 143.664V143.938C64.4141 144.911 64.6146 145.661 65.0156 146.188C65.4167 146.714 65.9896 146.977 66.7344 146.977ZM75.2266 148.156C74.0807 148.156 73.1484 147.781 72.4297 147.031C71.7109 146.276 71.3516 145.268 71.3516 144.008V143.742C71.3516 142.904 71.5104 142.156 71.8281 141.5C72.151 140.839 72.599 140.323 73.1719 139.953C73.75 139.578 74.375 139.391 75.0469 139.391C76.1458 139.391 77 139.753 77.6094 140.477C78.2188 141.201 78.5234 142.237 78.5234 143.586V144.188H72.7969C72.8177 145.021 73.0599 145.695 73.5234 146.211C73.9922 146.721 74.5859 146.977 75.3047 146.977C75.8151 146.977 76.2474 146.872 76.6016 146.664C76.9557 146.456 77.2656 146.18 77.5312 145.836L78.4141 146.523C77.7057 147.612 76.6432 148.156 75.2266 148.156ZM75.0469 140.578C74.4635 140.578 73.974 140.792 73.5781 141.219C73.1823 141.641 72.9375 142.234 72.8438 143H77.0781V142.891C77.0365 142.156 76.8385 141.589 76.4844 141.188C76.1302 140.781 75.651 140.578 75.0469 140.578ZM84.3984 148V136.625H88.1172C89.3516 136.625 90.2786 136.88 90.8984 137.391C91.5234 137.901 91.8359 138.656 91.8359 139.656C91.8359 140.188 91.6849 140.659 91.3828 141.07C91.0807 141.477 90.6693 141.792 90.1484 142.016C90.763 142.188 91.2474 142.516 91.6016 143C91.9609 143.479 92.1406 144.052 92.1406 144.719C92.1406 145.74 91.8099 146.542 91.1484 147.125C90.487 147.708 89.5521 148 88.3438 148H84.3984ZM85.8984 142.68V146.773H88.375C89.0729 146.773 89.6224 146.594 90.0234 146.234C90.4297 145.87 90.6328 145.37 90.6328 144.734C90.6328 143.365 89.888 142.68 88.3984 142.68H85.8984ZM85.8984 141.477H88.1641C88.8203 141.477 89.3438 141.312 89.7344 140.984C90.1302 140.656 90.3281 140.211 90.3281 139.648C90.3281 139.023 90.1458 138.57 89.7812 138.289C89.4167 138.003 88.862 137.859 88.1172 137.859H85.8984V141.477ZM98.0547 143.383C98.0547 142.206 98.2109 141.076 98.5234 139.992C98.8411 138.909 99.3125 137.924 99.9375 137.039C100.562 136.154 101.211 135.529 101.883 135.164L102.18 136.117C101.419 136.701 100.794 137.591 100.305 138.789C99.8203 139.987 99.5547 141.328 99.5078 142.812L99.5 143.477C99.5 145.487 99.8672 147.232 100.602 148.711C101.044 149.596 101.57 150.289 102.18 150.789L101.883 151.672C101.19 151.286 100.529 150.641 99.8984 149.734C98.6693 147.964 98.0547 145.846 98.0547 143.383ZM108.969 143C108.667 143.359 108.305 143.648 107.883 143.867C107.466 144.086 107.008 144.195 106.508 144.195C105.852 144.195 105.279 144.034 104.789 143.711C104.305 143.388 103.93 142.935 103.664 142.352C103.398 141.763 103.266 141.115 103.266 140.406C103.266 139.646 103.409 138.961 103.695 138.352C103.987 137.742 104.398 137.276 104.93 136.953C105.461 136.63 106.081 136.469 106.789 136.469C107.914 136.469 108.799 136.891 109.445 137.734C110.096 138.573 110.422 139.719 110.422 141.172V141.594C110.422 143.807 109.984 145.424 109.109 146.445C108.234 147.461 106.914 147.982 105.148 148.008H104.867V146.789H105.172C106.365 146.768 107.281 146.458 107.922 145.859C108.562 145.255 108.911 144.302 108.969 143ZM106.742 143C107.227 143 107.672 142.852 108.078 142.555C108.49 142.258 108.789 141.891 108.977 141.453V140.875C108.977 139.927 108.771 139.156 108.359 138.562C107.948 137.969 107.427 137.672 106.797 137.672C106.161 137.672 105.651 137.917 105.266 138.406C104.88 138.891 104.688 139.531 104.688 140.328C104.688 141.104 104.872 141.745 105.242 142.25C105.617 142.75 106.117 143 106.742 143ZM117.953 143C117.651 143.359 117.289 143.648 116.867 143.867C116.451 144.086 115.992 144.195 115.492 144.195C114.836 144.195 114.263 144.034 113.773 143.711C113.289 143.388 112.914 142.935 112.648 142.352C112.383 141.763 112.25 141.115 112.25 140.406C112.25 139.646 112.393 138.961 112.68 138.352C112.971 137.742 113.383 137.276 113.914 136.953C114.445 136.63 115.065 136.469 115.773 136.469C116.898 136.469 117.784 136.891 118.43 137.734C119.081 138.573 119.406 139.719 119.406 141.172V141.594C119.406 143.807 118.969 145.424 118.094 146.445C117.219 147.461 115.898 147.982 114.133 148.008H113.852V146.789H114.156C115.349 146.768 116.266 146.458 116.906 145.859C117.547 145.255 117.896 144.302 117.953 143ZM115.727 143C116.211 143 116.656 142.852 117.062 142.555C117.474 142.258 117.773 141.891 117.961 141.453V140.875C117.961 139.927 117.755 139.156 117.344 138.562C116.932 137.969 116.411 137.672 115.781 137.672C115.146 137.672 114.635 137.917 114.25 138.406C113.865 138.891 113.672 139.531 113.672 140.328C113.672 141.104 113.857 141.745 114.227 142.25C114.602 142.75 115.102 143 115.727 143ZM126.938 143C126.635 143.359 126.273 143.648 125.852 143.867C125.435 144.086 124.977 144.195 124.477 144.195C123.82 144.195 123.247 144.034 122.758 143.711C122.273 143.388 121.898 142.935 121.633 142.352C121.367 141.763 121.234 141.115 121.234 140.406C121.234 139.646 121.378 138.961 121.664 138.352C121.956 137.742 122.367 137.276 122.898 136.953C123.43 136.63 124.049 136.469 124.758 136.469C125.883 136.469 126.768 136.891 127.414 137.734C128.065 138.573 128.391 139.719 128.391 141.172V141.594C128.391 143.807 127.953 145.424 127.078 146.445C126.203 147.461 124.883 147.982 123.117 148.008H122.836V146.789H123.141C124.333 146.768 125.25 146.458 125.891 145.859C126.531 145.255 126.88 144.302 126.938 143ZM124.711 143C125.195 143 125.641 142.852 126.047 142.555C126.458 142.258 126.758 141.891 126.945 141.453V140.875C126.945 139.927 126.74 139.156 126.328 138.562C125.917 137.969 125.396 137.672 124.766 137.672C124.13 137.672 123.62 137.917 123.234 138.406C122.849 138.891 122.656 139.531 122.656 140.328C122.656 141.104 122.841 141.745 123.211 142.25C123.586 142.75 124.086 143 124.711 143ZM137.289 146.039L139.383 139.547H140.859L137.828 148H136.727L133.664 139.547H135.141L137.289 146.039ZM141.742 143.695C141.742 142.867 141.904 142.122 142.227 141.461C142.555 140.799 143.008 140.289 143.586 139.93C144.169 139.57 144.833 139.391 145.578 139.391C146.729 139.391 147.659 139.789 148.367 140.586C149.081 141.383 149.438 142.443 149.438 143.766V143.867C149.438 144.69 149.279 145.43 148.961 146.086C148.648 146.737 148.198 147.245 147.609 147.609C147.026 147.974 146.354 148.156 145.594 148.156C144.448 148.156 143.518 147.758 142.805 146.961C142.096 146.164 141.742 145.109 141.742 143.797V143.695ZM143.195 143.867C143.195 144.805 143.411 145.557 143.844 146.125C144.281 146.693 144.865 146.977 145.594 146.977C146.328 146.977 146.911 146.69 147.344 146.117C147.776 145.539 147.992 144.732 147.992 143.695C147.992 142.768 147.771 142.018 147.328 141.445C146.891 140.867 146.307 140.578 145.578 140.578C144.865 140.578 144.289 140.862 143.852 141.43C143.414 141.997 143.195 142.81 143.195 143.867ZM153.211 137.5V139.547H154.789V140.664H153.211V145.906C153.211 146.245 153.281 146.5 153.422 146.672C153.562 146.839 153.802 146.922 154.141 146.922C154.307 146.922 154.536 146.891 154.828 146.828V148C154.448 148.104 154.078 148.156 153.719 148.156C153.073 148.156 152.586 147.961 152.258 147.57C151.93 147.18 151.766 146.625 151.766 145.906V140.664H150.227V139.547H151.766V137.5H153.211ZM159.992 148.156C158.846 148.156 157.914 147.781 157.195 147.031C156.477 146.276 156.117 145.268 156.117 144.008V143.742C156.117 142.904 156.276 142.156 156.594 141.5C156.917 140.839 157.365 140.323 157.938 139.953C158.516 139.578 159.141 139.391 159.812 139.391C160.911 139.391 161.766 139.753 162.375 140.477C162.984 141.201 163.289 142.237 163.289 143.586V144.188H157.562C157.583 145.021 157.826 145.695 158.289 146.211C158.758 146.721 159.352 146.977 160.07 146.977C160.581 146.977 161.013 146.872 161.367 146.664C161.721 146.456 162.031 146.18 162.297 145.836L163.18 146.523C162.471 147.612 161.409 148.156 159.992 148.156ZM159.812 140.578C159.229 140.578 158.74 140.792 158.344 141.219C157.948 141.641 157.703 142.234 157.609 143H161.844V142.891C161.802 142.156 161.604 141.589 161.25 141.188C160.896 140.781 160.417 140.578 159.812 140.578ZM169.891 145.758C169.891 145.367 169.742 145.065 169.445 144.852C169.154 144.633 168.641 144.445 167.906 144.289C167.177 144.133 166.596 143.945 166.164 143.727C165.737 143.508 165.419 143.247 165.211 142.945C165.008 142.643 164.906 142.284 164.906 141.867C164.906 141.174 165.198 140.589 165.781 140.109C166.37 139.63 167.12 139.391 168.031 139.391C168.99 139.391 169.766 139.638 170.359 140.133C170.958 140.628 171.258 141.26 171.258 142.031H169.805C169.805 141.635 169.635 141.294 169.297 141.008C168.964 140.721 168.542 140.578 168.031 140.578C167.505 140.578 167.094 140.693 166.797 140.922C166.5 141.151 166.352 141.451 166.352 141.82C166.352 142.169 166.49 142.432 166.766 142.609C167.042 142.786 167.539 142.956 168.258 143.117C168.982 143.279 169.568 143.471 170.016 143.695C170.464 143.919 170.794 144.19 171.008 144.508C171.227 144.82 171.336 145.203 171.336 145.656C171.336 146.411 171.034 147.018 170.43 147.477C169.826 147.93 169.042 148.156 168.078 148.156C167.401 148.156 166.802 148.036 166.281 147.797C165.76 147.557 165.352 147.224 165.055 146.797C164.763 146.365 164.617 145.898 164.617 145.398H166.062C166.089 145.883 166.281 146.268 166.641 146.555C167.005 146.836 167.484 146.977 168.078 146.977C168.625 146.977 169.062 146.867 169.391 146.648C169.724 146.424 169.891 146.128 169.891 145.758ZM176.555 143.461C176.555 144.622 176.401 145.737 176.094 146.805C175.792 147.867 175.326 148.849 174.695 149.75C174.07 150.651 173.414 151.292 172.727 151.672L172.422 150.789C173.224 150.174 173.867 149.221 174.352 147.93C174.841 146.633 175.091 145.195 175.102 143.617V143.367C175.102 142.273 174.987 141.258 174.758 140.32C174.529 139.378 174.208 138.534 173.797 137.789C173.391 137.044 172.932 136.464 172.422 136.047L172.727 135.164C173.414 135.544 174.068 136.18 174.688 137.07C175.312 137.961 175.779 138.943 176.086 140.016C176.398 141.089 176.555 142.237 176.555 143.461Z" fill="black"/>
<path d="M39.6875 172.391C39.5469 173.594 39.1016 174.523 38.3516 175.18C37.6068 175.831 36.6146 176.156 35.375 176.156C34.0312 176.156 32.9531 175.674 32.1406 174.711C31.3333 173.747 30.9297 172.458 30.9297 170.844V169.75C30.9297 168.693 31.1172 167.763 31.4922 166.961C31.8724 166.159 32.4089 165.544 33.1016 165.117C33.7943 164.685 34.5964 164.469 35.5078 164.469C36.7161 164.469 37.6849 164.807 38.4141 165.484C39.1432 166.156 39.5677 167.089 39.6875 168.281H38.1797C38.0495 167.375 37.7656 166.719 37.3281 166.312C36.8958 165.906 36.2891 165.703 35.5078 165.703C34.5495 165.703 33.7969 166.057 33.25 166.766C32.7083 167.474 32.4375 168.482 32.4375 169.789V170.891C32.4375 172.125 32.6953 173.107 33.2109 173.836C33.7266 174.565 34.4479 174.93 35.375 174.93C36.2083 174.93 36.8464 174.742 37.2891 174.367C37.737 173.987 38.0339 173.328 38.1797 172.391H39.6875ZM42.9609 168.57C43.6016 167.784 44.4349 167.391 45.4609 167.391C47.2474 167.391 48.1484 168.398 48.1641 170.414V176H46.7188V170.406C46.7135 169.797 46.5729 169.346 46.2969 169.055C46.026 168.763 45.6016 168.617 45.0234 168.617C44.5547 168.617 44.1432 168.742 43.7891 168.992C43.4349 169.242 43.1589 169.57 42.9609 169.977V176H41.5156V164H42.9609V168.57ZM49.9453 171.695C49.9453 170.867 50.1068 170.122 50.4297 169.461C50.7578 168.799 51.2109 168.289 51.7891 167.93C52.3724 167.57 53.0365 167.391 53.7812 167.391C54.9323 167.391 55.862 167.789 56.5703 168.586C57.2839 169.383 57.6406 170.443 57.6406 171.766V171.867C57.6406 172.69 57.4818 173.43 57.1641 174.086C56.8516 174.737 56.401 175.245 55.8125 175.609C55.2292 175.974 54.5573 176.156 53.7969 176.156C52.651 176.156 51.7214 175.758 51.0078 174.961C50.2995 174.164 49.9453 173.109 49.9453 171.797V171.695ZM51.3984 171.867C51.3984 172.805 51.6146 173.557 52.0469 174.125C52.4844 174.693 53.0677 174.977 53.7969 174.977C54.5312 174.977 55.1146 174.69 55.5469 174.117C55.9792 173.539 56.1953 172.732 56.1953 171.695C56.1953 170.768 55.974 170.018 55.5312 169.445C55.0938 168.867 54.5104 168.578 53.7812 168.578C53.0677 168.578 52.4922 168.862 52.0547 169.43C51.6172 169.997 51.3984 170.81 51.3984 171.867ZM61.0234 176H59.5781V167.547H61.0234V176ZM59.4609 165.305C59.4609 165.07 59.5312 164.872 59.6719 164.711C59.8177 164.549 60.0312 164.469 60.3125 164.469C60.5938 164.469 60.8073 164.549 60.9531 164.711C61.099 164.872 61.1719 165.07 61.1719 165.305C61.1719 165.539 61.099 165.734 60.9531 165.891C60.8073 166.047 60.5938 166.125 60.3125 166.125C60.0312 166.125 59.8177 166.047 59.6719 165.891C59.5312 165.734 59.4609 165.539 59.4609 165.305ZM66.7344 174.977C67.25 174.977 67.7005 174.82 68.0859 174.508C68.4714 174.195 68.6849 173.805 68.7266 173.336H70.0938C70.0677 173.82 69.901 174.281 69.5938 174.719C69.2865 175.156 68.875 175.505 68.3594 175.766C67.849 176.026 67.3073 176.156 66.7344 176.156C65.5833 176.156 64.6667 175.773 63.9844 175.008C63.3073 174.237 62.9688 173.185 62.9688 171.852V171.609C62.9688 170.786 63.1198 170.055 63.4219 169.414C63.724 168.773 64.1562 168.276 64.7188 167.922C65.2865 167.568 65.9557 167.391 66.7266 167.391C67.6745 167.391 68.4609 167.674 69.0859 168.242C69.7161 168.81 70.0521 169.547 70.0938 170.453H68.7266C68.6849 169.906 68.4766 169.458 68.1016 169.109C67.7318 168.755 67.2734 168.578 66.7266 168.578C65.9922 168.578 65.4219 168.844 65.0156 169.375C64.6146 169.901 64.4141 170.664 64.4141 171.664V171.938C64.4141 172.911 64.6146 173.661 65.0156 174.188C65.4167 174.714 65.9896 174.977 66.7344 174.977ZM75.2266 176.156C74.0807 176.156 73.1484 175.781 72.4297 175.031C71.7109 174.276 71.3516 173.268 71.3516 172.008V171.742C71.3516 170.904 71.5104 170.156 71.8281 169.5C72.151 168.839 72.599 168.323 73.1719 167.953C73.75 167.578 74.375 167.391 75.0469 167.391C76.1458 167.391 77 167.753 77.6094 168.477C78.2188 169.201 78.5234 170.237 78.5234 171.586V172.188H72.7969C72.8177 173.021 73.0599 173.695 73.5234 174.211C73.9922 174.721 74.5859 174.977 75.3047 174.977C75.8151 174.977 76.2474 174.872 76.6016 174.664C76.9557 174.456 77.2656 174.18 77.5312 173.836L78.4141 174.523C77.7057 175.612 76.6432 176.156 75.2266 176.156ZM75.0469 168.578C74.4635 168.578 73.974 168.792 73.5781 169.219C73.1823 169.641 72.9375 170.234 72.8438 171H77.0781V170.891C77.0365 170.156 76.8385 169.589 76.4844 169.188C76.1302 168.781 75.651 168.578 75.0469 168.578ZM92.7656 172.391C92.625 173.594 92.1797 174.523 91.4297 175.18C90.6849 175.831 89.6927 176.156 88.4531 176.156C87.1094 176.156 86.0312 175.674 85.2188 174.711C84.4115 173.747 84.0078 172.458 84.0078 170.844V169.75C84.0078 168.693 84.1953 167.763 84.5703 166.961C84.9505 166.159 85.487 165.544 86.1797 165.117C86.8724 164.685 87.6745 164.469 88.5859 164.469C89.7943 164.469 90.763 164.807 91.4922 165.484C92.2214 166.156 92.6458 167.089 92.7656 168.281H91.2578C91.1276 167.375 90.8438 166.719 90.4062 166.312C89.974 165.906 89.3672 165.703 88.5859 165.703C87.6276 165.703 86.875 166.057 86.3281 166.766C85.7865 167.474 85.5156 168.482 85.5156 169.789V170.891C85.5156 172.125 85.7734 173.107 86.2891 173.836C86.8047 174.565 87.526 174.93 88.4531 174.93C89.2865 174.93 89.9245 174.742 90.3672 174.367C90.8151 173.987 91.112 173.328 91.2578 172.391H92.7656ZM98.5078 171.383C98.5078 170.206 98.6641 169.076 98.9766 167.992C99.2943 166.909 99.7656 165.924 100.391 165.039C101.016 164.154 101.664 163.529 102.336 163.164L102.633 164.117C101.872 164.701 101.247 165.591 100.758 166.789C100.273 167.987 100.008 169.328 99.9609 170.812L99.9531 171.477C99.9531 173.487 100.32 175.232 101.055 176.711C101.497 177.596 102.023 178.289 102.633 178.789L102.336 179.672C101.643 179.286 100.982 178.641 100.352 177.734C99.1224 175.964 98.5078 173.846 98.5078 171.383ZM109.422 171C109.12 171.359 108.758 171.648 108.336 171.867C107.919 172.086 107.461 172.195 106.961 172.195C106.305 172.195 105.732 172.034 105.242 171.711C104.758 171.388 104.383 170.935 104.117 170.352C103.852 169.763 103.719 169.115 103.719 168.406C103.719 167.646 103.862 166.961 104.148 166.352C104.44 165.742 104.852 165.276 105.383 164.953C105.914 164.63 106.534 164.469 107.242 164.469C108.367 164.469 109.253 164.891 109.898 165.734C110.549 166.573 110.875 167.719 110.875 169.172V169.594C110.875 171.807 110.438 173.424 109.562 174.445C108.688 175.461 107.367 175.982 105.602 176.008H105.32V174.789H105.625C106.818 174.768 107.734 174.458 108.375 173.859C109.016 173.255 109.365 172.302 109.422 171ZM107.195 171C107.68 171 108.125 170.852 108.531 170.555C108.943 170.258 109.242 169.891 109.43 169.453V168.875C109.43 167.927 109.224 167.156 108.812 166.562C108.401 165.969 107.88 165.672 107.25 165.672C106.615 165.672 106.104 165.917 105.719 166.406C105.333 166.891 105.141 167.531 105.141 168.328C105.141 169.104 105.326 169.745 105.695 170.25C106.07 170.75 106.57 171 107.195 171ZM118.406 171C118.104 171.359 117.742 171.648 117.32 171.867C116.904 172.086 116.445 172.195 115.945 172.195C115.289 172.195 114.716 172.034 114.227 171.711C113.742 171.388 113.367 170.935 113.102 170.352C112.836 169.763 112.703 169.115 112.703 168.406C112.703 167.646 112.846 166.961 113.133 166.352C113.424 165.742 113.836 165.276 114.367 164.953C114.898 164.63 115.518 164.469 116.227 164.469C117.352 164.469 118.237 164.891 118.883 165.734C119.534 166.573 119.859 167.719 119.859 169.172V169.594C119.859 171.807 119.422 173.424 118.547 174.445C117.672 175.461 116.352 175.982 114.586 176.008H114.305V174.789H114.609C115.802 174.768 116.719 174.458 117.359 173.859C118 173.255 118.349 172.302 118.406 171ZM116.18 171C116.664 171 117.109 170.852 117.516 170.555C117.927 170.258 118.227 169.891 118.414 169.453V168.875C118.414 167.927 118.208 167.156 117.797 166.562C117.385 165.969 116.865 165.672 116.234 165.672C115.599 165.672 115.089 165.917 114.703 166.406C114.318 166.891 114.125 167.531 114.125 168.328C114.125 169.104 114.31 169.745 114.68 170.25C115.055 170.75 115.555 171 116.18 171ZM127.391 171C127.089 171.359 126.727 171.648 126.305 171.867C125.888 172.086 125.43 172.195 124.93 172.195C124.273 172.195 123.701 172.034 123.211 171.711C122.727 171.388 122.352 170.935 122.086 170.352C121.82 169.763 121.688 169.115 121.688 168.406C121.688 167.646 121.831 166.961 122.117 166.352C122.409 165.742 122.82 165.276 123.352 164.953C123.883 164.63 124.503 164.469 125.211 164.469C126.336 164.469 127.221 164.891 127.867 165.734C128.518 166.573 128.844 167.719 128.844 169.172V169.594C128.844 171.807 128.406 173.424 127.531 174.445C126.656 175.461 125.336 175.982 123.57 176.008H123.289V174.789H123.594C124.786 174.768 125.703 174.458 126.344 173.859C126.984 173.255 127.333 172.302 127.391 171ZM125.164 171C125.648 171 126.094 170.852 126.5 170.555C126.911 170.258 127.211 169.891 127.398 169.453V168.875C127.398 167.927 127.193 167.156 126.781 166.562C126.37 165.969 125.849 165.672 125.219 165.672C124.583 165.672 124.073 165.917 123.688 166.406C123.302 166.891 123.109 167.531 123.109 168.328C123.109 169.104 123.294 169.745 123.664 170.25C124.039 170.75 124.539 171 125.164 171ZM137.742 174.039L139.836 167.547H141.312L138.281 176H137.18L134.117 167.547H135.594L137.742 174.039ZM142.195 171.695C142.195 170.867 142.357 170.122 142.68 169.461C143.008 168.799 143.461 168.289 144.039 167.93C144.622 167.57 145.286 167.391 146.031 167.391C147.182 167.391 148.112 167.789 148.82 168.586C149.534 169.383 149.891 170.443 149.891 171.766V171.867C149.891 172.69 149.732 173.43 149.414 174.086C149.102 174.737 148.651 175.245 148.062 175.609C147.479 175.974 146.807 176.156 146.047 176.156C144.901 176.156 143.971 175.758 143.258 174.961C142.549 174.164 142.195 173.109 142.195 171.797V171.695ZM143.648 171.867C143.648 172.805 143.865 173.557 144.297 174.125C144.734 174.693 145.318 174.977 146.047 174.977C146.781 174.977 147.365 174.69 147.797 174.117C148.229 173.539 148.445 172.732 148.445 171.695C148.445 170.768 148.224 170.018 147.781 169.445C147.344 168.867 146.76 168.578 146.031 168.578C145.318 168.578 144.742 168.862 144.305 169.43C143.867 169.997 143.648 170.81 143.648 171.867ZM153.664 165.5V167.547H155.242V168.664H153.664V173.906C153.664 174.245 153.734 174.5 153.875 174.672C154.016 174.839 154.255 174.922 154.594 174.922C154.76 174.922 154.99 174.891 155.281 174.828V176C154.901 176.104 154.531 176.156 154.172 176.156C153.526 176.156 153.039 175.961 152.711 175.57C152.383 175.18 152.219 174.625 152.219 173.906V168.664H150.68V167.547H152.219V165.5H153.664ZM160.445 176.156C159.299 176.156 158.367 175.781 157.648 175.031C156.93 174.276 156.57 173.268 156.57 172.008V171.742C156.57 170.904 156.729 170.156 157.047 169.5C157.37 168.839 157.818 168.323 158.391 167.953C158.969 167.578 159.594 167.391 160.266 167.391C161.365 167.391 162.219 167.753 162.828 168.477C163.438 169.201 163.742 170.237 163.742 171.586V172.188H158.016C158.036 173.021 158.279 173.695 158.742 174.211C159.211 174.721 159.805 174.977 160.523 174.977C161.034 174.977 161.466 174.872 161.82 174.664C162.174 174.456 162.484 174.18 162.75 173.836L163.633 174.523C162.924 175.612 161.862 176.156 160.445 176.156ZM160.266 168.578C159.682 168.578 159.193 168.792 158.797 169.219C158.401 169.641 158.156 170.234 158.062 171H162.297V170.891C162.255 170.156 162.057 169.589 161.703 169.188C161.349 168.781 160.87 168.578 160.266 168.578ZM170.344 173.758C170.344 173.367 170.195 173.065 169.898 172.852C169.607 172.633 169.094 172.445 168.359 172.289C167.63 172.133 167.049 171.945 166.617 171.727C166.19 171.508 165.872 171.247 165.664 170.945C165.461 170.643 165.359 170.284 165.359 169.867C165.359 169.174 165.651 168.589 166.234 168.109C166.823 167.63 167.573 167.391 168.484 167.391C169.443 167.391 170.219 167.638 170.812 168.133C171.411 168.628 171.711 169.26 171.711 170.031H170.258C170.258 169.635 170.089 169.294 169.75 169.008C169.417 168.721 168.995 168.578 168.484 168.578C167.958 168.578 167.547 168.693 167.25 168.922C166.953 169.151 166.805 169.451 166.805 169.82C166.805 170.169 166.943 170.432 167.219 170.609C167.495 170.786 167.992 170.956 168.711 171.117C169.435 171.279 170.021 171.471 170.469 171.695C170.917 171.919 171.247 172.19 171.461 172.508C171.68 172.82 171.789 173.203 171.789 173.656C171.789 174.411 171.487 175.018 170.883 175.477C170.279 175.93 169.495 176.156 168.531 176.156C167.854 176.156 167.255 176.036 166.734 175.797C166.214 175.557 165.805 175.224 165.508 174.797C165.216 174.365 165.07 173.898 165.07 173.398H166.516C166.542 173.883 166.734 174.268 167.094 174.555C167.458 174.836 167.938 174.977 168.531 174.977C169.078 174.977 169.516 174.867 169.844 174.648C170.177 174.424 170.344 174.128 170.344 173.758ZM177.008 171.461C177.008 172.622 176.854 173.737 176.547 174.805C176.245 175.867 175.779 176.849 175.148 177.75C174.523 178.651 173.867 179.292 173.18 179.672L172.875 178.789C173.677 178.174 174.32 177.221 174.805 175.93C175.294 174.633 175.544 173.195 175.555 171.617V171.367C175.555 170.273 175.44 169.258 175.211 168.32C174.982 167.378 174.661 166.534 174.25 165.789C173.844 165.044 173.385 164.464 172.875 164.047L173.18 163.164C173.867 163.544 174.521 164.18 175.141 165.07C175.766 165.961 176.232 166.943 176.539 168.016C176.852 169.089 177.008 170.237 177.008 171.461Z" fill="black"/>
</svg>
